Georama-BoldItalic.ufo
<glyph name="exclam" format="2">
  <advance width="248.34000000000003"/>
  <unicode hex="0021"/>
  <outline>
    <contour>
      <point x="55.52000000000001" y="260.5" type="line"/>
      <point x="184.95999999999998" y="260.5" type="line"/>
      <point x="274.24" y="740.0" type="line"/>
      <point x="123.1" y="740.0" type="line"/>
    </contour>
    <contour>
      <point x="7.340000000000003" y="53.26" type="curve" smooth="yes"/>
      <point x="7.040000000000006" y="12.799999999999999"/>
      <point x="28.000000000000007" y="-7.0"/>
      <point x="79.06" y="-7.0" type="curve" smooth="yes"/>
      <point x="148.08" y="-7.0"/>
      <point x="178.01999999999998" y="43.28"/>
      <point x="178.92000000000002" y="105.75999999999999" type="curve" smooth="yes"/>
      <point x="179.22" y="146.39999999999998"/>
      <point x="157.89999999999998" y="166.01999999999998"/>
      <point x="107.30000000000001" y="166.01999999999998" type="curve" smooth="yes"/>
      <point x="38.080000000000005" y="166.01999999999998"/>
      <point x="8.240000000000006" y="115.17999999999999"/>
    </contour>
  </outline>
</glyph>
<glyph name="numbersign" format="2">
  <advance width="639.48"/>
  <unicode hex="0023"/>
  <outline>
    <contour>
      <point x="117.24000000000001" y="424.84" type="line"/>
      <point x="183.56000000000003" y="424.84" type="line"/>
      <point x="136.56" y="271.0799999999999" type="line"/>
      <point x="71.68" y="271.0799999999999" type="line"/>
      <point x="52.66000000000001" y="153.66" type="line"/>
      <point x="105.14000000000003" y="153.66" type="line"/>
      <point x="61.26" y="0.0" type="line"/>
      <point x="193.58" y="0.0" type="line"/>
      <point x="237.16000000000003" y="153.66" type="line"/>
      <point x="315.74000000000007" y="153.66" type="line"/>
      <point x="272.16" y="0.0" type="line"/>
      <point x="403.88" y="0.0" type="line"/>
      <point x="447.46000000000004" y="153.66" type="line"/>
      <point x="527.36" y="153.66" type="line"/>
      <point x="545.9200000000001" y="271.0799999999999" type="line"/>
      <point x="479.56" y="271.0799999999999" type="line"/>
      <point x="525.88" y="424.84" type="line"/>
      <point x="591.4799999999999" y="424.84" type="line"/>
      <point x="610.8600000000001" y="542.54" type="line"/>
      <point x="557.4200000000001" y="542.54" type="line"/>
      <point x="602.6600000000001" y="700.0" type="line"/>
      <point x="470.52000000000004" y="700.0" type="line"/>
      <point x="425.28000000000003" y="542.54" type="line"/>
      <point x="346.7" y="542.54" type="line"/>
      <point x="391.94000000000005" y="700.0" type="line"/>
      <point x="260.21999999999997" y="700.0" type="line"/>
      <point x="214.98000000000002" y="542.54" type="line"/>
      <point x="136.34" y="542.54" type="line"/>
    </contour>
    <contour>
      <point x="315.28" y="424.84" type="line"/>
      <point x="393.86" y="424.84" type="line"/>
      <point x="347.28000000000003" y="271.0799999999999" type="line"/>
      <point x="268.7" y="271.0799999999999" type="line"/>
    </contour>
  </outline>
</glyph>
<glyph name="dollar" format="2">
  <advance width="639.48"/>
  <unicode hex="0024"/>
  <outline>
    <contour>
      <point x="603.64" y="674.44" type="line"/>
      <point x="569.8000000000001" y="687.08"/>
      <point x="518.04" y="702.72"/>
      <point x="452.00000000000006" y="707.64" type="curve"/>
      <point x="467.40000000000003" y="804.16" type="line"/>
      <point x="349.0" y="804.16" type="line"/>
      <point x="332.28" y="701.84" type="line"/>
      <point x="205.08" y="684.0799999999999"/>
      <point x="104.56000000000002" y="611.4799999999999"/>
      <point x="104.56000000000002" y="486.48" type="curve" smooth="yes"/>
      <point x="104.56000000000002" y="281.04"/>
      <point x="405.79999999999995" y="289.56"/>
      <point x="405.79999999999995" y="196.83999999999997" type="curve" smooth="yes"/>
      <point x="405.79999999999995" y="144.71999999999997"/>
      <point x="351.28000000000003" y="118.95999999999998"/>
      <point x="284.88" y="118.95999999999998" type="curve" smooth="yes"/>
      <point x="209.52" y="118.95999999999998"/>
      <point x="127.92" y="137.43999999999997"/>
      <point x="68.52" y="161.4" type="curve"/>
      <point x="20.880000000000003" y="35.2" type="line"/>
      <point x="69.91999999999999" y="15.279999999999998"/>
      <point x="141.04000000000002" y="-3.160000000000001"/>
      <point x="214.28000000000003" y="-7.199999999999999" type="curve"/>
      <point x="199.28000000000003" y="-105.0" type="line"/>
      <point x="317.4" y="-105.0" type="line"/>
      <point x="332.4" y="-4.36" type="line"/>
      <point x="461.4" y="15.36"/>
      <point x="566.2400000000001" y="86.44"/>
      <point x="566.2400000000001" y="214.04" type="curve" smooth="yes"/>
      <point x="566.2400000000001" y="417.44"/>
      <point x="267.24" y="403.88"/>
      <point x="267.24" y="499.63999999999993" type="curve" smooth="yes"/>
      <point x="267.24" y="549.5600000000001"/>
      <point x="321.48" y="576.5200000000001"/>
      <point x="383.4" y="576.5200000000001" type="curve" smooth="yes"/>
      <point x="443.99999999999994" y="576.5200000000001"/>
      <point x="503.04" y="567.8400000000001"/>
      <point x="557.0799999999999" y="546.9599999999999" type="curve"/>
    </contour>
  </outline>
</glyph>
<glyph name="ampersand" format="2">
  <advance width="704.0"/>
  <unicode hex="0026"/>
  <outline>
    <contour>
      <point x="288.66" y="-10.0" type="curve" smooth="yes"/>
      <point x="481.12" y="-10.0"/>
      <point x="609.9399999999999" y="125.6"/>
      <point x="610.3000000000001" y="301.14" type="curve"/>
      <point x="491.49999999999994" y="295.84" type="line"/>
      <point x="508.86" y="191.95999999999998"/>
      <point x="411.4200000000001" y="111.78"/>
      <point x="309.0" y="111.78" type="curve" smooth="yes"/>
      <point x="219.29999999999998" y="111.78"/>
      <point x="171.76" y="151.04"/>
      <point x="171.76" y="210.35999999999999" type="curve" smooth="yes"/>
      <point x="171.76" y="291.86"/>
      <point x="236.17999999999998" y="347.28000000000003"/>
      <point x="319.76" y="347.28000000000003" type="curve" smooth="yes"/>
      <point x="355.04" y="347.28000000000003" type="line"/>
      <point x="376.71999999999997" y="436.74" type="line"/>
      <point x="358.98" y="439.38000000000005" type="line" smooth="yes"/>
      <point x="298.90000000000003" y="446.06000000000006"/>
      <point x="267.32" y="471.66"/>
      <point x="267.32" y="515.88" type="curve" smooth="yes"/>
      <point x="267.32" y="559.5"/>
      <point x="304.06" y="593.2400000000001"/>
      <point x="357.40000000000003" y="593.2400000000001" type="curve" smooth="yes"/>
      <point x="393.66" y="593.2400000000001"/>
      <point x="427.22" y="582.34"/>
      <point x="460.19999999999993" y="558.14" type="curve"/>
      <point x="535.26" y="653.82" type="line"/>
      <point x="480.44" y="690.86"/>
      <point x="418.09999999999997" y="710.0"/>
      <point x="341.6" y="710.0" type="curve" smooth="yes"/>
      <point x="202.98" y="710.0"/>
      <point x="116.88" y="630.2199999999999"/>
      <point x="116.88" y="537.48" type="curve" smooth="yes"/>
      <point x="116.88" y="478.82000000000005"/>
      <point x="151.66" y="432.52000000000004"/>
      <point x="211.93999999999997" y="407.16" type="curve"/>
      <point x="97.94000000000001" y="387.0"/>
      <point x="17.960000000000004" y="312.85999999999996"/>
      <point x="17.960000000000004" y="189.45999999999998" type="curve" smooth="yes"/>
      <point x="17.960000000000004" y="71.68"/>
      <point x="107.61999999999999" y="-10.0"/>
    </contour>
    <contour>
      <point x="419.56" y="223.04" type="line"/>
      <point x="424.46" y="257.21999999999997"/>
      <point x="442.9000000000001" y="274.0799999999999"/>
      <point x="471.70000000000005" y="274.0799999999999" type="curve" smooth="yes"/>
      <point x="519.78" y="274.0799999999999"/>
      <point x="564.1600000000001" y="263.84000000000003"/>
      <point x="606.54" y="263.84000000000003" type="curve" smooth="yes"/>
      <point x="679.26" y="263.84000000000003"/>
      <point x="727.44" y="332.18"/>
      <point x="719.4" y="414.12" type="curve"/>
      <point x="628.6999999999999" y="415.74" type="line"/>
      <point x="626.44" y="367.84"/>
      <point x="602.64" y="355.58"/>
      <point x="557.84" y="355.58" type="curve" smooth="yes"/>
      <point x="522.0000000000001" y="355.58"/>
      <point x="493.24" y="367.58"/>
      <point x="456.08000000000004" y="367.58" type="curve" smooth="yes"/>
      <point x="377.72" y="367.58"/>
      <point x="338.14" y="311.58"/>
      <point x="332.52" y="243.65999999999997" type="curve"/>
    </contour>
  </outline>
</glyph>
<glyph name="quotesingle" format="2">
  <advance width="201.44"/>
  <unicode hex="0027"/>
  <outline>
    <contour>
      <point x="62.36000000000001" y="427.0" type="line"/>
      <point x="184.42000000000002" y="427.0" type="line"/>
      <point x="235.62" y="700.0" type="line"/>
      <point x="99.82000000000001" y="700.0" type="line"/>
    </contour>
  </outline>
</glyph>
<glyph name="parenleft" format="2">
  <advance width="324.74"/>
  <unicode hex="0028"/>
  <outline>
    <contour>
      <point x="40.64" y="73.60000000000001" type="curve" smooth="yes"/>
      <point x="40.64" y="-83.28"/>
      <point x="93.54" y="-198.68"/>
      <point x="222.42000000000002" y="-220.0" type="curve"/>
      <point x="243.74" y="-103.80000000000001" type="line"/>
      <point x="188.58" y="-81.32000000000001"/>
      <point x="161.94" y="-23.24"/>
      <point x="161.94" y="73.66000000000001" type="curve" smooth="yes"/>
      <point x="161.94" y="233.02"/>
      <point x="230.9" y="604.28"/>
      <point x="359.72" y="630.8399999999999" type="curve"/>
      <point x="376.59999999999997" y="749.82" type="line"/>
      <point x="135.22" y="729.32"/>
      <point x="40.64" y="325.72"/>
    </contour>
  </outline>
</glyph>
<glyph name="parenright" format="2">
  <advance width="324.74"/>
  <unicode hex="0029"/>
  <outline>
    <contour>
      <point x="281.0" y="456.16" type="curve" smooth="yes"/>
      <point x="281.0" y="615.16"/>
      <point x="228.04" y="728.68"/>
      <point x="99.04" y="750.0" type="curve"/>
      <point x="78.08" y="631.6200000000001" type="line"/>
      <point x="134.8" y="607.8199999999999"/>
      <point x="159.70000000000002" y="550.16"/>
      <point x="159.70000000000002" y="457.04" type="curve" smooth="yes"/>
      <point x="159.70000000000002" y="298.52"/>
      <point x="91.4" y="-73.86000000000001"/>
      <point x="-38.50000000000001" y="-100.96000000000001" type="curve"/>
      <point x="-55.2" y="-220.0" type="line"/>
      <point x="181.38" y="-197.02"/>
      <point x="281.0" y="201.31999999999996"/>
    </contour>
  </outline>
</glyph>
<glyph name="asterisk" format="2">
  <advance width="358.48"/>
  <unicode hex="002A"/>
  <outline>
    <contour>
      <point x="124.92" y="367.5" type="line"/>
      <point x="207.46" y="456.98" type="line"/>
      <point x="260.35999999999996" y="367.68" type="line"/>
      <point x="321.46" y="408.23999999999995" type="line"/>
      <point x="283.76" y="510.62" type="line"/>
      <point x="386.94" y="557.92" type="line"/>
      <point x="377.04" y="625.1800000000001" type="line"/>
      <point x="272.8" y="598.5799999999999" type="line"/>
      <point x="283.3" y="716.02" type="line"/>
      <point x="215.26" y="716.02" type="line"/>
      <point x="187.68" y="598.76" type="line"/>
      <point x="92.68" y="625.36" type="line"/>
      <point x="61.26" y="558.28" type="line"/>
      <point x="147.22" y="510.9800000000001" type="line"/>
      <point x="77.17999999999999" y="408.47999999999996" type="line"/>
    </contour>
  </outline>
</glyph>
<glyph name="plus" format="2">
  <advance width="492.94"/>
  <unicode hex="002B"/>
  <outline>
    <contour>
      <point x="155.54000000000002" y="114.41999999999999" type="line"/>
      <point x="286.28" y="114.41999999999999" type="line"/>
      <point x="307.53999999999996" y="249.71999999999997" type="line"/>
      <point x="439.46" y="249.71999999999997" type="line"/>
      <point x="460.38" y="379.90000000000003" type="line"/>
      <point x="328.46000000000004" y="379.90000000000003" type="line"/>
      <point x="350.12" y="515.1" type="line"/>
      <point x="219.94000000000003" y="515.1" type="line"/>
      <point x="197.72" y="379.90000000000003" type="line"/>
      <point x="66.46000000000001" y="379.90000000000003" type="line"/>
      <point x="45.54" y="249.71999999999997" type="line"/>
      <point x="177.35999999999999" y="249.71999999999997" type="line"/>
    </contour>
  </outline>
</glyph>
<glyph name="comma" format="2">
  <advance width="225.68"/>
  <unicode hex="002C"/>
  <outline>
    <contour>
      <point x="14.120000000000003" y="87.18" type="line"/>
      <point x="14.08" y="62.0"/>
      <point x="11.52" y="38.339999999999996"/>
      <point x="9.140000000000002" y="22.279999999999994" type="curve" smooth="yes"/>
      <point x="1.4400000000000022" y="-39.04"/>
      <point x="-32.58" y="-117.58000000000001"/>
      <point x="-76.11999999999999" y="-164.57999999999998" type="curve"/>
      <point x="33.19999999999999" y="-190.88000000000002" type="line"/>
      <point x="105.79999999999998" y="-122.34"/>
      <point x="154.8" y="-31.98000000000001"/>
      <point x="154.8" y="55.57999999999999" type="curve" smooth="yes"/>
      <point x="154.8" y="67.72"/>
      <point x="153.73999999999998" y="79.14"/>
      <point x="151.94" y="90.22" type="curve"/>
    </contour>
  </outline>
</glyph>
<glyph name="hyphen" format="2">
  <advance width="340.32"/>
  <unicode hex="002D"/>
  <outline>
    <contour>
      <point x="34.00000000000001" y="234.34" type="line"/>
      <point x="292.58" y="234.34" type="line"/>
      <point x="315.36" y="371.36" type="line"/>
      <point x="56.78" y="371.36" type="line"/>
    </contour>
  </outline>
</glyph>
<glyph name="period" format="2">
  <advance width="229.32"/>
  <unicode hex="002E"/>
  <outline>
    <contour>
      <point x="-1.9799999999999986" y="54.519999999999996" type="curve" smooth="yes"/>
      <point x="-2.2799999999999994" y="13.639999999999999"/>
      <point x="18.26" y="-5.739999999999999"/>
      <point x="69.74" y="-5.739999999999999" type="curve" smooth="yes"/>
      <point x="138.76" y="-5.739999999999999"/>
      <point x="168.28" y="44.54"/>
      <point x="169.17999999999998" y="107.86" type="curve" smooth="yes"/>
      <point x="169.48" y="148.08"/>
      <point x="148.57999999999998" y="167.27999999999997"/>
      <point x="97.97999999999999" y="167.27999999999997" type="curve" smooth="yes"/>
      <point x="28.34" y="167.27999999999997"/>
      <point x="-1.0799999999999965" y="116.44"/>
    </contour>
  </outline>
</glyph>
<glyph name="slash" format="2">
  <advance width="410.80000000000007"/>
  <unicode hex="002F"/>
  <outline>
    <contour>
      <point x="-75.22000000000001" y="-210.0" type="line"/>
      <point x="49.379999999999995" y="-210.0" type="line"/>
      <point x="483.02" y="740.0" type="line"/>
      <point x="357.29999999999995" y="740.0" type="line"/>
    </contour>
  </outline>
</glyph>
<glyph name="zero" format="2">
  <advance width="640.2"/>
  <unicode hex="0030"/>
  <outline>
    <contour>
      <point x="294.79999999999995" y="-11.2" type="curve" smooth="yes"/>
      <point x="510.6000000000001" y="-11.2"/>
      <point x="619.8000000000001" y="209.19999999999996"/>
      <point x="619.8000000000001" y="444.0" type="curve" smooth="yes"/>
      <point x="619.8000000000001" y="617.4"/>
      <point x="546.6" y="710.6"/>
      <point x="369.0" y="710.6" type="curve" smooth="yes"/>
      <point x="147.8" y="710.6"/>
      <point x="43.4" y="487.19999999999993"/>
      <point x="43.4" y="256.0" type="curve" smooth="yes"/>
      <point x="43.4" y="83.19999999999999"/>
      <point x="117.20000000000002" y="-11.2"/>
    </contour>
    <contour>
      <point x="298.8" y="119.60000000000001" type="curve" smooth="yes"/>
      <point x="229.39999999999998" y="119.60000000000001"/>
      <point x="203.39999999999998" y="165.6"/>
      <point x="203.40000000000003" y="246.39999999999998" type="curve" smooth="yes"/>
      <point x="203.4" y="377.2"/>
      <point x="250.39999999999995" y="580.4000000000001"/>
      <point x="364.99999999999994" y="580.4000000000001" type="curve" smooth="yes"/>
      <point x="434.40000000000003" y="580.4000000000001"/>
      <point x="459.79999999999995" y="535.1999999999999"/>
      <point x="459.8" y="454.40000000000003" type="curve" smooth="yes"/>
      <point x="459.8" y="324.8"/>
      <point x="412.2000000000001" y="119.60000000000001"/>
    </contour>
  </outline>
</glyph>
<glyph name="one" format="2">
  <advance width="639.48"/>
  <unicode hex="0031"/>
  <outline>
    <contour>
      <point x="66.36" y="0.0" type="line"/>
      <point x="529.9200000000001" y="0.0" type="line"/>
      <point x="550.98" y="129.07999999999998" type="line"/>
      <point x="405.64000000000004" y="129.07999999999998" type="line"/>
      <point x="497.78000000000003" y="701.2" type="line"/>
      <point x="420.84000000000003" y="701.2" type="line"/>
      <point x="136.48000000000002" y="588.76" type="line"/>
      <point x="149.96" y="449.54" type="line"/>
      <point x="312.0" y="518.72" type="line"/>
      <point x="249.98000000000002" y="129.07999999999998" type="line"/>
      <point x="87.00000000000001" y="129.07999999999998" type="line"/>
    </contour>
  </outline>
</glyph>
<glyph name="two" format="2">
  <advance width="640.2"/>
  <unicode hex="0032"/>
  <outline>
    <contour>
      <point x="49.6" y="101.99999999999997" type="curve"/>
      <point x="34.6" y="0.0" type="line"/>
      <point x="528.2000000000002" y="0.0" type="line"/>
      <point x="549.4" y="125.6" type="line"/>
      <point x="281.6" y="125.6" type="line"/>
      <point x="423.00000000000006" y="249.39999999999998"/>
      <point x="558.8000000000001" y="371.99999999999994"/>
      <point x="558.8000000000001" y="538.2" type="curve" smooth="yes"/>
      <point x="558.8000000000001" y="647.3999999999999"/>
      <point x="475.3999999999999" y="710.0"/>
      <point x="364.00000000000006" y="710.0" type="curve" smooth="yes"/>
      <point x="280.6" y="710.0"/>
      <point x="188.0" y="683.0"/>
      <point x="122.6" y="642.2" type="curve"/>
      <point x="152.79999999999998" y="511.99999999999994" type="line"/>
      <point x="206.2" y="539.6000000000001"/>
      <point x="260.0" y="558.5999999999999"/>
      <point x="308.2" y="558.5999999999999" type="curve" smooth="yes"/>
      <point x="362.2" y="558.5999999999999"/>
      <point x="392.4" y="527.6"/>
      <point x="392.4" y="486.19999999999993" type="curve" smooth="yes"/>
      <point x="392.4" y="366.2"/>
      <point x="220.8" y="208.6"/>
    </contour>
  </outline>
</glyph>
<glyph name="three" format="2">
  <advance width="640.2"/>
  <unicode hex="0033"/>
  <outline>
    <contour>
      <point x="13.2" y="44.2" type="line"/>
      <point x="75.79999999999998" y="7.800000000000001"/>
      <point x="153.00000000000003" y="-10.0"/>
      <point x="246.6" y="-10.0" type="curve" smooth="yes"/>
      <point x="391.80000000000007" y="-10.0"/>
      <point x="560.0" y="58.00000000000001"/>
      <point x="560.0" y="227.39999999999998" type="curve" smooth="yes"/>
      <point x="560.0" y="311.59999999999997"/>
      <point x="520.0" y="353.4"/>
      <point x="461.59999999999997" y="372.40000000000003" type="curve"/>
      <point x="535.1999999999999" y="403.4"/>
      <point x="589.0" y="461.59999999999997"/>
      <point x="589.0" y="552.4" type="curve" smooth="yes"/>
      <point x="589.0" y="651.5999999999999"/>
      <point x="513.5999999999999" y="710.0"/>
      <point x="358.8" y="710.0" type="curve" smooth="yes"/>
      <point x="271.8" y="710.0"/>
      <point x="182.0" y="694.4"/>
      <point x="125.4" y="659.8000000000001" type="curve"/>
      <point x="146.8" y="546.5999999999999" type="line"/>
      <point x="195.8" y="567.1999999999999"/>
      <point x="253.4" y="578.5999999999999"/>
      <point x="312.4" y="578.5999999999999" type="curve" smooth="yes"/>
      <point x="386.6" y="578.5999999999999"/>
      <point x="431.40000000000003" y="552.0"/>
      <point x="431.40000000000003" y="502.6" type="curve" smooth="yes"/>
      <point x="431.40000000000003" y="449.4"/>
      <point x="392.80000000000007" y="412.59999999999997"/>
      <point x="300.6" y="412.59999999999997" type="curve" smooth="yes"/>
      <point x="199.39999999999998" y="412.59999999999997" type="line"/>
      <point x="180.4" y="300.2" type="line"/>
      <point x="299.8" y="300.2" type="line" smooth="yes"/>
      <point x="375.8" y="300.2"/>
      <point x="406.8" y="272.8"/>
      <point x="406.8" y="224.39999999999998" type="curve" smooth="yes"/>
      <point x="406.8" y="155.39999999999998"/>
      <point x="350.00000000000006" y="120.0"/>
      <point x="253.79999999999998" y="120.0" type="curve" smooth="yes"/>
      <point x="183.20000000000002" y="120.0"/>
      <point x="118.4" y="133.00000000000003"/>
      <point x="71.6" y="156.99999999999997" type="curve"/>
    </contour>
  </outline>
</glyph>
<glyph name="four" format="2">
  <advance width="640.2"/>
  <unicode hex="0034"/>
  <outline>
    <contour>
      <point x="8.800000000000002" y="117.60000000000001" type="line"/>
      <point x="321.4" y="117.60000000000001" type="line"/>
      <point x="303.00000000000006" y="-0.6000000000000003" type="line"/>
      <point x="463.0" y="-0.6000000000000003" type="line"/>
      <point x="481.40000000000003" y="117.60000000000001" type="line"/>
      <point x="578.8" y="117.60000000000001" type="line"/>
      <point x="597.2" y="236.2" type="line"/>
      <point x="500.8" y="236.2" type="line"/>
      <point x="575.8000000000001" y="699.4" type="line"/>
      <point x="441.4" y="701.2" type="line"/>
      <point x="24.599999999999998" y="223.8" type="line"/>
    </contour>
    <contour>
      <point x="160.6" y="236.2" type="line"/>
      <point x="388.0" y="497.4" type="line"/>
      <point x="344.0" y="236.2" type="line"/>
    </contour>
  </outline>
</glyph>
<glyph name="five" format="2">
  <advance width="640.2"/>
  <unicode hex="0035"/>
  <outline>
    <contour>
      <point x="23.4" y="41.199999999999996" type="line"/>
      <point x="83.80000000000001" y="5.6000000000000005"/>
      <point x="154.4" y="-10.0"/>
      <point x="247.60000000000002" y="-10.0" type="curve" smooth="yes"/>
      <point x="476.20000000000005" y="-10.0"/>
      <point x="566.0" y="118.60000000000002"/>
      <point x="566.0" y="260.99999999999994" type="curve" smooth="yes"/>
      <point x="566.0" y="371.79999999999995"/>
      <point x="505.0" y="423.6"/>
      <point x="375.2" y="424.4000000000001" type="curve" smooth="yes"/>
      <point x="264.59999999999997" y="424.80000000000007" type="line"/>
      <point x="296.4" y="566.4" type="line"/>
      <point x="581.8" y="566.4" type="line"/>
      <point x="602.9999999999999" y="700.0" type="line"/>
      <point x="210.8" y="700.0" type="line"/>
      <point x="106.40000000000002" y="314.4000000000001" type="line"/>
      <point x="113.00000000000001" y="303.79999999999995" type="line"/>
      <point x="304.99999999999994" y="303.79999999999995" type="line" smooth="yes"/>
      <point x="382.99999999999994" y="303.79999999999995"/>
      <point x="408.6000000000001" y="280.0"/>
      <point x="408.6000000000001" y="233.8" type="curve" smooth="yes"/>
      <point x="408.6000000000001" y="181.60000000000002"/>
      <point x="370.4" y="120.19999999999999"/>
      <point x="251.6" y="120.19999999999999" type="curve" smooth="yes"/>
      <point x="177.59999999999997" y="120.19999999999999"/>
      <point x="115.4" y="142.6"/>
      <point x="73.4" y="163.6" type="curve"/>
    </contour>
  </outline>
</glyph>
<glyph name="six" format="2">
  <advance width="640.2"/>
  <unicode hex="0036"/>
  <note>
14
</note>
  <outline>
    <contour>
      <point x="310.2" y="-10.0" type="curve" smooth="yes"/>
      <point x="472.7999999999999" y="-10.0"/>
      <point x="591.4" y="83.19999999999999"/>
      <point x="591.4" y="259.6" type="curve" smooth="yes"/>
      <point x="591.4" y="379.4"/>
      <point x="517.2" y="447.40000000000003"/>
      <point x="391.6" y="447.40000000000003" type="curve" smooth="yes"/>
      <point x="323.40000000000003" y="447.40000000000003"/>
      <point x="252.39999999999995" y="429.0"/>
      <point x="199.4" y="379.0" type="curve"/>
      <point x="192.60000000000002" y="273.4" type="line"/>
      <point x="229.00000000000003" y="308.4"/>
      <point x="284.2" y="329.79999999999995"/>
      <point x="338.2" y="329.79999999999995" type="curve" smooth="yes"/>
      <point x="415.8" y="329.79999999999995"/>
      <point x="445.0" y="296.40000000000003"/>
      <point x="445.0" y="238.59999999999997" type="curve" smooth="yes"/>
      <point x="445.0" y="165.2"/>
      <point x="393.6" y="117.0"/>
      <point x="322.4" y="117.0" type="curve" smooth="yes"/>
      <point x="242.8" y="117.0"/>
      <point x="200.79999999999998" y="161.2"/>
      <point x="200.79999999999998" y="249.40000000000003" type="curve" smooth="yes"/>
      <point x="200.79999999999998" y="350.8"/>
      <point x="225.6" y="443.2"/>
      <point x="280.0" y="502.20000000000005" type="curve" smooth="yes"/>
      <point x="322.99999999999994" y="548.6"/>
      <point x="381.0" y="577.4000000000001"/>
      <point x="457.2" y="577.4000000000001" type="curve" smooth="yes"/>
      <point x="501.9999999999999" y="577.4000000000001"/>
      <point x="545.5999999999999" y="567.4"/>
      <point x="584.4" y="551.0" type="curve"/>
      <point x="636.0" y="671.1999999999999" type="line"/>
      <point x="598.0" y="691.0000000000001"/>
      <point x="527.4000000000001" y="710.0"/>
      <point x="444.59999999999997" y="710.0" type="curve" smooth="yes"/>
      <point x="197.6" y="710.0"/>
      <point x="51.800000000000004" y="519.0000000000001"/>
      <point x="51.800000000000004" y="249.99999999999997" type="curve" smooth="yes"/>
      <point x="51.800000000000004" y="77.39999999999999"/>
      <point x="146.6" y="-10.0"/>
    </contour>
  </outline>
</glyph>
<glyph name="seven" format="2">
  <advance width="639.48"/>
  <unicode hex="0037"/>
  <note>
9
</note>
  <outline>
    <contour>
      <point x="128.74" y="0.0" type="curve"/>
      <point x="291.86" y="0.0" type="line"/>
      <point x="314.18" y="120.54"/>
      <point x="358.36" y="210.29999999999998"/>
      <point x="469.58" y="376.38" type="curve" smooth="yes"/>
      <point x="614.82" y="592.3" type="line"/>
      <point x="632.08" y="700.0" type="line"/>
      <point x="132.42" y="700.0" type="line"/>
      <point x="110.78" y="563.5" type="line"/>
      <point x="433.46000000000004" y="563.5" type="line"/>
      <point x="304.00000000000006" y="383.14000000000004" type="line" smooth="yes"/>
      <point x="200.04" y="238.45999999999998"/>
      <point x="150.89999999999998" y="135.9"/>
    </contour>
  </outline>
</glyph>
<glyph name="eight" format="2">
  <advance width="665.0"/>
  <unicode hex="0038"/>
  <outline>
    <contour>
      <point x="309.8" y="-10.0" type="curve" smooth="yes"/>
      <point x="478.79999999999995" y="-10.0"/>
      <point x="605.0" y="48.40000000000002"/>
      <point x="605.0" y="211.0" type="curve" smooth="yes"/>
      <point x="605.0" y="451.8"/>
      <point x="240.60000000000002" y="370.59999999999997"/>
      <point x="240.60000000000002" y="524.0" type="curve" smooth="yes"/>
      <point x="240.60000000000002" y="570.3999999999999"/>
      <point x="302.0" y="590.4"/>
      <point x="380.6" y="590.4" type="curve" smooth="yes"/>
      <point x="466.6" y="590.4"/>
      <point x="504.4" y="557.0"/>
      <point x="504.4" y="510.0" type="curve" smooth="yes"/>
      <point x="504.4" y="451.4"/>
      <point x="457.8" y="426.20000000000005"/>
      <point x="406.0" y="399.8" type="curve"/>
      <point x="480.2" y="350.6" type="line"/>
      <point x="559.4" y="390.8"/>
      <point x="631.4" y="441.8"/>
      <point x="631.4" y="539.8" type="curve" smooth="yes"/>
      <point x="631.4" y="631.2"/>
      <point x="563.4000000000001" y="710.0"/>
      <point x="388.0" y="710.0" type="curve" smooth="yes"/>
      <point x="224.20000000000002" y="710.0"/>
      <point x="108.6" y="644.8"/>
      <point x="108.6" y="512.4" type="curve" smooth="yes"/>
      <point x="108.6" y="268.40000000000003"/>
      <point x="468.2" y="361.8"/>
      <point x="468.2" y="195.79999999999998" type="curve" smooth="yes"/>
      <point x="468.2" y="123.0"/>
      <point x="404.0" y="103.80000000000001"/>
      <point x="319.2" y="103.80000000000001" type="curve" smooth="yes"/>
      <point x="219.0" y="103.80000000000001"/>
      <point x="166.6" y="145.2"/>
      <point x="166.6" y="201.0" type="curve" smooth="yes"/>
      <point x="166.6" y="270.8"/>
      <point x="228.4" y="301.2"/>
      <point x="292.8" y="317.6" type="curve"/>
      <point x="215.2" y="375.6" type="line"/>
      <point x="114.19999999999999" y="355.59999999999997"/>
      <point x="30.6" y="278.6"/>
      <point x="30.6" y="183.0" type="curve" smooth="yes"/>
      <point x="30.6" y="74.39999999999999"/>
      <point x="114.8" y="-10.0"/>
    </contour>
  </outline>
</glyph>
<glyph name="nine" format="2">
  <advance width="640.2"/>
  <unicode hex="0039"/>
  <outline>
    <contour>
      <point x="355.8" y="710.0" type="curve" smooth="yes"/>
      <point x="194.79999999999998" y="710.0"/>
      <point x="74.6" y="617.6"/>
      <point x="74.6" y="446.4" type="curve" smooth="yes"/>
      <point x="74.6" y="319.40000000000003"/>
      <point x="152.8" y="252.6"/>
      <point x="278.3999999999999" y="252.6" type="curve" smooth="yes"/>
      <point x="346.59999999999997" y="252.6"/>
      <point x="413.6" y="271.00000000000006"/>
      <point x="466.59999999999997" y="321.0" type="curve"/>
      <point x="473.4" y="426.6" type="line"/>
      <point x="437.0" y="391.59999999999997"/>
      <point x="381.8" y="370.2"/>
      <point x="327.79999999999995" y="370.2" type="curve" smooth="yes"/>
      <point x="250.2" y="370.2"/>
      <point x="220.99999999999997" y="403.59999999999997"/>
      <point x="220.99999999999997" y="461.40000000000003" type="curve" smooth="yes"/>
      <point x="220.99999999999997" y="534.8000000000001"/>
      <point x="272.4" y="583.0000000000001"/>
      <point x="343.59999999999997" y="583.0000000000001" type="curve" smooth="yes"/>
      <point x="423.19999999999993" y="583.0000000000001"/>
      <point x="465.20000000000005" y="538.8000000000001"/>
      <point x="465.20000000000005" y="450.5999999999999" type="curve" smooth="yes"/>
      <point x="465.20000000000005" y="349.2"/>
      <point x="443.8" y="254.2"/>
      <point x="389.40000000000003" y="195.2" type="curve" smooth="yes"/>
      <point x="346.79999999999995" y="148.4"/>
      <point x="292.0" y="119.99999999999999"/>
      <point x="211.79999999999998" y="119.99999999999999" type="curve" smooth="yes"/>
      <point x="167.0" y="119.99999999999999"/>
      <point x="120.4" y="132.6"/>
      <point x="81.6" y="149.00000000000003" type="curve"/>
      <point x="30.0" y="28.8" type="line"/>
      <point x="68.0" y="9.0"/>
      <point x="138.6" y="-10.0"/>
      <point x="221.39999999999998" y="-10.0" type="curve" smooth="yes"/>
      <point x="468.4" y="-10.0"/>
      <point x="614.1999999999999" y="180.99999999999997"/>
      <point x="614.1999999999999" y="450.00000000000006" type="curve" smooth="yes"/>
      <point x="614.1999999999999" y="622.5999999999999"/>
      <point x="519.3999999999999" y="710.0"/>
    </contour>
  </outline>
</glyph>
<glyph name="less" format="2">
  <advance width="491.14"/>
  <unicode hex="003C"/>
  <outline>
    <contour>
      <point x="418.62" y="75.53999999999999" type="line"/>
      <point x="438.28" y="201.3" type="line"/>
      <point x="177.39999999999998" y="306.78000000000003" type="line"/>
      <point x="472.61999999999995" y="412.58" type="line"/>
      <point x="492.28000000000003" y="538.96" type="line"/>
      <point x="56.31999999999999" y="376.16" type="line"/>
      <point x="34.940000000000005" y="241.48000000000002" type="line"/>
    </contour>
  </outline>
</glyph>
<glyph name="equal" format="2">
  <advance width="475.76000000000005"/>
  <unicode hex="003D"/>
  <outline>
    <contour>
      <point x="423.1" y="259.72" type="line"/>
      <point x="48.5" y="259.72" type="line"/>
      <point x="28.420000000000005" y="129.36" type="line"/>
      <point x="403.02" y="129.36" type="line"/>
    </contour>
    <contour>
      <point x="457.19999999999993" y="485.8" type="line"/>
      <point x="82.74000000000001" y="485.8" type="line"/>
      <point x="62.52" y="355.44" type="line"/>
      <point x="437.11999999999995" y="355.44" type="line"/>
    </contour>
  </outline>
</glyph>
<glyph name="greater" format="2">
  <advance width="491.14"/>
  <unicode hex="003E"/>
  <outline>
    <contour>
      <point x="445.19999999999993" y="240.94" type="line"/>
      <point x="466.02000000000004" y="371.42" type="line"/>
      <point x="83.14" y="535.8000000000001" type="line"/>
      <point x="62.92" y="412.69999999999993" type="line"/>
      <point x="324.68" y="306.96" type="line"/>
      <point x="29.32" y="201.6" type="line"/>
      <point x="9.200000000000001" y="75.18" type="line"/>
    </contour>
  </outline>
</glyph>
<glyph name="question" format="2">
  <advance width="459.8"/>
  <unicode hex="003F"/>
  <outline>
    <contour>
      <point x="140.60000000000002" y="260.44" type="line"/>
      <point x="270.16" y="260.44" type="line"/>
      <point x="281.47999999999996" y="325.08" type="line"/>
      <point x="400.44000000000005" y="377.56"/>
      <point x="487.84000000000003" y="451.76"/>
      <point x="487.84000000000003" y="581.64" type="curve" smooth="yes"/>
      <point x="487.84000000000003" y="695.2"/>
      <point x="404.28" y="750.0"/>
      <point x="295.40000000000003" y="750.0" type="curve" smooth="yes"/>
      <point x="220.92000000000002" y="750.0"/>
      <point x="134.6" y="726.3599999999999"/>
      <point x="74.52000000000001" y="685.0" type="curve"/>
      <point x="99.80000000000001" y="558.2400000000001" type="line"/>
      <point x="151.32000000000002" y="587.9600000000002"/>
      <point x="199.12" y="604.84"/>
      <point x="248.16" y="604.84" type="curve" smooth="yes"/>
      <point x="291.48" y="604.84"/>
      <point x="323.40000000000003" y="590.68"/>
      <point x="323.40000000000003" y="544.88" type="curve" smooth="yes"/>
      <point x="323.40000000000003" y="481.32"/>
      <point x="281.32" y="440.64"/>
      <point x="159.48000000000002" y="398.64000000000004" type="curve"/>
    </contour>
    <contour>
      <point x="92.28000000000002" y="52.35999999999999" type="curve" smooth="yes"/>
      <point x="92.4" y="12.08"/>
      <point x="112.64000000000001" y="-7.0"/>
      <point x="163.16000000000003" y="-7.0" type="curve" smooth="yes"/>
      <point x="232.24" y="-7.0"/>
      <point x="263.68" y="41.6"/>
      <point x="263.32" y="105.28" type="curve" smooth="yes"/>
      <point x="263.2" y="146.39999999999998"/>
      <point x="242.72" y="165.71999999999997"/>
      <point x="192.96" y="165.71999999999997" type="curve" smooth="yes"/>
      <point x="122.72" y="165.71999999999997"/>
      <point x="91.92000000000002" y="115.47999999999999"/>
    </contour>
  </outline>
</glyph>
<glyph name="at" format="2">
  <advance width="876.0"/>
  <unicode hex="0040"/>
  <outline>
    <contour>
      <point x="376.59999999999997" y="-121.6" type="curve" smooth="yes"/>
      <point x="440.59999999999997" y="-121.6"/>
      <point x="528.6" y="-103.39999999999999"/>
      <point x="590.1999999999999" y="-73.39999999999999" type="curve"/>
      <point x="576.4" y="-18.0" type="line"/>
      <point x="511.4" y="-43.8"/>
      <point x="442.8" y="-57.80000000000002"/>
      <point x="379.8" y="-57.80000000000002" type="curve" smooth="yes"/>
      <point x="217.2" y="-57.80000000000002"/>
      <point x="103.60000000000001" y="27.799999999999997"/>
      <point x="103.60000000000001" y="216.79999999999998" type="curve" smooth="yes"/>
      <point x="103.60000000000001" y="430.0"/>
      <point x="254.0" y="657.8"/>
      <point x="503.4" y="657.8" type="curve" smooth="yes"/>
      <point x="686.6" y="657.8"/>
      <point x="784.4" y="562.4"/>
      <point x="784.4" y="389.4" type="curve" smooth="yes"/>
      <point x="784.4" y="288.59999999999997"/>
      <point x="746.8" y="142.60000000000002"/>
      <point x="660.1999999999999" y="142.60000000000002" type="curve" smooth="yes"/>
      <point x="607.2" y="142.60000000000002"/>
      <point x="602.6" y="186.8"/>
      <point x="617.6" y="248.8" type="curve" smooth="yes"/>
      <point x="682.2" y="516.6" type="line"/>
      <point x="625.4" y="540.8"/>
      <point x="565.8" y="555.1999999999999"/>
      <point x="503.80000000000007" y="555.1999999999999" type="curve" smooth="yes"/>
      <point x="312.0" y="555.1999999999999"/>
      <point x="209.0" y="355.20000000000005"/>
      <point x="209.0" y="201.0" type="curve" smooth="yes"/>
      <point x="209.0" y="107.0"/>
      <point x="256.59999999999997" y="59.0"/>
      <point x="338.59999999999997" y="59.0" type="curve" smooth="yes"/>
      <point x="405.8" y="59.0"/>
      <point x="468.8" y="99.6"/>
      <point x="513.0" y="153.0" type="curve"/>
      <point x="524.8" y="82.4"/>
      <point x="566.1999999999999" y="54.599999999999994"/>
      <point x="633.5999999999999" y="54.599999999999994" type="curve" smooth="yes"/>
      <point x="779.6" y="54.599999999999994"/>
      <point x="852.2" y="231.40000000000003"/>
      <point x="852.2" y="399.00000000000006" type="curve" smooth="yes"/>
      <point x="852.2" y="602.0"/>
      <point x="714.9999999999999" y="721.2"/>
      <point x="516.8" y="721.2" type="curve" smooth="yes"/>
      <point x="213.79999999999998" y="721.2"/>
      <point x="34.8" y="472.79999999999995"/>
      <point x="34.8" y="203.0" type="curve" smooth="yes"/>
      <point x="34.8" y="-0.6000000000000059"/>
      <point x="162.39999999999998" y="-121.6"/>
    </contour>
    <contour>
      <point x="401.0" y="177.8" type="curve" smooth="yes"/>
      <point x="360.6" y="177.8"/>
      <point x="339.4" y="199.0"/>
      <point x="339.4" y="237.39999999999998" type="curve" smooth="yes"/>
      <point x="339.4" y="309.40000000000003"/>
      <point x="409.99999999999994" y="457.2"/>
      <point x="489.19999999999993" y="457.2" type="curve" smooth="yes"/>
      <point x="512.8000000000001" y="457.2"/>
      <point x="529.1999999999999" y="453.6"/>
      <point x="551.1999999999999" y="445.59999999999997" type="curve"/>
      <point x="501.0" y="236.20000000000002" type="line" smooth="yes"/>
      <point x="481.6" y="203.4"/>
      <point x="439.0" y="177.8"/>
    </contour>
  </outline>
</glyph>
<glyph name="A" format="2">
  <advance width="623.04"/>
  <unicode hex="0041"/>
  <anchor x="267.88000000000005" y="0.0" name="bottom"/>
  <anchor x="572.0799999999999" y="0.0" name="ogonek"/>
  <anchor x="376.56" y="700.0" name="top"/>
  <outline>
    <contour>
      <point x="-37.04" y="0.0" type="line"/>
      <point x="134.43999999999997" y="0.0" type="line"/>
      <point x="190.4" y="134.44" type="line"/>
      <point x="386.88" y="134.44" type="line"/>
      <point x="401.0" y="0.0" type="line"/>
      <point x="572.0799999999999" y="0.0" type="line"/>
      <point x="477.32" y="705.8" type="line"/>
      <point x="276.0" y="705.8" type="line"/>
    </contour>
    <contour>
      <point x="238.76" y="260.84" type="line"/>
      <point x="358.28000000000003" y="579.4399999999999" type="line"/>
      <point x="380.15999999999997" y="260.84" type="line"/>
    </contour>
  </outline>
</glyph>
<glyph name="B" format="2">
  <advance width="614.5"/>
  <unicode hex="0042"/>
  <outline>
    <contour>
      <point x="11.180000000000007" y="3.02" type="line"/>
      <point x="123.16000000000003" y="-6.220000000000001"/>
      <point x="179.82000000000002" y="-10.0"/>
      <point x="269.68" y="-10.0" type="curve" smooth="yes"/>
      <point x="444.22" y="-10.0"/>
      <point x="587.6600000000001" y="73.5"/>
      <point x="587.6600000000001" y="244.24" type="curve" smooth="yes"/>
      <point x="587.6600000000001" y="313.84000000000003"/>
      <point x="551.04" y="364.50000000000006"/>
      <point x="490.2" y="380.96" type="curve"/>
      <point x="558.94" y="414.71999999999997"/>
      <point x="607.96" y="480.7"/>
      <point x="607.96" y="566.64" type="curve" smooth="yes"/>
      <point x="607.96" y="659.22"/>
      <point x="539.8800000000001" y="710.0"/>
      <point x="371.5" y="710.0" type="curve" smooth="yes"/>
      <point x="317.3" y="710.0"/>
      <point x="238.66000000000003" y="706.78"/>
      <point x="121.82000000000001" y="696.62" type="curve"/>
    </contour>
    <contour>
      <point x="233.92" y="410.48" type="line"/>
      <point x="259.82" y="577.0600000000001" type="line"/>
      <point x="297.70000000000005" y="580.12"/>
      <point x="318.26" y="582.5"/>
      <point x="352.58000000000004" y="582.5" type="curve" smooth="yes"/>
      <point x="424.26000000000005" y="582.5"/>
      <point x="451.08000000000004" y="566.2"/>
      <point x="451.08000000000004" y="520.28" type="curve" smooth="yes"/>
      <point x="451.08000000000004" y="452.38"/>
      <point x="400.15999999999997" y="410.48"/>
      <point x="356.49999999999994" y="410.48" type="curve" smooth="yes"/>
    </contour>
    <contour>
      <point x="214.83999999999997" y="294.91999999999996" type="line"/>
      <point x="340.58000000000004" y="294.91999999999996" type="line" smooth="yes"/>
      <point x="392.88" y="294.91999999999996"/>
      <point x="426.00000000000006" y="276.5"/>
      <point x="426.00000000000006" y="232.12" type="curve" smooth="yes"/>
      <point x="426.00000000000006" y="152.33999999999997"/>
      <point x="370.48" y="115.52"/>
      <point x="279.06000000000006" y="115.52" type="curve" smooth="yes"/>
      <point x="251.3" y="115.52"/>
      <point x="220.0" y="117.22"/>
      <point x="187.04" y="120.11999999999999" type="curve"/>
    </contour>
  </outline>
</glyph>
<glyph name="C" format="2">
  <advance width="582.8000000000001"/>
  <unicode hex="0043"/>
  <anchor x="306.4000000000001" y="0.0" name="bottom"/>
  <anchor x="410.6" y="700.0" name="top"/>
  <outline>
    <contour>
      <point x="339.4" y="-10.0" type="curve" smooth="yes"/>
      <point x="406.59999999999997" y="-10.0"/>
      <point x="464.59999999999997" y="-2.4000000000000004"/>
      <point x="524.8" y="13.999999999999998" type="curve"/>
      <point x="515.2" y="141.79999999999998" type="line"/>
      <point x="468.4" y="132.0"/>
      <point x="420.8" y="124.0"/>
      <point x="369.0" y="124.0" type="curve" smooth="yes"/>
      <point x="260.0" y="124.0"/>
      <point x="200.6" y="159.0"/>
      <point x="200.6" y="264.6" type="curve" smooth="yes"/>
      <point x="200.6" y="442.0"/>
      <point x="278.00000000000006" y="576.0000000000001"/>
      <point x="412.19999999999993" y="576.0000000000001" type="curve" smooth="yes"/>
      <point x="467.00000000000006" y="576.0000000000001"/>
      <point x="523.4" y="565.8"/>
      <point x="570.2" y="551.6" type="curve"/>
      <point x="610.1999999999999" y="675.2" type="line"/>
      <point x="544.9999999999999" y="700.6"/>
      <point x="475.0" y="710.0"/>
      <point x="402.20000000000005" y="710.0" type="curve" smooth="yes"/>
      <point x="175.79999999999998" y="710.0"/>
      <point x="37.2" y="527.4"/>
      <point x="37.2" y="243.60000000000002" type="curve" smooth="yes"/>
      <point x="37.2" y="68.4"/>
      <point x="141.20000000000002" y="-10.0"/>
    </contour>
  </outline>
</glyph>
<glyph name="D" format="2">
  <advance width="659.4000000000001"/>
  <unicode hex="0044"/>
  <anchor x="274.20000000000005" y="0.0" name="bottom"/>
  <anchor x="336.8" y="350.0" name="center"/>
  <anchor x="356.0" y="700.0" name="top"/>
  <outline>
    <contour>
      <point x="256.79999999999995" y="-10.0" type="curve" smooth="yes"/>
      <point x="503.2" y="-10.0"/>
      <point x="642.1999999999999" y="153.0"/>
      <point x="642.1999999999999" y="427.19999999999993" type="curve" smooth="yes"/>
      <point x="642.1999999999999" y="615.0"/>
      <point x="537.0000000000001" y="710.0"/>
      <point x="339.4" y="710.0" type="curve" smooth="yes"/>
      <point x="271.8" y="710.0"/>
      <point x="204.20000000000002" y="707.0"/>
      <point x="121.80000000000001" y="700.2" type="curve"/>
      <point x="9.800000000000004" y="1.2" type="line"/>
      <point x="85.80000000000001" y="-5.6000000000000005"/>
      <point x="155.20000000000002" y="-10.0"/>
    </contour>
    <contour>
      <point x="272.40000000000003" y="113.19999999999999" type="curve" smooth="yes"/>
      <point x="236.0" y="113.19999999999999"/>
      <point x="217.39999999999998" y="115.19999999999999"/>
      <point x="186.39999999999998" y="116.8" type="curve"/>
      <point x="260.2" y="579.4" type="line"/>
      <point x="280.19999999999993" y="581.0"/>
      <point x="309.2" y="582.6"/>
      <point x="341.79999999999995" y="582.6" type="curve" smooth="yes"/>
      <point x="424.0" y="582.6"/>
      <point x="481.8" y="530.8"/>
      <point x="481.8" y="423.4" type="curve" smooth="yes"/>
      <point x="481.8" y="227.00000000000006"/>
      <point x="399.79999999999995" y="113.19999999999999"/>
    </contour>
  </outline>
</glyph>
<glyph name="E" format="2">
  <advance width="561.32"/>
  <unicode hex="0045"/>
  <anchor x="251.92000000000004" y="0.0" name="bottom"/>
  <anchor x="492.15999999999997" y="0.0" name="ogonek"/>
  <anchor x="354.32" y="700.0" name="top"/>
  <anchor x="90.1252" y="700.0" name="topleft"/>
  <outline>
    <contour>
      <point x="9.640000000000002" y="0.0" type="line"/>
      <point x="492.15999999999997" y="0.0" type="line"/>
      <point x="513.8000000000001" y="132.52" type="line"/>
      <point x="187.0" y="132.52" type="line"/>
      <point x="211.35999999999999" y="291.11999999999995" type="line"/>
      <point x="498.20000000000005" y="291.11999999999995" type="line"/>
      <point x="519.8" y="417.24000000000007" type="line"/>
      <point x="232.11999999999998" y="417.24000000000007" type="line"/>
      <point x="256.48" y="566.2800000000001" type="line"/>
      <point x="566.44" y="566.2800000000001" type="line"/>
      <point x="588.56" y="700.0" type="line"/>
      <point x="121.04" y="700.0" type="line"/>
    </contour>
  </outline>
</glyph>
<glyph name="F" format="2">
  <advance width="535.34"/>
  <unicode hex="0046"/>
  <outline>
    <contour>
      <point x="9.700000000000003" y="0.0" type="line"/>
      <point x="167.14" y="0.0" type="line"/>
      <point x="205.75999999999996" y="239.12000000000003" type="line"/>
      <point x="468.84000000000003" y="239.12000000000003" type="line"/>
      <point x="490.46000000000004" y="374.59999999999997" type="line"/>
      <point x="227.20000000000002" y="374.59999999999997" type="line"/>
      <point x="256.84" y="562.92" type="line"/>
      <point x="562.3000000000001" y="562.92" type="line"/>
      <point x="585.14" y="700.0" type="line"/>
      <point x="121.64" y="700.0" type="line"/>
    </contour>
  </outline>
</glyph>
<glyph name="G" format="2">
  <advance width="618.3000000000001"/>
  <unicode hex="0047"/>
  <anchor x="310.5" y="0.0" name="bottom"/>
  <anchor x="412.71999999999997" y="700.0" name="top"/>
  <outline>
    <contour>
      <point x="315.52" y="-10.0" type="curve" smooth="yes"/>
      <point x="411.24" y="-10.0"/>
      <point x="489.28000000000003" y="8.020000000000001"/>
      <point x="541.5200000000001" y="34.53999999999999" type="curve"/>
      <point x="599.14" y="392.24" type="line"/>
      <point x="347.18" y="392.24" type="line"/>
      <point x="328.64" y="275.8" type="line"/>
      <point x="441.47999999999996" y="275.8" type="line"/>
      <point x="417.84000000000003" y="127.69999999999999" type="line"/>
      <point x="398.70000000000005" y="119.61999999999999"/>
      <point x="367.84000000000003" y="113.85999999999999"/>
      <point x="331.52000000000004" y="113.85999999999999" type="curve" smooth="yes"/>
      <point x="243.60000000000002" y="113.85999999999999"/>
      <point x="191.85999999999999" y="151.76"/>
      <point x="191.85999999999999" y="252.48000000000002" type="curve" smooth="yes"/>
      <point x="191.85999999999999" y="431.97999999999996"/>
      <point x="273.73999999999995" y="577.6"/>
      <point x="416.14" y="577.6" type="curve" smooth="yes"/>
      <point x="478.4" y="577.6"/>
      <point x="527.0799999999999" y="566.82"/>
      <point x="576.5800000000002" y="553.8000000000001" type="curve"/>
      <point x="623.92" y="678.78" type="line"/>
      <point x="558.3199999999999" y="700.9"/>
      <point x="488.72" y="710.0"/>
      <point x="410.86" y="710.0" type="curve" smooth="yes"/>
      <point x="155.98000000000002" y="710.0"/>
      <point x="34.54" y="488.06"/>
      <point x="34.54" y="241.20000000000002" type="curve" smooth="yes"/>
      <point x="34.54" y="74.7"/>
      <point x="140.74000000000004" y="-10.0"/>
    </contour>
  </outline>
</glyph>
<glyph name="H" format="2">
  <advance width="658.86"/>
  <unicode hex="0048"/>
  <anchor x="285.94408" y="0.0" name="bottom"/>
  <anchor x="341.48078000000004" y="350.0" name="center"/>
  <anchor x="396.83666" y="700.0" name="top"/>
  <anchor x="86.89666000000001" y="700.0" name="topleft"/>
  <outline>
    <contour>
      <point x="9.580000000000004" y="0.0" type="line"/>
      <point x="167.49999999999997" y="0.0" type="line"/>
      <point x="206.78" y="249.55999999999997" type="line"/>
      <point x="444.96000000000004" y="249.55999999999997" type="line"/>
      <point x="405.54" y="0.0" type="line"/>
      <point x="560.34" y="0.0" type="line"/>
      <point x="672.46" y="700.0" type="line"/>
      <point x="517.5200000000001" y="700.0" type="line"/>
      <point x="466.72" y="385.04" type="line"/>
      <point x="228.35999999999999" y="385.04" type="line"/>
      <point x="279.43999999999994" y="700.0" type="line"/>
      <point x="121.52" y="700.0" type="line"/>
    </contour>
  </outline>
</glyph>
<glyph name="I" format="2">
  <advance width="265.84"/>
  <unicode hex="0049"/>
  <anchor x="89.21976" y="0.0" name="bottom"/>
  <anchor x="168.59176" y="4.2" name="ogonek"/>
  <anchor x="200.14902" y="700.0" name="top"/>
  <anchor x="90.37146" y="700.0" name="topleft"/>
  <outline>
    <contour>
      <point x="9.580000000000004" y="0.0" type="line"/>
      <point x="167.32" y="0.0" type="line"/>
      <point x="279.43999999999994" y="700.0" type="line"/>
      <point x="121.52" y="700.0" type="line"/>
    </contour>
  </outline>
</glyph>
<glyph name="J" format="2">
  <advance width="485.24"/>
  <unicode hex="004A"/>
  <anchor x="189.00648" y="0.0" name="bottom"/>
  <anchor x="313.36" y="700.0" name="top"/>
  <outline>
    <contour>
      <point x="-29.04" y="25.1" type="line"/>
      <point x="30.199999999999996" y="4.200000000000001"/>
      <point x="96.24000000000001" y="-10.0"/>
      <point x="172.82" y="-10.0" type="curve" smooth="yes"/>
      <point x="320.96000000000004" y="-10.0"/>
      <point x="402.06" y="66.26"/>
      <point x="427.54" y="220.01999999999998" type="curve" smooth="yes"/>
      <point x="504.86" y="700.0" type="line"/>
      <point x="122.46" y="700.0" type="line"/>
      <point x="100.56" y="566.06" type="line"/>
      <point x="325.21999999999997" y="566.06" type="line"/>
      <point x="276.36" y="259.38" type="line" smooth="yes"/>
      <point x="260.98" y="162.48000000000002"/>
      <point x="219.4" y="132.33999999999997"/>
      <point x="150.57999999999998" y="132.33999999999997" type="curve" smooth="yes"/>
      <point x="107.80000000000001" y="132.33999999999997"/>
      <point x="63.46" y="143.06"/>
      <point x="13.620000000000001" y="156.82" type="curve"/>
    </contour>
  </outline>
</glyph>
<glyph name="K" format="2">
  <advance width="623.16"/>
  <unicode hex="004B"/>
  <anchor x="286.4" y="0.0" name="bottom"/>
  <anchor x="380.36" y="700.0" name="top"/>
  <outline>
    <contour>
      <point x="8.92" y="0.0" type="line"/>
      <point x="167.72" y="0.0" type="line"/>
      <point x="278.84000000000003" y="700.0" type="line"/>
      <point x="122.2" y="700.0" type="line"/>
    </contour>
    <contour>
      <point x="521.96" y="-9.6" type="curve" smooth="yes"/>
      <point x="534.9199999999998" y="-9.6"/>
      <point x="560.9599999999999" y="-5.680000000000001"/>
      <point x="568.7199999999999" y="-2.5200000000000005" type="curve"/>
      <point x="586.9999999999999" y="155.64" type="line"/>
      <point x="580.9200000000001" y="156.08"/>
      <point x="575.48" y="155.32000000000002"/>
      <point x="569.8000000000001" y="155.32000000000002" type="curve" smooth="yes"/>
      <point x="534.28" y="155.32000000000002"/>
      <point x="500.31999999999994" y="169.76"/>
      <point x="451.4" y="221.95999999999998" type="curve" smooth="yes"/>
      <point x="216.32" y="472.44" type="line"/>
      <point x="188.72000000000003" y="293.03999999999996" type="line"/>
      <point x="383.08" y="63.48000000000001" type="line" smooth="yes"/>
      <point x="427.84" y="13.16"/>
      <point x="469.68" y="-9.6"/>
    </contour>
    <contour>
      <point x="337.47999999999996" y="287.56" type="line"/>
      <point x="463.12" y="369.88"/>
      <point x="592.04" y="495.8399999999999"/>
      <point x="659.24" y="642.04" type="curve"/>
      <point x="542.76" y="708.4399999999999" type="line"/>
      <point x="460.72" y="566.08"/>
      <point x="350.15999999999997" y="447.8399999999999"/>
      <point x="255.95999999999998" y="383.76" type="curve"/>
    </contour>
  </outline>
</glyph>
<glyph name="L" format="2">
  <advance width="519.62"/>
  <unicode hex="004C"/>
  <anchor x="239.42000000000002" y="0.0" name="bottom"/>
  <anchor x="269.70078" y="350.0" name="center"/>
  <anchor x="200.24" y="700.0" name="top"/>
  <anchor x="389.88" y="700.0" name="topright"/>
  <outline>
    <contour>
      <point x="9.400000000000002" y="0.0" type="line"/>
      <point x="458.22" y="0.0" type="line"/>
      <point x="480.82" y="135.06" type="line"/>
      <point x="189.18" y="135.06" type="line"/>
      <point x="279.26" y="700.0" type="line"/>
      <point x="121.52" y="700.0" type="line"/>
    </contour>
  </outline>
</glyph>
<glyph name="M" format="2">
  <advance width="743.78"/>
  <unicode hex="004D"/>
  <outline>
    <contour>
      <point x="8.980000000000002" y="0.0" type="line"/>
      <point x="155.11999999999998" y="0.0" type="line"/>
      <point x="226.5" y="466.72" type="line"/>
      <point x="317.02" y="164.42000000000002" type="line"/>
      <point x="387.6" y="164.42000000000002" type="line"/>
      <point x="576.76" y="467.56" type="line"/>
      <point x="500.26" y="0.0" type="line"/>
      <point x="645.26" y="0.0" type="line"/>
      <point x="757.38" y="700.0" type="line"/>
      <point x="589.3399999999999" y="700.0" type="line"/>
      <point x="381.5" y="363.26" type="line"/>
      <point x="277.62" y="700.0" type="line"/>
      <point x="121.52" y="700.0" type="line"/>
    </contour>
  </outline>
</glyph>
<glyph name="N" format="2">
  <advance width="644.9000000000001"/>
  <unicode hex="004E"/>
  <anchor x="281.70000000000005" y="0.0" name="bottom"/>
  <anchor x="390.6" y="700.0" name="top"/>
  <outline>
    <contour>
      <point x="9.700000000000001" y="0.0" type="line"/>
      <point x="150.1" y="0.0" type="line"/>
      <point x="220.1" y="434.0" type="line"/>
      <point x="400.0" y="-1.2000000000000002" type="line"/>
      <point x="546.1" y="-1.2000000000000002" type="line"/>
      <point x="658.5" y="700.0" type="line"/>
      <point x="517.7" y="700.0" type="line"/>
      <point x="444.9" y="250.20000000000002" type="line"/>
      <point x="268.8" y="701.2" type="line"/>
      <point x="122.1" y="701.2" type="line"/>
    </contour>
  </outline>
</glyph>
<glyph name="O" format="2">
  <advance width="666.8"/>
  <unicode hex="004F"/>
  <note>
8
</note>
  <anchor x="290.8" y="0.0" name="bottom"/>
  <anchor x="346.40000000000003" y="350.0" name="center"/>
  <anchor x="377.2" y="1.0" name="ogonek"/>
  <anchor x="396.8" y="700.0" name="top"/>
  <anchor x="87.8" y="700.0" name="topleft"/>
  <anchor x="540.0" y="690.8000000000001" name="topright"/>
  <outline>
    <contour>
      <point x="306.4" y="-6.6" type="curve" smooth="yes"/>
      <point x="528.4" y="-6.6"/>
      <point x="644.8" y="169.2"/>
      <point x="649.1999999999999" y="414.8" type="curve" smooth="yes"/>
      <point x="652.4" y="603.8"/>
      <point x="557.8" y="706.6"/>
      <point x="384.4" y="706.6" type="curve" smooth="yes"/>
      <point x="162.4" y="706.6"/>
      <point x="46.00000000000001" y="530.8"/>
      <point x="41.60000000000001" y="285.2" type="curve" smooth="yes"/>
      <point x="38.400000000000006" y="96.19999999999999"/>
      <point x="133.0" y="-6.6"/>
    </contour>
    <contour>
      <point x="319.20000000000005" y="125.0" type="curve" smooth="yes"/>
      <point x="246.6" y="125.0"/>
      <point x="202.60000000000002" y="161.60000000000002"/>
      <point x="202.60000000000002" y="275.4" type="curve" smooth="yes"/>
      <point x="202.60000000000002" y="420.00000000000006"/>
      <point x="254.79999999999998" y="575.0000000000001"/>
      <point x="372.2" y="575.0000000000001" type="curve" smooth="yes"/>
      <point x="444.20000000000005" y="575.0000000000001"/>
      <point x="488.2" y="538.0000000000001"/>
      <point x="488.2" y="424.2" type="curve" smooth="yes"/>
      <point x="488.2" y="279.59999999999997"/>
      <point x="435.99999999999994" y="125.0"/>
    </contour>
  </outline>
</glyph>
<glyph name="P" format="2">
  <advance width="630.1"/>
  <unicode hex="0050"/>
  <outline>
    <contour>
      <point x="9.700000000000001" y="0.0" type="line"/>
      <point x="166.6" y="0.0" type="line"/>
      <point x="198.7" y="195.8" type="line"/>
      <point x="252.2" y="192.4"/>
      <point x="273.09999999999997" y="192.10000000000002"/>
      <point x="314.0" y="192.10000000000002" type="curve" smooth="yes"/>
      <point x="535.0999999999999" y="192.10000000000002"/>
      <point x="640.0" y="298.0"/>
      <point x="640.3000000000001" y="500.59999999999997" type="curve" smooth="yes"/>
      <point x="640.3000000000001" y="643.0"/>
      <point x="560.8" y="710.0"/>
      <point x="364.3" y="710.0" type="curve" smooth="yes"/>
      <point x="320.6" y="710.0"/>
      <point x="240.7" y="707.3"/>
      <point x="122.1" y="701.3000000000001" type="curve"/>
    </contour>
    <contour>
      <point x="259.9" y="577.9" type="line"/>
      <point x="310.9" y="580.5"/>
      <point x="327.6" y="581.8"/>
      <point x="360.59999999999997" y="581.8" type="curve" smooth="yes"/>
      <point x="449.70000000000005" y="581.8"/>
      <point x="480.59999999999997" y="549.3"/>
      <point x="480.59999999999997" y="477.00000000000006" type="curve" smooth="yes"/>
      <point x="480.59999999999997" y="387.9"/>
      <point x="433.1" y="321.0"/>
      <point x="307.20000000000005" y="321.0" type="curve" smooth="yes"/>
      <point x="280.2" y="321.0"/>
      <point x="259.7" y="322.3"/>
      <point x="219.2" y="324.3" type="curve"/>
    </contour>
  </outline>
</glyph>
<glyph name="Q" format="2">
  <advance width="667.86"/>
  <unicode hex="0051"/>
  <note>
14
</note>
  <outline>
    <contour>
      <point x="472.86" y="-185.78" type="curve" smooth="yes"/>
      <point x="502.62000000000006" y="-185.78"/>
      <point x="531.9000000000001" y="-180.88"/>
      <point x="560.82" y="-170.8" type="curve"/>
      <point x="567.5400000000001" y="-45.580000000000005" type="line"/>
      <point x="551.8000000000001" y="-52.31999999999999"/>
      <point x="533.9" y="-55.519999999999996"/>
      <point x="514.26" y="-55.519999999999996" type="curve" smooth="yes"/>
      <point x="465.84" y="-55.519999999999996"/>
      <point x="424.12" y="-30.260000000000005"/>
      <point x="412.84000000000003" y="21.379999999999995" type="curve"/>
      <point x="276.16" y="9.379999999999999" type="line"/>
      <point x="293.96000000000004" y="-133.64000000000001"/>
      <point x="379.96" y="-185.78"/>
    </contour>
    <component base="O"/>
  </outline>
</glyph>
<glyph name="R" format="2">
  <advance width="647.8"/>
  <unicode hex="0052"/>
  <anchor x="300.8" y="0.0" name="bottom"/>
  <anchor x="358.8" y="700.0" name="top"/>
  <outline>
    <contour>
      <point x="9.400000000000002" y="0.0" type="line"/>
      <point x="167.60000000000002" y="0.0" type="line"/>
      <point x="205.39999999999998" y="234.60000000000002" type="line"/>
      <point x="248.6" y="234.00000000000003"/>
      <point x="290.2" y="234.0"/>
      <point x="337.59999999999997" y="233.0" type="curve"/>
      <point x="367.40000000000003" y="253.20000000000002" type="line"/>
      <point x="530.0" y="253.8"/>
      <point x="637.0" y="346.6"/>
      <point x="637.0" y="509.19999999999993" type="curve" smooth="yes"/>
      <point x="637.0" y="635.4000000000001"/>
      <point x="560.8000000000001" y="710.0"/>
      <point x="367.0" y="710.0" type="curve" smooth="yes"/>
      <point x="305.0" y="710.0"/>
      <point x="227.60000000000002" y="706.5999999999999"/>
      <point x="121.79999999999998" y="700.1999999999999" type="curve"/>
    </contour>
    <contour>
      <point x="546.6" y="-10.0" type="curve" smooth="yes"/>
      <point x="556.8000000000001" y="-10.0"/>
      <point x="582.0000000000001" y="-7.0"/>
      <point x="590.6" y="-3.2" type="curve"/>
      <point x="608.5999999999999" y="143.20000000000002" type="line"/>
      <point x="603.5999999999999" y="142.20000000000002"/>
      <point x="596.8" y="142.20000000000002"/>
      <point x="591.9999999999999" y="142.20000000000002" type="curve" smooth="yes"/>
      <point x="544.6000000000001" y="142.2"/>
      <point x="485.79999999999995" y="185.6"/>
      <point x="436.19999999999993" y="294.2" type="curve"/>
      <point x="282.0" y="257.6" type="line"/>
      <point x="376.6" y="51.400000000000006"/>
      <point x="450.40000000000003" y="-10.0"/>
    </contour>
    <contour>
      <point x="325.6" y="351.99999999999994" type="curve" smooth="yes"/>
      <point x="283.8" y="351.99999999999994"/>
      <point x="254.0" y="353.0"/>
      <point x="224.39999999999998" y="356.0" type="curve"/>
      <point x="260.2" y="581.8" type="line"/>
      <point x="308.40000000000003" y="584.4"/>
      <point x="322.79999999999995" y="585.4"/>
      <point x="362.2" y="585.4" type="curve" smooth="yes"/>
      <point x="447.8" y="585.4"/>
      <point x="472.6" y="549.8"/>
      <point x="472.6" y="493.99999999999994" type="curve" smooth="yes"/>
      <point x="472.6" y="400.4"/>
      <point x="418.80000000000007" y="351.99999999999994"/>
    </contour>
  </outline>
</glyph>
<glyph name="S" format="2">
  <advance width="574.8"/>
  <unicode hex="0053"/>
  <anchor x="259.0" y="0.0" name="bottom"/>
  <anchor x="359.40000000000003" y="700.0" name="top"/>
  <outline>
    <contour>
      <point x="579.1999999999999" y="673.0" type="line"/>
      <point x="514.0" y="696.4"/>
      <point x="445.2" y="710.0"/>
      <point x="368.8" y="710.0" type="curve" smooth="yes"/>
      <point x="163.79999999999998" y="710.0"/>
      <point x="62.400000000000006" y="624.6"/>
      <point x="62.400000000000006" y="488.8" type="curve" smooth="yes"/>
      <point x="62.400000000000006" y="270.8"/>
      <point x="376.0" y="304.6"/>
      <point x="376.00000000000006" y="192.8" type="curve" smooth="yes"/>
      <point x="376.00000000000006" y="149.2"/>
      <point x="337.6" y="118.19999999999999"/>
      <point x="255.39999999999998" y="118.19999999999999" type="curve" smooth="yes"/>
      <point x="179.0" y="118.19999999999999"/>
      <point x="101.6" y="133.2"/>
      <point x="25.8" y="160.79999999999998" type="curve"/>
      <point x="-21.4" y="36.6" type="line"/>
      <point x="49.800000000000004" y="6.999999999999999"/>
      <point x="140.2" y="-10.0"/>
      <point x="239.2" y="-10.0" type="curve" smooth="yes"/>
      <point x="446.8" y="-10.0"/>
      <point x="542.8" y="77.4"/>
      <point x="542.8" y="210.4" type="curve" smooth="yes"/>
      <point x="543.4000000000001" y="423.40000000000003"/>
      <point x="230.00000000000003" y="399.20000000000005"/>
      <point x="230.00000000000003" y="504.19999999999993" type="curve" smooth="yes"/>
      <point x="230.00000000000003" y="550.1999999999999"/>
      <point x="272.00000000000006" y="580.4"/>
      <point x="353.0" y="580.4" type="curve" smooth="yes"/>
      <point x="419.0" y="580.4"/>
      <point x="479.8" y="570.0"/>
      <point x="533.6" y="549.5999999999999" type="curve"/>
    </contour>
  </outline>
</glyph>
<glyph name="T" format="2">
  <advance width="565.1600000000001"/>
  <unicode hex="0054"/>
  <anchor x="238.76648" y="0.0" name="bottom"/>
  <anchor x="294.51466000000005" y="350.0" name="center"/>
  <anchor x="349.74902" y="700.0" name="top"/>
  <outline>
    <contour>
      <point x="598.32" y="571.66" type="line"/>
      <point x="620.64" y="700.0" type="line"/>
      <point x="80.89999999999999" y="700.0" type="line"/>
      <point x="58.300000000000004" y="571.66" type="line"/>
      <point x="249.90000000000003" y="571.66" type="line"/>
      <point x="159.4" y="0.0" type="line"/>
      <point x="317.14" y="0.0" type="line"/>
      <point x="407.36" y="571.66" type="line"/>
    </contour>
  </outline>
</glyph>
<glyph name="U" format="2">
  <advance width="644.9200000000001"/>
  <unicode hex="0055"/>
  <anchor x="278.97079999999994" y="0.0" name="bottom"/>
  <anchor x="360.96" y="0.0" name="ogonek"/>
  <anchor x="389.0391" y="700.0" name="top"/>
  <anchor x="651.38" y="700.0" name="topright"/>
  <outline>
    <contour>
      <point x="274.98" y="-10.0" type="curve" smooth="yes"/>
      <point x="462.64000000000004" y="-10.0"/>
      <point x="562.2800000000001" y="64.5"/>
      <point x="588.4799999999999" y="225.76" type="curve" smooth="yes"/>
      <point x="664.54" y="700.0" type="line"/>
      <point x="508.58" y="700.0" type="line"/>
      <point x="431.7" y="218.76" type="line" smooth="yes"/>
      <point x="421.68000000000006" y="153.1"/>
      <point x="377.26000000000005" y="120.72"/>
      <point x="298.22" y="120.72" type="curve" smooth="yes"/>
      <point x="221.25999999999996" y="120.72"/>
      <point x="183.5" y="154.39999999999998"/>
      <point x="193.73999999999998" y="215.52" type="curve" smooth="yes"/>
      <point x="271.53999999999996" y="700.0" type="line"/>
      <point x="115.76" y="700.0" type="line"/>
      <point x="39.46000000000001" y="222.46" type="line" smooth="yes"/>
      <point x="35.400000000000006" y="195.86"/>
      <point x="34.160000000000004" y="181.35999999999999"/>
      <point x="34.160000000000004" y="165.76" type="curve" smooth="yes"/>
      <point x="34.160000000000004" y="48.14000000000001"/>
      <point x="114.24" y="-10.0"/>
    </contour>
  </outline>
</glyph>
<glyph name="V" format="2">
  <advance width="596.22"/>
  <unicode hex="0056"/>
  <outline>
    <contour>
      <point x="340.62" y="0.0" type="line"/>
      <point x="570.5999999999999" y="401.62"/>
      <point x="629.6" y="534.0"/>
      <point x="648.5" y="674.3" type="curve" smooth="yes"/>
      <point x="649.2" y="683.32"/>
      <point x="649.6" y="691.22"/>
      <point x="649.52" y="700.0" type="curve"/>
      <point x="481.52000000000004" y="700.0" type="line"/>
      <point x="481.99999999999994" y="693.5999999999999"/>
      <point x="483.12" y="687.2199999999999"/>
      <point x="483.12" y="679.1" type="curve" smooth="yes"/>
      <point x="483.12" y="559.7"/>
      <point x="407.86000000000007" y="416.56"/>
      <point x="278.14" y="145.2" type="curve"/>
      <point x="238.2" y="701.32" type="line"/>
      <point x="67.3" y="700.3" type="line"/>
      <point x="156.92000000000002" y="0.0" type="line"/>
    </contour>
  </outline>
</glyph>
<glyph name="W" format="2">
  <advance width="887.4"/>
  <unicode hex="0057"/>
  <anchor x="394.4" y="0.0" name="bottom"/>
  <anchor x="508.8" y="700.0" name="top"/>
  <outline>
    <contour>
      <point x="677.6" y="0.0" type="line"/>
      <point x="880.2" y="448.79999999999995"/>
      <point x="933.4" y="585.8000000000001"/>
      <point x="937.8" y="683.0" type="curve" smooth="yes"/>
      <point x="937.8" y="688.6"/>
      <point x="937.8" y="695.0"/>
      <point x="937.5999999999999" y="700.0" type="curve"/>
      <point x="795.8" y="700.0" type="line"/>
      <point x="796.4" y="694.4"/>
      <point x="796.4000000000001" y="689.4"/>
      <point x="796.4000000000001" y="682.4" type="curve" smooth="yes"/>
      <point x="790.0" y="556.0"/>
      <point x="750.8" y="471.99999999999994"/>
      <point x="609.8000000000001" y="148.4" type="curve"/>
      <point x="575.5999999999999" y="654.0000000000001" type="line"/>
      <point x="428.99999999999994" y="654.0000000000001" type="line"/>
      <point x="375.2" y="489.6"/>
      <point x="308.40000000000003" y="293.0"/>
      <point x="244.20000000000002" y="151.79999999999998" type="curve"/>
      <point x="215.0" y="700.0" type="line"/>
      <point x="68.6" y="700.0" type="line"/>
      <point x="124.79999999999998" y="0.0" type="line"/>
      <point x="283.4" y="0.0" type="line"/>
      <point x="356.4" y="161.4"/>
      <point x="421.2" y="316.8"/>
      <point x="471.6" y="444.0000000000001" type="curve"/>
      <point x="514.0" y="0.0" type="line"/>
    </contour>
  </outline>
</glyph>
<glyph name="X" format="2">
  <advance width="620.0"/>
  <unicode hex="0058"/>
  <outline>
    <contour>
      <point x="426.2" y="-2.1999999999999997" type="line"/>
      <point x="579.2" y="1.4" type="line"/>
      <point x="417.2" y="354.6" type="line"/>
      <point x="555.4" y="529.0"/>
      <point x="633.5999999999999" y="603.8"/>
      <point x="656.4" y="700.8" type="curve"/>
      <point x="506.0" y="703.2" type="line"/>
      <point x="491.8" y="620.4"/>
      <point x="428.8" y="530.0"/>
      <point x="341.2" y="446.99999999999994" type="curve"/>
      <point x="234.20000000000002" y="702.8" type="line"/>
      <point x="83.39999999999999" y="699.2" type="line"/>
      <point x="224.2" y="367.6" type="line"/>
      <point x="97.8" y="231.4"/>
      <point x="-4.400000000000002" y="115.60000000000002"/>
      <point x="-13.999999999999996" y="0.0" type="curve"/>
      <point x="140.0" y="0.0" type="line"/>
      <point x="149.6" y="99.60000000000001"/>
      <point x="208.2" y="170.39999999999998"/>
      <point x="305.0" y="272.8" type="curve"/>
    </contour>
  </outline>
</glyph>
<glyph name="Y" format="2">
  <advance width="576.24"/>
  <unicode hex="0059"/>
  <anchor x="243.44" y="0.0" name="bottom"/>
  <anchor x="358.58" y="700.0" name="top"/>
  <anchor x="85.98" y="700.0" name="topleft"/>
  <outline>
    <contour>
      <point x="168.76000000000002" y="0.0" type="line"/>
      <point x="324.0" y="0.0" type="line"/>
      <point x="364.34000000000003" y="243.34000000000003" type="line"/>
      <point x="525.9" y="432.03999999999996"/>
      <point x="589.62" y="538.62"/>
      <point x="630.62" y="666.6600000000001" type="curve" smooth="yes"/>
      <point x="633.5" y="677.44"/>
      <point x="638.22" y="689.8"/>
      <point x="641.92" y="701.5799999999999" type="curve"/>
      <point x="465.84" y="702.5" type="line"/>
      <point x="463.54" y="691.28"/>
      <point x="461.06" y="680.64"/>
      <point x="459.16" y="669.5799999999999" type="curve" smooth="yes"/>
      <point x="433.64000000000004" y="565.76"/>
      <point x="399.78000000000003" y="483.4"/>
      <point x="306.12" y="363.35999999999996" type="curve"/>
      <point x="242.82" y="701.5200000000001" type="line"/>
      <point x="65.4" y="699.54" type="line"/>
      <point x="208.54000000000002" y="243.34000000000003" type="line"/>
    </contour>
  </outline>
</glyph>
<glyph name="Z" format="2">
  <advance width="570.4000000000001"/>
  <unicode hex="005A"/>
  <anchor x="242.60000000000002" y="0.0" name="bottom"/>
  <anchor x="296.2" y="350.0" name="center"/>
  <anchor x="349.00000000000006" y="700.0" name="top"/>
  <outline>
    <contour>
      <point x="-22.4" y="0.0" type="line"/>
      <point x="505.40000000000003" y="0.0" type="line"/>
      <point x="526.6" y="128.39999999999998" type="line"/>
      <point x="190.39999999999998" y="128.39999999999998" type="line"/>
      <point x="582.7999999999998" y="574.1999999999999" type="line"/>
      <point x="603.0" y="700.0" type="line"/>
      <point x="106.60000000000001" y="700.0" type="line"/>
      <point x="85.4" y="571.6" type="line"/>
      <point x="393.2" y="571.6" type="line"/>
      <point x="-2.600000000000002" y="122.99999999999997" type="line"/>
    </contour>
  </outline>
</glyph>
<glyph name="bracketleft" format="2">
  <advance width="324.74"/>
  <unicode hex="005B"/>
  <outline>
    <contour>
      <point x="118.75999999999999" y="-98.2" type="line"/>
      <point x="235.48" y="628.3199999999999" type="line"/>
      <point x="362.48" y="628.3199999999999" type="line"/>
      <point x="380.88" y="740.0" type="line"/>
      <point x="134.17999999999998" y="740.0" type="line"/>
      <point x="-18.879999999999995" y="-210.0" type="line"/>
      <point x="226.94" y="-210.0" type="line"/>
      <point x="245.75999999999996" y="-98.2" type="line"/>
    </contour>
  </outline>
</glyph>
<glyph name="backslash" format="2">
  <advance width="386.68"/>
  <unicode hex="005C"/>
  <outline>
    <contour>
      <point x="192.58" y="740.0" type="line"/>
      <point x="75.22" y="740.0" type="line"/>
      <point x="226.54" y="-210.0" type="line"/>
      <point x="343.47999999999996" y="-210.0" type="line"/>
    </contour>
  </outline>
</glyph>
<glyph name="bracketright" format="2">
  <advance width="324.74"/>
  <unicode hex="005D"/>
  <outline>
    <contour>
      <point x="-40.44" y="-98.2" type="line"/>
      <point x="-58.56" y="-210.0" type="line"/>
      <point x="186.96" y="-210.0" type="line"/>
      <point x="340.9" y="740.0" type="line"/>
      <point x="94.38" y="740.0" type="line"/>
      <point x="75.55999999999999" y="628.2" type="line"/>
      <point x="202.56" y="628.2" type="line"/>
      <point x="85.42" y="-98.2" type="line"/>
    </contour>
  </outline>
</glyph>
<glyph name="asciicircum" format="2">
  <advance width="491.94"/>
  <unicode hex="005E"/>
  <outline>
    <contour>
      <point x="40.92" y="241.54000000000002" type="line"/>
      <point x="155.22" y="241.54000000000002" type="line"/>
      <point x="288.12" y="551.28" type="line"/>
      <point x="326.82000000000005" y="241.54000000000002" type="line"/>
      <point x="440.46" y="241.54000000000002" type="line"/>
      <point x="377.85999999999996" y="703.0" type="line"/>
      <point x="245.96" y="703.0" type="line"/>
    </contour>
  </outline>
</glyph>
<glyph name="underscore" format="2">
  <advance width="721.84"/>
  <unicode hex="005F"/>
  <outline>
    <contour>
      <point x="-65.04" y="-187.38" type="line"/>
      <point x="639.24" y="-187.38" type="line"/>
      <point x="659.88" y="-64.02" type="line"/>
      <point x="-44.4" y="-64.02" type="line"/>
    </contour>
  </outline>
</glyph>
<glyph name="a" format="2">
  <advance width="560.0"/>
  <unicode hex="0061"/>
  <note>
15
</note>
  <anchor x="239.4" y="0.0" name="bottom"/>
  <anchor x="519.2" y="6.999999999999999" name="ogonek"/>
  <anchor x="322.80000000000007" y="544.0" name="top"/>
  <outline>
    <contour>
      <point x="436.20000000000005" y="-10.0" type="curve" smooth="yes"/>
      <point x="466.19999999999993" y="-10.0"/>
      <point x="499.8" y="-2.8000000000000003"/>
      <point x="518.8" y="6.999999999999998" type="curve"/>
      <point x="526.9999999999999" y="124.8" type="line"/>
      <point x="520.5999999999999" y="122.6"/>
      <point x="513.4" y="121.99999999999997"/>
      <point x="507.0" y="121.99999999999997" type="curve" smooth="yes"/>
      <point x="491.79999999999995" y="121.99999999999997"/>
      <point x="486.40000000000003" y="130.0"/>
      <point x="486.40000000000003" y="146.39999999999998" type="curve" smooth="yes"/>
      <point x="486.40000000000003" y="154.39999999999998"/>
      <point x="496.0" y="209.20000000000002"/>
      <point x="545.4" y="518.5999999999999" type="curve"/>
      <point x="493.6" y="537.9999999999999"/>
      <point x="405.2" y="554.0"/>
      <point x="330.00000000000006" y="554.0" type="curve" smooth="yes"/>
      <point x="138.00000000000003" y="554.0"/>
      <point x="20.400000000000002" y="425.2"/>
      <point x="20.400000000000002" y="182.8" type="curve" smooth="yes"/>
      <point x="20.400000000000002" y="54.400000000000006"/>
      <point x="84.6" y="-10.0"/>
      <point x="181.60000000000002" y="-10.0" type="curve" smooth="yes"/>
      <point x="240.00000000000003" y="-10.0"/>
      <point x="291.40000000000003" y="10.000000000000002"/>
      <point x="333.8" y="43.800000000000004" type="curve"/>
      <point x="353.2" y="9.000000000000002"/>
      <point x="391.8" y="-10.0"/>
    </contour>
    <contour>
      <point x="331.40000000000003" y="144.4" type="line"/>
      <point x="307.20000000000005" y="130.79999999999995"/>
      <point x="274.80000000000007" y="120.60000000000001"/>
      <point x="246.8" y="120.60000000000001" type="curve" smooth="yes"/>
      <point x="205.2" y="120.60000000000001"/>
      <point x="176.79999999999995" y="150.0"/>
      <point x="176.79999999999995" y="207.79999999999998" type="curve" smooth="yes"/>
      <point x="176.79999999999995" y="334.0"/>
      <point x="235.60000000000002" y="432.4"/>
      <point x="314.20000000000005" y="432.4" type="curve" smooth="yes"/>
      <point x="336.6" y="432.4"/>
      <point x="357.59999999999997" y="429.59999999999997"/>
      <point x="375.2" y="421.6" type="curve"/>
    </contour>
  </outline>
</glyph>
<glyph name="b" format="2">
  <advance width="551.7800000000001"/>
  <unicode hex="0062"/>
  <note>
12
</note>
  <outline>
    <contour>
      <point x="275.24" y="740.0" type="line"/>
      <point x="121.84000000000002" y="740.0" type="line"/>
      <point x="7.480000000000002" y="17.94" type="line"/>
      <point x="58.92" y="4.419999999999998"/>
      <point x="132.82" y="-10.0"/>
      <point x="220.72" y="-10.0" type="curve" smooth="yes"/>
      <point x="425.06" y="-10.0"/>
      <point x="534.12" y="148.58"/>
      <point x="533.42" y="367.11999999999995" type="curve" smooth="yes"/>
      <point x="533.4200000000001" y="489.04"/>
      <point x="483.1" y="554.0"/>
      <point x="382.92" y="554.0" type="curve" smooth="yes"/>
      <point x="332.06" y="554.0"/>
      <point x="287.18" y="537.04"/>
      <point x="237.49999999999997" y="505.48" type="curve"/>
    </contour>
    <contour>
      <point x="307.76" y="421.08" type="curve" smooth="yes"/>
      <point x="357.02000000000004" y="421.08"/>
      <point x="377.91999999999996" y="389.68"/>
      <point x="377.91999999999996" y="329.12" type="curve" smooth="yes"/>
      <point x="377.91999999999996" y="224.88"/>
      <point x="327.3" y="108.22"/>
      <point x="235.99999999999997" y="108.22" type="curve" smooth="yes"/>
      <point x="213.87999999999997" y="108.22"/>
      <point x="193.2" y="112.07999999999998"/>
      <point x="176.99999999999997" y="117.27999999999999" type="curve"/>
      <point x="220.49999999999997" y="393.11999999999995" type="line"/>
      <point x="248.48" y="410.46"/>
      <point x="278.34000000000003" y="421.08"/>
    </contour>
  </outline>
</glyph>
<glyph name="c" format="2">
  <advance width="474.8"/>
  <unicode hex="0063"/>
  <note>
10
</note>
  <anchor x="243.8" y="0.0" name="bottom"/>
  <anchor x="323.0" y="544.0" name="top"/>
  <outline>
    <contour>
      <point x="243.6" y="-10.0" type="curve" smooth="yes"/>
      <point x="302.8" y="-10.0"/>
      <point x="369.80000000000007" y="-1.7999999999999998"/>
      <point x="420.4" y="16.400000000000002" type="curve"/>
      <point x="409.19999999999993" y="133.6" type="line"/>
      <point x="363.7999999999999" y="124.0"/>
      <point x="328.9999999999999" y="119.6"/>
      <point x="286.59999999999997" y="119.6" type="curve" smooth="yes"/>
      <point x="218.39999999999998" y="119.6"/>
      <point x="176.20000000000002" y="156.6"/>
      <point x="176.20000000000002" y="219.20000000000002" type="curve" smooth="yes"/>
      <point x="176.20000000000002" y="330.8"/>
      <point x="234.0" y="423.8"/>
      <point x="325.6" y="423.8" type="curve" smooth="yes"/>
      <point x="365.2" y="423.8"/>
      <point x="404.00000000000006" y="420.40000000000003"/>
      <point x="448.20000000000005" y="407.8" type="curve"/>
      <point x="490.2" y="533.2" type="line"/>
      <point x="445.2" y="546.5999999999999"/>
      <point x="386.0" y="554.0"/>
      <point x="330.4" y="554.0" type="curve" smooth="yes"/>
      <point x="126.60000000000001" y="554.0"/>
      <point x="20.400000000000002" y="409.2"/>
      <point x="20.400000000000002" y="192.99999999999997" type="curve" smooth="yes"/>
      <point x="20.400000000000002" y="64.59999999999998"/>
      <point x="93.79999999999998" y="-10.0"/>
    </contour>
  </outline>
</glyph>
<glyph name="d" format="2">
  <advance width="560.8000000000001"/>
  <unicode hex="0064"/>
  <note>
17
</note>
  <anchor x="251.6" y="0.0" name="bottom"/>
  <anchor x="281.59999999999997" y="291.8" name="center"/>
  <anchor x="340.6" y="740.0" name="top"/>
  <anchor x="620.6" y="740.0" name="topright"/>
  <outline>
    <contour>
      <point x="436.20000000000005" y="-10.0" type="curve" smooth="yes"/>
      <point x="463.6" y="-10.0"/>
      <point x="497.20000000000005" y="-3.2000000000000006"/>
      <point x="517.8000000000002" y="6.999999999999998" type="curve"/>
      <point x="525.4" y="124.8" type="line"/>
      <point x="519.6" y="122.59999999999998"/>
      <point x="512.4000000000001" y="121.99999999999999"/>
      <point x="506.40000000000003" y="121.99999999999999" type="curve" smooth="yes"/>
      <point x="491.79999999999995" y="121.99999999999999"/>
      <point x="485.8" y="129.39999999999998"/>
      <point x="485.8" y="142.79999999999998" type="curve" smooth="yes"/>
      <point x="485.8" y="158.39999999999998"/>
      <point x="560.4" y="624.2000000000002"/>
      <point x="578.4" y="740.0" type="curve"/>
      <point x="424.8" y="740.0" type="line"/>
      <point x="393.20000000000005" y="539.0" type="line"/>
      <point x="366.4000000000001" y="548.4"/>
      <point x="333.4" y="554.0"/>
      <point x="294.8" y="554.0" type="curve" smooth="yes"/>
      <point x="142.00000000000003" y="554.0"/>
      <point x="19.8" y="418.8"/>
      <point x="19.8" y="183.0" type="curve" smooth="yes"/>
      <point x="19.8" y="51.6"/>
      <point x="86.2" y="-10.0"/>
      <point x="182.4" y="-10.0" type="curve" smooth="yes"/>
      <point x="239.60000000000002" y="-10.0"/>
      <point x="294.40000000000003" y="13.400000000000002"/>
      <point x="332.8" y="43.2" type="curve"/>
      <point x="352.20000000000005" y="9.4"/>
      <point x="390.2" y="-10.0"/>
    </contour>
    <contour>
      <point x="244.6" y="121.19999999999999" type="curve" smooth="yes"/>
      <point x="204.40000000000003" y="121.19999999999999"/>
      <point x="175.79999999999998" y="147.79999999999998"/>
      <point x="175.79999999999998" y="196.0" type="curve" smooth="yes"/>
      <point x="175.79999999999998" y="318.5999999999999"/>
      <point x="232.6" y="432.4"/>
      <point x="312.40000000000003" y="432.4" type="curve" smooth="yes"/>
      <point x="336.6" y="432.4"/>
      <point x="357.00000000000006" y="428.99999999999994"/>
      <point x="374.8" y="423.40000000000003" type="curve"/>
      <point x="330.4" y="143.79999999999998" type="line"/>
      <point x="306.2" y="130.79999999999998"/>
      <point x="273.4" y="121.19999999999999"/>
    </contour>
  </outline>
</glyph>
<glyph name="e" format="2">
  <advance width="516.4"/>
  <unicode hex="0065"/>
  <note>
14 points
</note>
  <anchor x="240.99999999999997" y="0.0" name="bottom"/>
  <anchor x="395.19999999999993" y="5.2" name="ogonek"/>
  <anchor x="317.19999999999993" y="544.2" name="top"/>
  <outline>
    <contour>
      <point x="145.99999999999997" y="299.0" type="curve"/>
      <point x="137.0" y="209.39999999999998" type="line"/>
      <point x="179.20000000000002" y="205.6"/>
      <point x="226.8" y="207.2"/>
      <point x="279.79999999999995" y="214.80000000000004" type="curve" smooth="yes"/>
      <point x="425.99999999999994" y="238.00000000000003"/>
      <point x="514.2000000000002" y="312.2"/>
      <point x="514.2000000000002" y="416.6" type="curve" smooth="yes"/>
      <point x="514.2000000000002" y="499.5999999999999"/>
      <point x="444.6000000000001" y="553.6000000000001"/>
      <point x="333.8" y="553.6000000000001" type="curve" smooth="yes"/>
      <point x="128.60000000000002" y="553.6000000000001"/>
      <point x="21.600000000000005" y="404.59999999999997"/>
      <point x="21.600000000000005" y="207.00000000000003" type="curve" smooth="yes"/>
      <point x="21.600000000000005" y="68.8"/>
      <point x="106.19999999999999" y="-10.0"/>
      <point x="254.60000000000002" y="-10.0" type="curve" smooth="yes"/>
      <point x="322.40000000000003" y="-10.0"/>
      <point x="393.8" y="1.2000000000000006"/>
      <point x="455.40000000000003" y="24.799999999999997" type="curve"/>
      <point x="436.6" y="147.4" type="line"/>
      <point x="376.40000000000003" y="126.6"/>
      <point x="320.6" y="117.79999999999998"/>
      <point x="282.99999999999994" y="117.79999999999998" type="curve" smooth="yes"/>
      <point x="205.2" y="117.79999999999998"/>
      <point x="172.40000000000003" y="145.4"/>
      <point x="173.2" y="225.8" type="curve" smooth="yes"/>
      <point x="174.00000000000003" y="354.79999999999995"/>
      <point x="232.0" y="437.99999999999994"/>
      <point x="311.4" y="437.99999999999994" type="curve" smooth="yes"/>
      <point x="348.2000000000001" y="437.99999999999994"/>
      <point x="363.59999999999997" y="424.2"/>
      <point x="363.59999999999997" y="394.6" type="curve" smooth="yes"/>
      <point x="363.2" y="348.4"/>
      <point x="316.4000000000001" y="317.59999999999997"/>
      <point x="237.8" y="304.19999999999993" type="curve" smooth="yes"/>
      <point x="206.79999999999998" y="299.0"/>
      <point x="172.8" y="296.0"/>
    </contour>
  </outline>
</glyph>
<glyph name="f" format="2">
  <advance width="367.04"/>
  <unicode hex="0066"/>
  <outline>
    <contour>
      <point x="1.6799999999999926" y="-220.0" type="curve" smooth="yes"/>
      <point x="106.88" y="-220.0"/>
      <point x="165.86" y="-150.12"/>
      <point x="188.27999999999997" y="-9.54" type="curve" smooth="yes"/>
      <point x="250.37999999999997" y="384.08000000000004" type="line"/>
      <point x="372.02" y="384.08000000000004" type="line"/>
      <point x="391.12" y="502.9" type="line"/>
      <point x="269.2" y="502.9" type="line"/>
      <point x="282.14" y="585.64"/>
      <point x="311.62" y="616.1999999999999"/>
      <point x="364.42" y="616.1999999999999" type="curve" smooth="yes"/>
      <point x="392.8" y="616.1999999999999"/>
      <point x="423.5" y="610.2"/>
      <point x="447.71999999999997" y="602.4" type="curve"/>
      <point x="487.22" y="722.6" type="line"/>
      <point x="446.4" y="739.2199999999999"/>
      <point x="400.16" y="750.0"/>
      <point x="347.72" y="750.0" type="curve" smooth="yes"/>
      <point x="221.78" y="750.0"/>
      <point x="140.04" y="668.86"/>
      <point x="116.1" y="502.9" type="curve"/>
      <point x="46.599999999999994" y="492.68" type="line"/>
      <point x="28.64" y="384.08000000000004" type="line"/>
      <point x="97.0" y="384.08000000000004" type="line"/>
      <point x="36.94" y="1.9599999999999937" type="line" smooth="yes"/>
      <point x="27.14" y="-59.52000000000001"/>
      <point x="8.399999999999997" y="-86.94000000000001"/>
      <point x="-26.419999999999995" y="-86.94000000000001" type="curve" smooth="yes"/>
      <point x="-37.040000000000006" y="-86.94000000000001"/>
      <point x="-48.94" y="-85.66"/>
      <point x="-62.780000000000015" y="-80.98" type="curve"/>
      <point x="-96.28" y="-202.42000000000002" type="line"/>
      <point x="-65.06" y="-214.51999999999998"/>
      <point x="-34.58" y="-220.0"/>
    </contour>
  </outline>
</glyph>
<glyph name="g" format="2">
  <advance width="554.0000000000001"/>
  <unicode hex="0067"/>
  <note>
16
</note>
  <anchor x="192.0" y="-215.4" name="bottom"/>
  <anchor x="324.0" y="544.0" name="top"/>
  <outline>
    <contour>
      <point x="-13.2" y="-179.60000000000002" type="line"/>
      <point x="47.4" y="-203.99999999999997"/>
      <point x="121.20000000000003" y="-220.0"/>
      <point x="198.6" y="-220.0" type="curve" smooth="yes"/>
      <point x="354.3999999999999" y="-220.0"/>
      <point x="440.0" y="-138.6"/>
      <point x="465.59999999999997" y="26.4" type="curve" smooth="yes"/>
      <point x="545.4" y="524.8" type="line"/>
      <point x="504.6" y="539.4"/>
      <point x="406.79999999999995" y="554.0"/>
      <point x="341.0" y="554.0" type="curve" smooth="yes"/>
      <point x="111.4" y="554.0"/>
      <point x="19.599999999999998" y="393.59999999999997"/>
      <point x="19.599999999999998" y="179.6" type="curve" smooth="yes"/>
      <point x="19.599999999999998" y="74.2"/>
      <point x="74.8" y="7.999999999999998"/>
      <point x="176.60000000000002" y="7.999999999999998" type="curve" smooth="yes"/>
      <point x="212.39999999999998" y="7.999999999999998"/>
      <point x="273.19999999999993" y="21.799999999999997"/>
      <point x="315.2" y="44.199999999999996" type="curve"/>
      <point x="311.59999999999997" y="16.799999999999994" type="line" smooth="yes"/>
      <point x="300.0" y="-65.39999999999999"/>
      <point x="258.4" y="-91.80000000000001"/>
      <point x="189.0" y="-91.80000000000001" type="curve" smooth="yes"/>
      <point x="137.59999999999997" y="-91.80000000000001"/>
      <point x="75.59999999999998" y="-78.2"/>
      <point x="26.399999999999995" y="-61.19999999999999" type="curve"/>
    </contour>
    <contour>
      <point x="375.40000000000003" y="425.40000000000003" type="curve"/>
      <point x="332.0" y="152.39999999999998" type="line"/>
      <point x="308.99999999999994" y="139.39999999999998"/>
      <point x="275.99999999999994" y="128.79999999999998"/>
      <point x="252.60000000000002" y="128.79999999999998" type="curve" smooth="yes"/>
      <point x="204.79999999999998" y="128.79999999999998"/>
      <point x="177.2" y="158.00000000000003"/>
      <point x="177.2" y="220.39999999999998" type="curve" smooth="yes"/>
      <point x="177.2" y="323.59999999999997"/>
      <point x="232.60000000000002" y="436.00000000000006"/>
      <point x="316.59999999999997" y="436.00000000000006" type="curve" smooth="yes"/>
      <point x="343.99999999999994" y="436.00000000000006"/>
      <point x="360.4" y="430.59999999999997"/>
    </contour>
  </outline>
</glyph>
<glyph name="h" format="2">
  <advance width="551.0"/>
  <unicode hex="0068"/>
  <note>
16
</note>
  <anchor x="238.32" y="0.0" name="bottom"/>
  <anchor x="293.20095999999995" y="377.0" name="center"/>
  <anchor x="345.04" y="740.0" name="top"/>
  <outline>
    <contour>
      <point x="479.96" y="143.35999999999999" type="curve" smooth="yes"/>
      <point x="479.96" y="168.60000000000002"/>
      <point x="523.2399999999999" y="401.28"/>
      <point x="523.2399999999999" y="438.72" type="curve" smooth="yes"/>
      <point x="523.2399999999999" y="506.84000000000003"/>
      <point x="484.4800000000001" y="554.0"/>
      <point x="396.67999999999995" y="554.0" type="curve" smooth="yes"/>
      <point x="340.36" y="554.0"/>
      <point x="297.08" y="537.64"/>
      <point x="237.39999999999998" y="503.6" type="curve"/>
      <point x="275.52000000000004" y="740.0" type="line"/>
      <point x="121.60000000000001" y="740.0" type="line"/>
      <point x="3.4400000000000044" y="0.0" type="line"/>
      <point x="157.51999999999998" y="0.0" type="line"/>
      <point x="220.11999999999998" y="394.19999999999993" type="line"/>
      <point x="252.68" y="411.0"/>
      <point x="283.84" y="422.84000000000003"/>
      <point x="312.91999999999996" y="422.84000000000003" type="curve" smooth="yes"/>
      <point x="348.28" y="422.84000000000003"/>
      <point x="361.32000000000005" y="404.6"/>
      <point x="361.32000000000005" y="378.56" type="curve" smooth="yes"/>
      <point x="361.32000000000005" y="349.03999999999996"/>
      <point x="318.44000000000005" y="120.11999999999999"/>
      <point x="318.44000000000005" y="83.44" type="curve" smooth="yes"/>
      <point x="318.44000000000005" y="26.12"/>
      <point x="363.6" y="-10.0"/>
      <point x="428.28000000000003" y="-10.0" type="curve" smooth="yes"/>
      <point x="457.08" y="-10.0"/>
      <point x="489.8800000000001" y="-3.9599999999999995"/>
      <point x="512.52" y="5.999999999999999" type="curve"/>
      <point x="520.8" y="125.71999999999998" type="line"/>
      <point x="513.72" y="123.52"/>
      <point x="506.3600000000001" y="122.16"/>
      <point x="500.72" y="122.16" type="curve" smooth="yes"/>
      <point x="486.76000000000005" y="122.16"/>
      <point x="479.96" y="129.48000000000002"/>
    </contour>
  </outline>
</glyph>
<glyph name="i" format="2">
  <advance width="249.72"/>
  <unicode hex="0069"/>
  <note>
Ajuster pts sur points
8
</note>
  <anchor x="81.04432" y="0.0" name="bottom"/>
  <anchor x="157.98000000000002" y="0.0" name="ogonek"/>
  <anchor x="167.29568000000003" y="544.0" name="top"/>
  <outline>
    <contour>
      <point x="4.6200000000000045" y="0.0" type="line"/>
      <point x="157.98000000000002" y="0.0" type="line"/>
      <point x="243.8" y="544.0" type="line"/>
      <point x="90.82000000000001" y="544.0" type="line"/>
    </contour>
    <contour>
      <point x="202.78" y="766.0" type="curve" smooth="yes"/>
      <point x="129.54" y="766.0"/>
      <point x="98.56" y="723.4999999999999"/>
      <point x="97.9" y="663.0" type="curve" smooth="yes"/>
      <point x="97.72000000000001" y="622.2199999999999"/>
      <point x="122.86" y="601.38"/>
      <point x="175.07999999999998" y="601.38" type="curve" smooth="yes"/>
      <point x="241.5" y="601.38"/>
      <point x="279.14" y="640.8000000000001"/>
      <point x="279.91999999999996" y="705.1999999999999" type="curve" smooth="yes"/>
      <point x="280.1" y="745.58"/>
      <point x="254.9" y="766.0"/>
    </contour>
  </outline>
</glyph>
<glyph name="j" format="2">
  <advance width="260.64"/>
  <unicode hex="006A"/>
  <note>
idem /i
12
</note>
  <outline>
    <contour>
      <point x="213.98000000000002" y="766.0" type="curve" smooth="yes"/>
      <point x="140.46" y="766.0"/>
      <point x="110.00000000000001" y="723.4999999999999"/>
      <point x="109.34" y="663.0" type="curve" smooth="yes"/>
      <point x="109.16000000000001" y="622.2199999999999"/>
      <point x="134.76" y="601.38"/>
      <point x="186.98" y="601.38" type="curve" smooth="yes"/>
      <point x="252.62" y="601.38"/>
      <point x="290.09999999999997" y="640.8000000000001"/>
      <point x="290.88" y="705.1999999999999" type="curve" smooth="yes"/>
      <point x="291.06" y="745.58"/>
      <point x="266.09999999999997" y="766.0"/>
    </contour>
    <contour>
      <point x="255.7" y="544.0" type="line"/>
      <point x="102.02000000000001" y="544.0" type="line"/>
      <point x="15.160000000000002" y="-3.560000000000004" type="line" smooth="yes"/>
      <point x="6.52" y="-58.000000000000014"/>
      <point x="-9.879999999999995" y="-86.94000000000001"/>
      <point x="-45.699999999999996" y="-86.94000000000001" type="curve" smooth="yes"/>
      <point x="-55.800000000000004" y="-86.94000000000001"/>
      <point x="-68.54" y="-86.06"/>
      <point x="-82.24000000000001" y="-81.17999999999999" type="curve"/>
      <point x="-115.48" y="-207.38" type="line"/>
      <point x="-84.22" y="-216.48"/>
      <point x="-47.44000000000001" y="-220.0"/>
      <point x="-25.200000000000003" y="-220.0" type="curve" smooth="yes"/>
      <point x="95.17999999999999" y="-220.0"/>
      <point x="145.84" y="-145.64"/>
      <point x="169.24" y="2.6399999999999935" type="curve" smooth="yes"/>
    </contour>
  </outline>
</glyph>
<glyph name="l" format="2">
  <advance width="289.44000000000005"/>
  <unicode hex="006C"/>
  <anchor x="130.32000000000002" y="0.0" name="bottom"/>
  <anchor x="158.38168" y="377.0" name="center"/>
  <anchor x="198.16" y="740.0" name="top"/>
  <anchor x="317.0" y="740.0" name="topright"/>
  <outline>
    <contour>
      <point x="121.56000000000002" y="740.0" type="line"/>
      <point x="27.620000000000005" y="147.39999999999998" type="line" smooth="yes"/>
      <point x="24.96" y="129.84"/>
      <point x="22.759999999999998" y="110.88"/>
      <point x="22.759999999999998" y="94.98" type="curve" smooth="yes"/>
      <point x="22.759999999999998" y="26.380000000000003"/>
      <point x="57.739999999999995" y="-10.0"/>
      <point x="132.54000000000002" y="-10.0" type="curve" smooth="yes"/>
      <point x="174.42000000000002" y="-10.0"/>
      <point x="218.39999999999998" y="-0.6200000000000003"/>
      <point x="252.54" y="13.299999999999999" type="curve"/>
      <point x="260.46" y="135.32" type="line"/>
      <point x="241.22000000000003" y="130.64"/>
      <point x="227.59999999999997" y="128.16"/>
      <point x="214.35999999999996" y="128.16" type="curve" smooth="yes"/>
      <point x="192.1" y="128.16"/>
      <point x="183.8" y="139.36"/>
      <point x="183.8" y="156.94" type="curve" smooth="yes"/>
      <point x="183.8" y="165.78"/>
      <point x="185.23999999999998" y="175.79999999999998"/>
      <point x="187.18" y="187.42" type="curve" smooth="yes"/>
      <point x="274.94" y="740.0" type="line"/>
    </contour>
  </outline>
</glyph>
<glyph name="m" format="2">
  <advance width="812.68"/>
  <unicode hex="006D"/>
  <note>
24&gt;23 points
un point de trop dans la jointure avec 2e jambage
</note>
  <outline>
    <contour>
      <point x="689.12" y="-10.0" type="curve" smooth="yes"/>
      <point x="717.6800000000001" y="-10.0"/>
      <point x="752.52" y="-4.26"/>
      <point x="774.32" y="5.819999999999999" type="curve"/>
      <point x="782.36" y="124.63999999999999" type="line"/>
      <point x="775.7" y="122.44"/>
      <point x="767.8000000000001" y="121.61999999999999"/>
      <point x="762.28" y="121.61999999999999" type="curve" smooth="yes"/>
      <point x="748.44" y="121.61999999999999"/>
      <point x="741.0400000000001" y="130.14"/>
      <point x="741.0400000000001" y="145.34" type="curve" smooth="yes"/>
      <point x="741.0400000000001" y="178.32"/>
      <point x="785.1600000000001" y="403.86000000000007"/>
      <point x="785.1600000000001" y="440.88" type="curve" smooth="yes"/>
      <point x="785.1600000000001" y="505.52000000000004"/>
      <point x="745.0600000000001" y="554.0"/>
      <point x="657.2" y="554.0" type="curve" smooth="yes"/>
      <point x="598.82" y="554.0"/>
      <point x="552.0000000000001" y="534.42"/>
      <point x="490.72" y="491.5" type="curve"/>
      <point x="476.68" y="529.1800000000001"/>
      <point x="444.17999999999995" y="554.0"/>
      <point x="384.14" y="554.0" type="curve" smooth="yes"/>
      <point x="333.9" y="554.0"/>
      <point x="282.67999999999995" y="536.0"/>
      <point x="221.78" y="497.16" type="curve"/>
      <point x="229.20000000000002" y="544.0" type="line"/>
      <point x="90.36" y="544.0" type="line"/>
      <point x="4.380000000000006" y="0.0" type="line"/>
      <point x="157.64" y="0.0" type="line"/>
      <point x="220.48000000000002" y="397.62" type="line"/>
      <point x="247.54" y="413.12"/>
      <point x="272.42" y="422.90000000000003"/>
      <point x="296.03999999999996" y="422.90000000000003" type="curve" smooth="yes"/>
      <point x="330.12" y="422.90000000000003"/>
      <point x="343.6" y="403.6"/>
      <point x="343.6" y="375.62" type="curve" smooth="yes"/>
      <point x="343.6" y="359.16"/>
      <point x="307.82000000000005" y="141.51999999999998"/>
      <point x="285.28000000000003" y="0.0" type="curve"/>
      <point x="437.18000000000006" y="0.0" type="line"/>
      <point x="455.94" y="118.61999999999999"/>
      <point x="481.78000000000003" y="281.26000000000005"/>
      <point x="494.66" y="367.48" type="curve" smooth="yes"/>
      <point x="495.36" y="374.28"/>
      <point x="497.02000000000004" y="389.2"/>
      <point x="497.3" y="394.84" type="curve"/>
      <point x="524.3" y="411.84000000000003"/>
      <point x="548.9" y="422.06000000000006"/>
      <point x="575.18" y="422.06000000000006" type="curve" smooth="yes"/>
      <point x="610.02" y="422.06000000000006"/>
      <point x="623.0800000000002" y="404.02000000000004"/>
      <point x="623.0800000000002" y="376.73999999999995" type="curve" smooth="yes"/>
      <point x="623.0800000000002" y="347.38"/>
      <point x="580.5400000000001" y="124.1"/>
      <point x="580.5400000000001" y="84.63999999999999" type="curve" smooth="yes"/>
      <point x="580.5400000000001" y="23.479999999999997"/>
      <point x="624.68" y="-10.0"/>
    </contour>
  </outline>
</glyph>
<glyph name="n" format="2">
  <advance width="550.64"/>
  <unicode hex="006E"/>
  <note>
16
</note>
  <anchor x="244.14" y="0.0" name="bottom"/>
  <anchor x="312.74" y="544.0" name="top"/>
  <outline>
    <contour>
      <point x="90.36" y="544.0" type="line"/>
      <point x="4.380000000000006" y="0.0" type="line"/>
      <point x="157.35999999999999" y="0.0" type="line"/>
      <point x="220.77999999999997" y="394.79999999999995" type="line"/>
      <point x="250.78" y="410.76"/>
      <point x="283.16" y="423.08"/>
      <point x="313.41999999999996" y="423.08" type="curve" smooth="yes"/>
      <point x="348.14" y="423.08"/>
      <point x="362.40000000000003" y="405.98"/>
      <point x="362.40000000000003" y="378.14" type="curve" smooth="yes"/>
      <point x="362.40000000000003" y="343.29999999999995"/>
      <point x="319.58" y="126.89999999999999"/>
      <point x="319.58" y="81.28" type="curve" smooth="yes"/>
      <point x="319.58" y="26.42"/>
      <point x="363.48" y="-10.0"/>
      <point x="427.92" y="-10.0" type="curve" smooth="yes"/>
      <point x="456.47999999999996" y="-10.0"/>
      <point x="490.48" y="-4.26"/>
      <point x="512.28" y="5.819999999999999" type="curve"/>
      <point x="520.32" y="124.63999999999999" type="line"/>
      <point x="513.66" y="122.44"/>
      <point x="505.76000000000005" y="121.61999999999999"/>
      <point x="500.2400000000001" y="121.61999999999999" type="curve" smooth="yes"/>
      <point x="486.40000000000003" y="121.61999999999999"/>
      <point x="479.24" y="129.0"/>
      <point x="479.24" y="142.94" type="curve" smooth="yes"/>
      <point x="479.24" y="168.36"/>
      <point x="523.78" y="400.91999999999996"/>
      <point x="523.78" y="438.36" type="curve" smooth="yes"/>
      <point x="523.78" y="510.28000000000003"/>
      <point x="477.98" y="554.0"/>
      <point x="395.5799999999999" y="554.0" type="curve" smooth="yes"/>
      <point x="336.8" y="554.0"/>
      <point x="279.0" y="535.1"/>
      <point x="222.8" y="496.61999999999995" type="curve"/>
      <point x="230.04" y="544.0" type="line"/>
    </contour>
  </outline>
</glyph>
<glyph name="o" format="2">
  <advance width="537.1999999999999"/>
  <unicode hex="006F"/>
  <note>
8
</note>
  <anchor x="230.0" y="0.0" name="bottom"/>
  <anchor x="270.4" y="273.2" name="center"/>
  <anchor x="319.6" y="0.0" name="ogonek"/>
  <anchor x="303.0" y="544.0" name="top"/>
  <anchor x="436.0" y="535.1999999999999" name="topright"/>
  <outline>
    <contour>
      <point x="251.79999999999998" y="-10.0" type="curve" smooth="yes"/>
      <point x="434.6" y="-10.0"/>
      <point x="511.6" y="149.80000000000004"/>
      <point x="511.6" y="342.8" type="curve" smooth="yes"/>
      <point x="511.6" y="485.0"/>
      <point x="430.0" y="555.0"/>
      <point x="289.20000000000005" y="555.0" type="curve" smooth="yes"/>
      <point x="99.6" y="555.0"/>
      <point x="23.8" y="387.19999999999993"/>
      <point x="23.8" y="201.0" type="curve" smooth="yes"/>
      <point x="23.8" y="60.00000000000001"/>
      <point x="103.0" y="-10.0"/>
    </contour>
    <contour>
      <point x="250.2" y="109.4" type="curve" smooth="yes"/>
      <point x="205.0" y="109.0"/>
      <point x="177.2" y="132.2"/>
      <point x="176.39999999999998" y="189.2" type="curve" smooth="yes"/>
      <point x="174.79999999999998" y="284.80000000000007"/>
      <point x="204.20000000000002" y="434.80000000000007"/>
      <point x="285.2" y="435.6" type="curve" smooth="yes"/>
      <point x="327.00000000000006" y="436.00000000000006"/>
      <point x="357.0" y="412.8"/>
      <point x="357.79999999999995" y="360.0" type="curve" smooth="yes"/>
      <point x="359.4" y="254.19999999999996"/>
      <point x="330.0" y="110.2"/>
    </contour>
  </outline>
</glyph>
<glyph name="p" format="2">
  <advance width="551.8999999999999"/>
  <unicode hex="0070"/>
  <note>
14 point
</note>
  <outline>
    <contour>
      <point x="-28.15999999999999" y="-210.0" type="line"/>
      <point x="124.35999999999999" y="-210.0" type="line"/>
      <point x="157.72000000000003" y="0.6800000000000008" type="line"/>
      <point x="180.01999999999998" y="-4.459999999999999"/>
      <point x="210.94" y="-9.3"/>
      <point x="247.18000000000004" y="-9.3" type="curve" smooth="yes"/>
      <point x="436.59999999999997" y="-9.3"/>
      <point x="533.42" y="157.7"/>
      <point x="533.42" y="365.35999999999996" type="curve" smooth="yes"/>
      <point x="533.42" y="487.71999999999997"/>
      <point x="483.84000000000003" y="554.0"/>
      <point x="381.76" y="554.0" type="curve" smooth="yes"/>
      <point x="319.46000000000004" y="554.0"/>
      <point x="274.24" y="530.16"/>
      <point x="226.99999999999997" y="498.59999999999997" type="curve"/>
      <point x="230.2" y="545.8" type="line"/>
      <point x="91.0" y="545.8" type="line"/>
    </contour>
    <contour>
      <point x="235.04" y="108.22" type="curve" smooth="yes"/>
      <point x="212.92" y="108.22"/>
      <point x="193.2" y="112.02"/>
      <point x="176.81999999999996" y="117.22" type="curve"/>
      <point x="220.37999999999997" y="393.0" type="line"/>
      <point x="247.4" y="409.68"/>
      <point x="279.38000000000005" y="421.08"/>
      <point x="309.15999999999997" y="421.08" type="curve" smooth="yes"/>
      <point x="356.5" y="421.08"/>
      <point x="377.91999999999996" y="393.1"/>
      <point x="377.91999999999996" y="328.64000000000004" type="curve" smooth="yes"/>
      <point x="377.91999999999996" y="224.4"/>
      <point x="329.1" y="108.22"/>
    </contour>
  </outline>
</glyph>
<glyph name="q" format="2">
  <advance width="551.86"/>
  <unicode hex="0071"/>
  <note>
12
</note>
  <outline>
    <contour>
      <point x="543.14" y="526.0600000000001" type="line"/>
      <point x="490.66" y="539.22"/>
      <point x="411.20000000000005" y="554.0"/>
      <point x="334.5" y="554.0" type="curve" smooth="yes"/>
      <point x="123.26000000000002" y="554.0"/>
      <point x="18.28" y="383.88000000000005"/>
      <point x="18.28" y="173.46" type="curve" smooth="yes"/>
      <point x="18.28" y="55.879999999999995"/>
      <point x="73.94" y="-10.0"/>
      <point x="179.76" y="-10.0" type="curve" smooth="yes"/>
      <point x="227.22000000000003" y="-10.0"/>
      <point x="267.6" y="6.980000000000001"/>
      <point x="312.11999999999995" y="37.74000000000001" type="curve"/>
      <point x="272.74" y="-210.0" type="line"/>
      <point x="425.09999999999997" y="-210.0" type="line"/>
    </contour>
    <contour>
      <point x="373.74000000000007" y="424.16" type="curve"/>
      <point x="329.82" y="148.28" type="line"/>
      <point x="301.15999999999997" y="130.17999999999998"/>
      <point x="272.44" y="120.82000000000001"/>
      <point x="244.23999999999998" y="120.82000000000001" type="curve" smooth="yes"/>
      <point x="202.06" y="120.82000000000001"/>
      <point x="172.84" y="145.76"/>
      <point x="172.84" y="210.77999999999997" type="curve" smooth="yes"/>
      <point x="172.84" y="312.08000000000004"/>
      <point x="220.7" y="433.86"/>
      <point x="312.62" y="433.86" type="curve" smooth="yes"/>
      <point x="338.40000000000003" y="433.86"/>
      <point x="358.1" y="429.18"/>
    </contour>
  </outline>
</glyph>
<glyph name="r" format="2">
  <advance width="388.20000000000005"/>
  <unicode hex="0072"/>
  <anchor x="78.48" y="0.0" name="bottom"/>
  <anchor x="265.5" y="544.0" name="top"/>
  <outline>
    <contour>
      <point x="227.67999999999998" y="544.0" type="line"/>
      <point x="90.92" y="544.0" type="line"/>
      <point x="4.100000000000005" y="0.0" type="line"/>
      <point x="156.26" y="0.0" type="line"/>
      <point x="215.13999999999996" y="365.56" type="line"/>
      <point x="257.16" y="394.52000000000004"/>
      <point x="290.20000000000005" y="404.42"/>
      <point x="321.97999999999996" y="404.42" type="curve" smooth="yes"/>
      <point x="341.14" y="404.42"/>
      <point x="363.88" y="401.12"/>
      <point x="385.82000000000005" y="395.0" type="curve"/>
      <point x="431.20000000000005" y="543.1600000000001" type="line"/>
      <point x="410.66" y="550.7400000000001"/>
      <point x="388.7" y="554.0"/>
      <point x="365.66" y="554.0" type="curve" smooth="yes"/>
      <point x="318.82" y="554.0"/>
      <point x="278.21999999999997" y="533.4399999999999"/>
      <point x="217.73999999999998" y="480.72" type="curve"/>
    </contour>
  </outline>
</glyph>
<glyph name="s" format="2">
  <advance width="480.0"/>
  <unicode hex="0073"/>
  <anchor x="206.8" y="0.0" name="bottom"/>
  <anchor x="289.2" y="544.0" name="top"/>
  <outline>
    <contour>
      <point x="-16.6" y="29.39999999999999" type="line"/>
      <point x="39.400000000000006" y="6.799999999999999"/>
      <point x="106.19999999999999" y="-10.0"/>
      <point x="197.99999999999997" y="-10.0" type="curve" smooth="yes"/>
      <point x="347.40000000000003" y="-10.0"/>
      <point x="442.59999999999997" y="36.0"/>
      <point x="442.59999999999997" y="174.20000000000002" type="curve" smooth="yes"/>
      <point x="442.59999999999997" y="371.79999999999995"/>
      <point x="172.2" y="298.2"/>
      <point x="172.2" y="392.0" type="curve" smooth="yes"/>
      <point x="172.2" y="422.0"/>
      <point x="201.39999999999998" y="435.0"/>
      <point x="279.59999999999997" y="435.0" type="curve" smooth="yes"/>
      <point x="329.4" y="435.0"/>
      <point x="387.79999999999995" y="423.6"/>
      <point x="433.4" y="407.6" type="curve"/>
      <point x="467.0" y="523.8000000000001" type="line"/>
      <point x="423.4" y="541.4"/>
      <point x="357.4" y="554.0"/>
      <point x="289.8" y="554.0" type="curve" smooth="yes"/>
      <point x="120.8" y="554.0"/>
      <point x="43.20000000000001" y="486.2"/>
      <point x="43.20000000000001" y="375.59999999999997" type="curve" smooth="yes"/>
      <point x="43.20000000000001" y="181.79999999999998"/>
      <point x="314.0" y="247.2"/>
      <point x="314.0" y="148.60000000000002" type="curve" smooth="yes"/>
      <point x="314.0" y="118.8"/>
      <point x="282.59999999999997" y="107.0"/>
      <point x="203.79999999999998" y="107.0" type="curve" smooth="yes"/>
      <point x="139.0" y="107.0"/>
      <point x="65.39999999999999" y="124.99999999999999"/>
      <point x="19.999999999999996" y="144.0" type="curve"/>
    </contour>
  </outline>
</glyph>
<glyph name="t" format="2">
  <advance width="370.04"/>
  <unicode hex="0074"/>
  <anchor x="173.1" y="0.0" name="bottom"/>
  <anchor x="181.76000000000002" y="285.44" name="center"/>
  <anchor x="218.9" y="660.38" name="top"/>
  <anchor x="371.64000000000004" y="771.1" name="topright"/>
  <outline>
    <contour>
      <point x="327.34000000000003" y="136.5" type="line"/>
      <point x="298.42" y="129.56"/>
      <point x="277.2" y="124.78"/>
      <point x="257.54" y="124.78" type="curve" smooth="yes"/>
      <point x="221.64000000000001" y="124.78"/>
      <point x="208.22000000000003" y="142.16"/>
      <point x="208.22000000000003" y="171.48" type="curve" smooth="yes"/>
      <point x="208.22000000000003" y="179.77999999999997"/>
      <point x="209.12" y="188.8"/>
      <point x="210.54" y="199.06000000000003" type="curve" smooth="yes"/>
      <point x="247.46" y="425.42" type="line"/>
      <point x="373.68" y="425.42" type="line"/>
      <point x="394.17999999999995" y="544.0" type="line"/>
      <point x="267.12" y="544.0" type="line"/>
      <point x="285.58" y="660.38" type="line"/>
      <point x="152.66" y="660.38" type="line"/>
      <point x="115.68" y="544.0" type="line"/>
      <point x="42.660000000000004" y="534.08" type="line"/>
      <point x="23.6" y="425.84000000000003" type="line"/>
      <point x="94.34" y="425.84000000000003" type="line"/>
      <point x="56.44000000000001" y="187.72" type="line" smooth="yes"/>
      <point x="52.040000000000006" y="161.08"/>
      <point x="48.96000000000001" y="129.8"/>
      <point x="48.96000000000001" y="109.58000000000001" type="curve" smooth="yes"/>
      <point x="48.96000000000001" y="18.259999999999998"/>
      <point x="104.4" y="-10.0"/>
      <point x="177.06" y="-10.0" type="curve" smooth="yes"/>
      <point x="226.16000000000003" y="-10.0"/>
      <point x="270.96000000000004" y="-1.3200000000000005"/>
      <point x="318.6" y="15.640000000000004" type="curve"/>
    </contour>
  </outline>
</glyph>
<glyph name="u" format="2">
  <advance width="547.8000000000001"/>
  <unicode hex="0075"/>
  <note>
15
</note>
  <anchor x="231.34" y="0.0" name="bottom"/>
  <anchor x="506.1" y="13.58" name="ogonek"/>
  <anchor x="311.15352" y="544.0" name="top"/>
  <anchor x="522.62" y="544.0" name="topright"/>
  <outline>
    <contour>
      <point x="153.64" y="-10.0" type="curve" smooth="yes"/>
      <point x="211.14" y="-10.0"/>
      <point x="264.62" y="11.100000000000001"/>
      <point x="321.28" y="52.640000000000015" type="curve"/>
      <point x="333.44" y="15.44"/>
      <point x="368.6" y="-10.0"/>
      <point x="416.38" y="-10.0" type="curve" smooth="yes"/>
      <point x="446.22" y="-10.0"/>
      <point x="482.1" y="-0.24000000000000088"/>
      <point x="506.1" y="16.66" type="curve"/>
      <point x="513.5200000000001" y="124.4" type="line"/>
      <point x="504.78" y="121.36"/>
      <point x="497.22" y="120.46"/>
      <point x="493.44" y="120.46" type="curve" smooth="yes"/>
      <point x="480.08000000000004" y="120.46"/>
      <point x="472.78" y="128.32"/>
      <point x="472.78" y="146.64" type="curve" smooth="yes"/>
      <point x="472.78" y="153.52"/>
      <point x="474.14" y="166.49999999999997"/>
      <point x="535.22" y="544.0" type="curve"/>
      <point x="382.82" y="544.0" type="line"/>
      <point x="319.96000000000004" y="146.92" type="line"/>
      <point x="290.3" y="130.12"/>
      <point x="260.22" y="119.51999999999998"/>
      <point x="229.46" y="119.51999999999998" type="curve" smooth="yes"/>
      <point x="197.84" y="119.51999999999998"/>
      <point x="181.16" y="135.9"/>
      <point x="182.0" y="165.20000000000002" type="curve" smooth="yes"/>
      <point x="189.56" y="225.95999999999998"/>
      <point x="201.19999999999996" y="296.75999999999993"/>
      <point x="241.44" y="544.0" type="curve"/>
      <point x="88.74000000000001" y="544.0" type="line"/>
      <point x="37.8" y="225.24"/>
      <point x="22.160000000000004" y="145.83999999999997"/>
      <point x="22.160000000000004" y="103.80000000000001" type="curve" smooth="yes"/>
      <point x="22.160000000000004" y="35.36000000000001"/>
      <point x="67.36000000000001" y="-10.0"/>
    </contour>
  </outline>
</glyph>
<glyph name="v" format="2">
  <advance width="496.76"/>
  <unicode hex="0076"/>
  <outline>
    <contour>
      <point x="281.42" y="-0.32000000000000006" type="line"/>
      <point x="424.96" y="239.32000000000002"/>
      <point x="509.73999999999995" y="383.0"/>
      <point x="522.0799999999999" y="544.0" type="curve"/>
      <point x="362.4" y="544.0" type="line"/>
      <point x="357.26" y="427.84"/>
      <point x="313.32" y="326.46000000000004"/>
      <point x="215.18" y="130.5" type="curve"/>
      <point x="197.64" y="545.2" type="line"/>
      <point x="35.86" y="544.16" type="line"/>
      <point x="98.30000000000001" y="-0.32000000000000006" type="line"/>
    </contour>
  </outline>
</glyph>
<glyph name="w" format="2">
  <advance width="729.0200000000001"/>
  <unicode hex="0077"/>
  <note>
15
</note>
  <anchor x="322.46000000000004" y="0.0" name="bottom"/>
  <anchor x="391.5" y="544.0" name="top"/>
  <outline>
    <contour>
      <point x="534.58" y="0.0" type="line"/>
      <point x="673.62" y="249.14000000000001"/>
      <point x="746.6999999999999" y="402.06"/>
      <point x="748.34" y="544.0" type="curve"/>
      <point x="604.8800000000001" y="544.0" type="line"/>
      <point x="599.28" y="429.62"/>
      <point x="566.6600000000001" y="329.90000000000003"/>
      <point x="466.02" y="129.35999999999999" type="curve"/>
      <point x="485.54" y="533.78" type="line"/>
      <point x="315.58000000000004" y="533.78" type="line"/>
      <point x="267.48" y="387.78"/>
      <point x="219.16000000000003" y="264.12"/>
      <point x="167.85999999999999" y="130.04" type="curve"/>
      <point x="189.04" y="545.2" type="line"/>
      <point x="40.019999999999996" y="544.28" type="line"/>
      <point x="48.540000000000006" y="0.0" type="line"/>
      <point x="233.92" y="0.0" type="line"/>
      <point x="280.34" y="110.1"/>
      <point x="330.64" y="237.22"/>
      <point x="370.02" y="341.88000000000005" type="curve"/>
      <point x="361.40000000000003" y="0.0" type="line"/>
    </contour>
  </outline>
</glyph>
<glyph name="x" format="2">
  <advance width="519.6400000000001"/>
  <unicode hex="0078"/>
  <outline>
    <contour>
      <point x="391.24" y="544.0" type="line"/>
      <point x="378.4" y="466.19999999999993"/>
      <point x="350.32000000000005" y="418.88"/>
      <point x="287.84" y="352.08" type="curve"/>
      <point x="233.95999999999998" y="547.6800000000001" type="line"/>
      <point x="66.36" y="543.7199999999999" type="line"/>
      <point x="164.52" y="287.24" type="line"/>
      <point x="64.08" y="200.64"/>
      <point x="1.8000000000000016" y="110.24"/>
      <point x="-19.8" y="0.0" type="curve"/>
      <point x="143.0" y="0.0" type="line"/>
      <point x="161.28" y="91.0"/>
      <point x="202.64000000000001" y="148.07999999999998"/>
      <point x="253.2" y="201.2" type="curve"/>
      <point x="307.84000000000003" y="-1.5199999999999998" type="line"/>
      <point x="477.2" y="0.8800000000000002" type="line"/>
      <point x="374.47999999999996" y="269.79999999999995" type="line"/>
      <point x="479.0400000000001" y="365.24"/>
      <point x="530.04" y="465.71999999999997"/>
      <point x="550.48" y="544.0" type="curve"/>
    </contour>
  </outline>
</glyph>
<glyph name="y" format="2">
  <advance width="510.4"/>
  <unicode hex="0079"/>
  <anchor x="279.4" y="-126.00000000000001" name="bottom"/>
  <anchor x="288.2" y="544.0" name="top"/>
  <outline>
    <contour>
      <point x="399.59999999999997" y="544.2" type="line"/>
      <point x="393.8" y="430.8"/>
      <point x="317.4" y="270.20000000000005"/>
      <point x="234.2" y="114.59999999999998" type="curve"/>
      <point x="176.79999999999998" y="547.0" type="line"/>
      <point x="35.4" y="545.0" type="line"/>
      <point x="124.99999999999999" y="-2.8" type="line"/>
      <point x="168.60000000000002" y="-2.8" type="line"/>
      <point x="129.4" y="-69.39999999999999"/>
      <point x="83.8" y="-135.0"/>
      <point x="30.799999999999997" y="-208.6" type="curve"/>
      <point x="169.2" y="-213.0" type="line"/>
      <point x="336.8" y="54.39999999999999"/>
      <point x="523.6" y="352.8"/>
      <point x="537.8" y="544.4000000000001" type="curve"/>
    </contour>
  </outline>
</glyph>
<glyph name="z" format="2">
  <advance width="495.97999999999996"/>
  <unicode hex="007A"/>
  <anchor x="214.83999999999997" y="0.0" name="bottom"/>
  <anchor x="248.18" y="275.0" name="center"/>
  <anchor x="292.04" y="544.0" name="top"/>
  <outline>
    <contour>
      <point x="-7.8" y="0.0" type="line"/>
      <point x="432.14000000000004" y="0.0" type="line"/>
      <point x="451.52000000000004" y="120.89999999999999" type="line"/>
      <point x="199.62" y="120.89999999999999" type="line"/>
      <point x="480.16" y="429.68" type="line"/>
      <point x="501.78" y="544.0" type="line"/>
      <point x="86.11999999999999" y="544.0" type="line"/>
      <point x="66.04" y="422.26" type="line"/>
      <point x="295.62" y="422.26" type="line"/>
      <point x="8.76" y="107.6" type="line"/>
    </contour>
  </outline>
</glyph>
<glyph name="braceleft" format="2">
  <advance width="328.88"/>
  <unicode hex="007B"/>
  <outline>
    <contour>
      <point x="25.60000000000001" y="-89.80000000000001" type="curve" smooth="yes"/>
      <point x="25.60000000000001" y="-172.20000000000002"/>
      <point x="74.64" y="-210.0"/>
      <point x="146.62" y="-210.0" type="curve" smooth="yes"/>
      <point x="225.92" y="-210.0" type="line"/>
      <point x="244.74" y="-97.60000000000001" type="line"/>
      <point x="206.18" y="-97.60000000000001" type="line" smooth="yes"/>
      <point x="173.94" y="-97.60000000000001"/>
      <point x="161.16000000000003" y="-79.20000000000002"/>
      <point x="161.16000000000003" y="-50.36" type="curve" smooth="yes"/>
      <point x="161.16000000000003" y="28.959999999999997"/>
      <point x="221.79999999999998" y="94.42"/>
      <point x="221.79999999999998" y="176.76" type="curve" smooth="yes"/>
      <point x="221.79999999999998" y="211.79999999999998"/>
      <point x="210.54" y="243.56"/>
      <point x="175.04" y="266.5" type="curve"/>
      <point x="233.64" y="296.55999999999995"/>
      <point x="262.0" y="357.38"/>
      <point x="262.0" y="424.5" type="curve" smooth="yes"/>
      <point x="262.0" y="460.2"/>
      <point x="254.58" y="485.34000000000003"/>
      <point x="254.58" y="527.1" type="curve" smooth="yes"/>
      <point x="254.58" y="573.12"/>
      <point x="270.5" y="627.6"/>
      <point x="324.1" y="627.6" type="curve" smooth="yes"/>
      <point x="361.09999999999997" y="627.6" type="line"/>
      <point x="379.08000000000004" y="740.0" type="line"/>
      <point x="300.68" y="740.0" type="line" smooth="yes"/>
      <point x="176.9" y="740.0"/>
      <point x="124.50000000000001" y="635.8199999999999"/>
      <point x="124.50000000000001" y="522.12" type="curve" smooth="yes"/>
      <point x="124.50000000000001" y="478.32000000000005"/>
      <point x="132.9" y="447.34000000000003"/>
      <point x="132.9" y="413.34" type="curve" smooth="yes"/>
      <point x="132.9" y="368.59999999999997"/>
      <point x="120.88000000000001" y="324.28000000000003"/>
      <point x="81.84000000000002" y="324.28000000000003" type="curve" smooth="yes"/>
      <point x="66.97999999999999" y="324.28000000000003" type="line"/>
      <point x="48.580000000000005" y="208.95999999999998" type="line"/>
      <point x="63.2" y="208.95999999999998" type="line" smooth="yes"/>
      <point x="87.16000000000001" y="208.95999999999998"/>
      <point x="95.22000000000001" y="195.08"/>
      <point x="95.22000000000001" y="173.2" type="curve" smooth="yes"/>
      <point x="95.22000000000001" y="98.17999999999999"/>
      <point x="25.60000000000001" y="14.999999999999998"/>
    </contour>
  </outline>
</glyph>
<glyph name="bar" format="2">
  <advance width="219.68"/>
  <unicode hex="007C"/>
  <outline>
    <contour>
      <point x="253.9" y="790.4200000000001" type="line"/>
      <point x="130.20000000000002" y="790.4200000000001" type="line"/>
      <point x="-29.639999999999993" y="-210.0" type="line"/>
      <point x="94.19999999999999" y="-210.0" type="line"/>
    </contour>
  </outline>
</glyph>
<glyph name="braceright" format="2">
  <advance width="328.88"/>
  <unicode hex="007D"/>
  <outline>
    <contour>
      <point x="300.16" y="619.8" type="curve" smooth="yes"/>
      <point x="300.16" y="702.62"/>
      <point x="250.7" y="740.4200000000001"/>
      <point x="178.71999999999997" y="740.4200000000001" type="curve" smooth="yes"/>
      <point x="99.42" y="740.4200000000001" type="line"/>
      <point x="80.60000000000001" y="628.02" type="line"/>
      <point x="114.96000000000001" y="628.02" type="line" smooth="yes"/>
      <point x="147.62" y="628.02"/>
      <point x="160.82000000000002" y="609.2"/>
      <point x="160.82000000000002" y="580.36" type="curve" smooth="yes"/>
      <point x="160.82000000000002" y="500.2"/>
      <point x="100.18" y="444.76"/>
      <point x="100.18" y="353.59999999999997" type="curve" smooth="yes"/>
      <point x="100.18" y="319.82"/>
      <point x="111.02000000000001" y="288.06000000000006"/>
      <point x="147.36" y="265.53999999999996" type="curve"/>
      <point x="88.76" y="235.06"/>
      <point x="59.980000000000004" y="175.08"/>
      <point x="59.980000000000004" y="107.53999999999999" type="curve" smooth="yes"/>
      <point x="59.980000000000004" y="71.84"/>
      <point x="67.4" y="45.08"/>
      <point x="67.4" y="4.159999999999995" type="curve" smooth="yes"/>
      <point x="67.4" y="-41.86000000000001"/>
      <point x="51.900000000000006" y="-97.18"/>
      <point x="-1.7000000000000028" y="-97.18" type="curve" smooth="yes"/>
      <point x="-35.34" y="-97.18" type="line"/>
      <point x="-53.31999999999999" y="-210.0" type="line"/>
      <point x="24.659999999999997" y="-210.0" type="line" smooth="yes"/>
      <point x="148.44" y="-210.0"/>
      <point x="200.84" y="-100.36"/>
      <point x="200.84" y="-0.10000000000000142" type="curve" smooth="yes"/>
      <point x="200.84" y="55.03999999999999"/>
      <point x="192.44" y="89.32000000000001"/>
      <point x="192.44" y="120.38" type="curve" smooth="yes"/>
      <point x="192.44" y="164.28"/>
      <point x="205.29999999999998" y="207.76000000000002"/>
      <point x="243.5" y="207.76000000000002" type="curve" smooth="yes"/>
      <point x="258.36" y="207.76000000000002" type="line"/>
      <point x="276.76" y="322.66" type="line"/>
      <point x="262.14" y="322.66" type="line" smooth="yes"/>
      <point x="238.17999999999998" y="322.66"/>
      <point x="230.11999999999998" y="336.54"/>
      <point x="230.11999999999998" y="358.42" type="curve" smooth="yes"/>
      <point x="230.11999999999998" y="433.86"/>
      <point x="300.16" y="509.12"/>
    </contour>
  </outline>
</glyph>
<glyph name="asciitilde" format="2">
  <advance width="496.16"/>
  <unicode hex="007E"/>
  <outline>
    <contour>
      <point x="432.92" y="237.9" type="curve"/>
      <point x="452.6" y="368.47999999999996" type="line"/>
      <point x="424.64" y="343.20000000000005"/>
      <point x="395.68" y="331.53999999999996"/>
      <point x="361.52" y="331.53999999999996" type="curve" smooth="yes"/>
      <point x="274.2" y="331.53999999999996"/>
      <point x="238.28" y="415.40000000000003"/>
      <point x="165.8" y="415.40000000000003" type="curve" smooth="yes"/>
      <point x="121.70000000000002" y="415.40000000000003"/>
      <point x="87.56" y="392.52"/>
      <point x="75.58000000000001" y="381.2" type="curve"/>
      <point x="54.5" y="250.50000000000003" type="line"/>
      <point x="74.72" y="266.59999999999997"/>
      <point x="104.58" y="285.08000000000004"/>
      <point x="144.9" y="285.08000000000004" type="curve" smooth="yes"/>
      <point x="226.68" y="285.08000000000004"/>
      <point x="260.98" y="201.22"/>
      <point x="345.84000000000003" y="201.22" type="curve" smooth="yes"/>
      <point x="375.62" y="201.22"/>
      <point x="407.52" y="214.28000000000003"/>
    </contour>
  </outline>
</glyph>
<glyph name="cent" format="2">
  <advance width="639.48"/>
  <unicode hex="00A2"/>
  <outline>
    <contour>
      <point x="222.95999999999998" y="-105.14" type="line"/>
      <point x="341.61999999999995" y="-105.14" type="line"/>
      <point x="357.32" y="-6.24" type="line"/>
      <point x="409.62000000000006" y="-3.22"/>
      <point x="456.76" y="4.380000000000001"/>
      <point x="493.2400000000001" y="15.96" type="curve"/>
      <point x="492.1" y="145.44" type="line"/>
      <point x="444.4000000000001" y="136.26"/>
      <point x="404.36" y="129.74"/>
      <point x="369.4" y="129.74" type="curve" smooth="yes"/>
      <point x="298.9200000000001" y="129.74"/>
      <point x="267.06" y="163.60000000000002"/>
      <point x="267.06" y="218.89999999999998" type="curve" smooth="yes"/>
      <point x="267.06" y="324.94"/>
      <point x="323.88" y="412.08"/>
      <point x="410.4200000000001" y="412.08" type="curve" smooth="yes"/>
      <point x="449.82000000000005" y="412.08"/>
      <point x="479.28000000000003" y="406.61999999999995"/>
      <point x="523.8599999999999" y="395.48" type="curve"/>
      <point x="566.72" y="531.74" type="line"/>
      <point x="529.4" y="542.0600000000001"/>
      <point x="495.26" y="549.7199999999999"/>
      <point x="447.22" y="551.72" type="curve"/>
      <point x="463.38000000000005" y="648.5799999999999" type="line"/>
      <point x="344.72" y="648.5799999999999" type="line"/>
      <point x="326.88" y="540.4" type="line"/>
      <point x="183.86" y="497.76"/>
      <point x="106.38" y="337.96000000000004"/>
      <point x="106.38" y="172.5" type="curve" smooth="yes"/>
      <point x="106.38" y="69.74"/>
      <point x="155.62" y="17.419999999999995"/>
      <point x="239.34" y="0.23999999999999955" type="curve"/>
    </contour>
  </outline>
</glyph>
<glyph name="sterling" format="2">
  <advance width="640.2"/>
  <unicode hex="00A3"/>
  <outline>
    <contour>
      <point x="54.03999999999999" y="0.0" type="line"/>
      <point x="510.24" y="0.0" type="line"/>
      <point x="530.04" y="126.99999999999999" type="line"/>
      <point x="253.64000000000001" y="126.99999999999999" type="line"/>
      <point x="302.08000000000004" y="173.68000000000004"/>
      <point x="333.24000000000007" y="221.76"/>
      <point x="333.24000000000007" y="291.6" type="curve" smooth="yes"/>
      <point x="333.24000000000007" y="338.15999999999997"/>
      <point x="308.71999999999997" y="397.2"/>
      <point x="308.71999999999997" y="447.87999999999994" type="curve" smooth="yes"/>
      <point x="308.71999999999997" y="533.5600000000001"/>
      <point x="364.24000000000007" y="572.8"/>
      <point x="439.96" y="572.8" type="curve" smooth="yes"/>
      <point x="486.9999999999999" y="572.8"/>
      <point x="525.48" y="567.3599999999999"/>
      <point x="570.08" y="551.16" type="curve"/>
      <point x="612.04" y="674.7600000000001" type="line"/>
      <point x="556.4799999999999" y="698.8"/>
      <point x="502.5599999999999" y="710.0"/>
      <point x="434.68000000000006" y="710.0" type="curve" smooth="yes"/>
      <point x="288.32000000000005" y="710.0"/>
      <point x="160.55999999999997" y="617.52"/>
      <point x="160.55999999999997" y="471.31999999999994" type="curve" smooth="yes"/>
      <point x="160.55999999999997" y="397.48"/>
      <point x="190.00000000000003" y="341.91999999999996"/>
      <point x="190.00000000000003" y="282.15999999999997" type="curve" smooth="yes"/>
      <point x="190.00000000000003" y="205.95999999999998"/>
      <point x="140.0" y="151.24"/>
      <point x="68.96" y="100.39999999999998" type="curve"/>
    </contour>
    <contour>
      <point x="91.47999999999999" y="306.88000000000005" type="line"/>
      <point x="485.9200000000001" y="306.88" type="line"/>
      <point x="499.95999999999987" y="398.68" type="line"/>
      <point x="105.36" y="398.68" type="line"/>
    </contour>
  </outline>
</glyph>
<glyph name="currency" format="2">
  <advance width="440.71999999999997"/>
  <unicode hex="00A4"/>
  <outline>
    <contour>
      <point x="87.69999999999999" y="97.18" type="line"/>
      <point x="158.22" y="163.64000000000001" type="line"/>
      <point x="169.88" y="156.24"/>
      <point x="184.68" y="152.66"/>
      <point x="201.52" y="152.66" type="curve" smooth="yes"/>
      <point x="217.95999999999998" y="152.66"/>
      <point x="233.94" y="156.36"/>
      <point x="248.42" y="163.5" type="curve"/>
      <point x="298.96000000000004" y="97.18" type="line"/>
      <point x="388.08" y="181.32000000000002" type="line"/>
      <point x="344.90000000000003" y="238.54000000000002" type="line"/>
      <point x="359.32" y="260.78000000000003"/>
      <point x="368.64000000000004" y="287.22"/>
      <point x="369.48" y="315.91999999999996" type="curve" smooth="yes"/>
      <point x="370.32" y="330.56"/>
      <point x="368.24000000000007" y="344.96"/>
      <point x="364.24000000000007" y="357.94" type="curve"/>
      <point x="425.21999999999997" y="415.15999999999997" type="line"/>
      <point x="363.1" y="499.3" type="line"/>
      <point x="292.73999999999995" y="434.24" type="line"/>
      <point x="280.46000000000004" y="441.5"/>
      <point x="265.14" y="445.8"/>
      <point x="248.0" y="445.8" type="curve" smooth="yes"/>
      <point x="230.74" y="445.8"/>
      <point x="214.32000000000002" y="441.08"/>
      <point x="199.56" y="434.1" type="curve"/>
      <point x="151.56" y="499.3" type="line"/>
      <point x="61.959999999999994" y="415.15999999999997" type="line"/>
      <point x="104.34" y="357.42" type="line"/>
      <point x="90.08" y="336.38"/>
      <point x="81.48" y="310.82"/>
      <point x="80.63999999999999" y="283.5" type="curve" smooth="yes"/>
      <point x="79.8" y="267.6"/>
      <point x="81.46" y="252.18"/>
      <point x="85.74" y="238.94" type="curve"/>
      <point x="24.54" y="181.32000000000002" type="line"/>
    </contour>
    <contour>
      <point x="216.3" y="243.35999999999999" type="curve" smooth="yes"/>
      <point x="189.68" y="243.35999999999999"/>
      <point x="172.67999999999998" y="262.64"/>
      <point x="173.94" y="290.94000000000005" type="curve" smooth="yes"/>
      <point x="175.2" y="326.0"/>
      <point x="202.74" y="354.68"/>
      <point x="233.66000000000003" y="354.68" type="curve" smooth="yes"/>
      <point x="260.74" y="354.68"/>
      <point x="277.14" y="333.69999999999993"/>
      <point x="275.88" y="306.46" type="curve" smooth="yes"/>
      <point x="274.62" y="269.9"/>
      <point x="247.08" y="243.35999999999999"/>
    </contour>
  </outline>
</glyph>
<glyph name="yen" format="2">
  <advance width="665.0"/>
  <unicode hex="00A5"/>
  <outline>
    <contour>
      <point x="104.8" y="303.6" type="line"/>
      <point x="269.2" y="303.6" type="line"/>
      <point x="261.2" y="253.20000000000002" type="line"/>
      <point x="97.0" y="253.20000000000002" type="line"/>
      <point x="84.8" y="174.2" type="line"/>
      <point x="249.0" y="174.2" type="line"/>
      <point x="221.2" y="0.0" type="line"/>
      <point x="358.6" y="0.0" type="line"/>
      <point x="387.4" y="174.2" type="line"/>
      <point x="552.8000000000001" y="174.2" type="line"/>
      <point x="564.4" y="253.20000000000002" type="line"/>
      <point x="398.6" y="253.20000000000002" type="line"/>
      <point x="406.59999999999997" y="303.6" type="line"/>
      <point x="572.8" y="303.6" type="line"/>
      <point x="585.0" y="381.8" type="line"/>
      <point x="419.4" y="381.8" type="line"/>
      <point x="670.8" y="698.2" type="line"/>
      <point x="527.6" y="702.4" type="line"/>
      <point x="363.59999999999997" y="467.4" type="line"/>
      <point x="273.2" y="702.0" type="line"/>
      <point x="128.20000000000002" y="698.2" type="line"/>
      <point x="281.8" y="381.8" type="line"/>
      <point x="117.60000000000001" y="381.8" type="line"/>
    </contour>
  </outline>
</glyph>
<glyph name="brokenbar" format="2">
  <advance width="221.96"/>
  <unicode hex="00A6"/>
  <outline>
    <contour>
      <point x="191.3" y="391.0" type="line"/>
      <point x="256.41999999999996" y="790.4200000000001" type="line"/>
      <point x="132.72000000000003" y="790.4200000000001" type="line"/>
      <point x="67.60000000000001" y="391.0" type="line"/>
    </contour>
    <contour>
      <point x="35.06000000000001" y="190.42" type="line"/>
      <point x="-29.459999999999994" y="-210.0" type="line"/>
      <point x="93.96000000000001" y="-210.0" type="line"/>
      <point x="158.89999999999998" y="190.42" type="line"/>
    </contour>
  </outline>
</glyph>
<glyph name="section" format="2">
  <advance width="507.16"/>
  <unicode hex="00A7"/>
  <outline>
    <contour>
      <point x="17.119999999999997" y="-39.720000000000006" type="curve"/>
      <point x="-36.519999999999996" y="-180.32" type="line"/>
      <point x="11.64" y="-204.78"/>
      <point x="75.12" y="-220.0"/>
      <point x="125.29999999999998" y="-220.0" type="curve" smooth="yes"/>
      <point x="319.90000000000003" y="-220.0"/>
      <point x="455.32" y="-48.74"/>
      <point x="455.32" y="151.05999999999997" type="curve" smooth="yes"/>
      <point x="455.32" y="302.02"/>
      <point x="358.14" y="401.79999999999995"/>
      <point x="358.14" y="510.14000000000004" type="curve" smooth="yes"/>
      <point x="358.14" y="561.36"/>
      <point x="384.74" y="596.38"/>
      <point x="426.34000000000003" y="596.38" type="curve" smooth="yes"/>
      <point x="441.68" y="596.38"/>
      <point x="453.56" y="591.62"/>
      <point x="469.38" y="584.3000000000001" type="curve"/>
      <point x="517.3000000000001" y="728.76" type="line"/>
      <point x="482.68" y="742.58"/>
      <point x="428.03999999999996" y="749.4200000000001"/>
      <point x="388.52" y="749.4200000000001" type="curve" smooth="yes"/>
      <point x="180.92" y="749.4200000000001"/>
      <point x="54.38000000000001" y="585.76"/>
      <point x="54.38000000000001" y="389.7" type="curve" smooth="yes"/>
      <point x="54.38000000000001" y="221.0"/>
      <point x="152.18" y="103.94"/>
      <point x="152.18" y="1.9599999999999915" type="curve" smooth="yes"/>
      <point x="152.18" y="-36.52"/>
      <point x="130.4" y="-68.44000000000001"/>
      <point x="94.53999999999999" y="-68.44000000000001" type="curve" smooth="yes"/>
      <point x="69.06" y="-68.44000000000001"/>
      <point x="42.36" y="-57.90000000000001"/>
    </contour>
    <contour>
      <point x="329.74" y="656.34" type="curve"/>
      <point x="269.08" y="617.8199999999999"/>
      <point x="248.17999999999998" y="552.76"/>
      <point x="248.17999999999998" y="491.56" type="curve" smooth="yes"/>
      <point x="248.17999999999998" y="366.52000000000004"/>
      <point x="338.34000000000003" y="244.20000000000002"/>
      <point x="338.34000000000003" y="120.65999999999998" type="curve" smooth="yes"/>
      <point x="338.34000000000003" y="-2.720000000000006"/>
      <point x="271.74" y="-135.78"/>
      <point x="147.45999999999998" y="-140.12" type="curve"/>
      <point x="226.78" y="-113.9"/>
      <point x="263.56" y="-34.660000000000004"/>
      <point x="263.56" y="37.57999999999999" type="curve" smooth="yes"/>
      <point x="263.56" y="155.83999999999997"/>
      <point x="174.04" y="277.8"/>
      <point x="174.04" y="406.4" type="curve" smooth="yes"/>
      <point x="174.04" y="521.88"/>
      <point x="224.08" y="632.5"/>
    </contour>
  </outline>
</glyph>
<glyph name="copyright" format="2">
  <advance width="743.86"/>
  <unicode hex="00A9"/>
  <outline>
    <contour>
      <point x="355.72" y="-10.399999999999999" type="curve" smooth="yes"/>
      <point x="602.48" y="-11.36"/>
      <point x="707.98" y="145.48000000000002"/>
      <point x="707.98" y="373.53999999999996" type="curve" smooth="yes"/>
      <point x="707.98" y="570.2399999999999"/>
      <point x="621.08" y="708.18"/>
      <point x="414.5799999999999" y="709.14" type="curve" smooth="yes"/>
      <point x="169.2" y="710.1"/>
      <point x="59.46000000000001" y="556.1400000000001"/>
      <point x="59.46000000000001" y="325.6" type="curve" smooth="yes"/>
      <point x="59.46000000000001" y="129.78"/>
      <point x="146.2" y="-9.44"/>
    </contour>
    <contour>
      <point x="373.98" y="146.11999999999998" type="curve" smooth="yes"/>
      <point x="415.71999999999997" y="146.11999999999998"/>
      <point x="458.53999999999996" y="155.56"/>
      <point x="488.32" y="168.34" type="curve"/>
      <point x="483.36" y="245.26" type="line"/>
      <point x="456.94000000000005" y="237.01999999999998"/>
      <point x="426.71999999999997" y="231.73999999999998"/>
      <point x="401.12000000000006" y="231.73999999999998" type="curve" smooth="yes"/>
      <point x="355.69999999999993" y="231.73999999999998"/>
      <point x="329.76" y="259.15999999999997"/>
      <point x="329.76" y="306.71999999999997" type="curve" smooth="yes"/>
      <point x="329.76" y="391.46000000000004"/>
      <point x="367.72" y="461.34000000000003"/>
      <point x="431.38" y="461.34000000000003" type="curve" smooth="yes"/>
      <point x="458.18000000000006" y="461.34000000000003"/>
      <point x="480.50000000000006" y="458.62"/>
      <point x="506.35999999999996" y="451.7" type="curve"/>
      <point x="530.36" y="538.26" type="line"/>
      <point x="505.24000000000007" y="546.98"/>
      <point x="473.0" y="552.58"/>
      <point x="432.92" y="552.58" type="curve" smooth="yes"/>
      <point x="320.38000000000005" y="552.58"/>
      <point x="231.07999999999998" y="455.6"/>
      <point x="231.07999999999998" y="303.48" type="curve" smooth="yes"/>
      <point x="231.07999999999998" y="199.98"/>
      <point x="284.58" y="146.11999999999998"/>
    </contour>
    <contour>
      <point x="362.86" y="45.35999999999999" type="curve" smooth="yes"/>
      <point x="187.29999999999998" y="45.35999999999999"/>
      <point x="120.62" y="155.8"/>
      <point x="120.62" y="328.4" type="curve" smooth="yes"/>
      <point x="120.62" y="519.36"/>
      <point x="195.07999999999998" y="653.62"/>
      <point x="407.70000000000005" y="653.62" type="curve" smooth="yes"/>
      <point x="578.46" y="653.62"/>
      <point x="646.8199999999999" y="542.94"/>
      <point x="646.8199999999999" y="371.3" type="curve" smooth="yes"/>
      <point x="646.8199999999999" y="181.14000000000001"/>
      <point x="574.6800000000001" y="45.35999999999999"/>
    </contour>
  </outline>
</glyph>
<glyph name="ordfeminine" format="2">
  <advance width="381.32"/>
  <unicode hex="00AA"/>
  <outline>
    <contour>
      <point x="28.96" y="236.18" type="line"/>
      <point x="337.90000000000003" y="236.18" type="line"/>
      <point x="350.14000000000004" y="315.14" type="line"/>
      <point x="41.2" y="315.14" type="line"/>
    </contour>
    <component base="a.superior" xOffset="9.56"/>
  </outline>
</glyph>
<glyph name="logicalnot" format="2">
  <advance width="492.6"/>
  <unicode hex="00AC"/>
  <outline>
    <contour>
      <point x="56.38" y="318.97999999999996" type="line"/>
      <point x="325.4" y="318.97999999999996" type="line"/>
      <point x="302.88" y="170.84" type="line"/>
      <point x="426.34" y="170.84" type="line"/>
      <point x="469.78000000000003" y="444.78000000000003" type="line"/>
      <point x="77.30000000000001" y="444.78000000000003" type="line"/>
    </contour>
  </outline>
</glyph>
<glyph name="registered" format="2">
  <advance width="645.36"/>
  <unicode hex="00AE"/>
  <outline>
    <contour>
      <point x="319.38" y="209.04" type="curve" smooth="yes"/>
      <point x="526.42" y="209.04"/>
      <point x="647.4599999999999" y="373.26000000000005"/>
      <point x="647.4599999999999" y="616.86" type="curve" smooth="yes"/>
      <point x="647.4599999999999" y="783.92"/>
      <point x="565.38" y="893.12"/>
      <point x="411.72" y="893.12" type="curve" smooth="yes"/>
      <point x="204.68" y="893.12"/>
      <point x="85.88000000000001" y="727.9"/>
      <point x="85.88000000000001" y="485.3" type="curve" smooth="yes"/>
      <point x="85.88000000000001" y="318.47999999999996"/>
      <point x="165.48" y="209.04"/>
    </contour>
    <contour>
      <point x="324.74" y="261.38" type="curve" smooth="yes"/>
      <point x="202.18" y="261.38"/>
      <point x="141.34" y="353.44"/>
      <point x="141.34" y="484.6" type="curve" smooth="yes"/>
      <point x="141.34" y="701.5000000000001"/>
      <point x="236.26000000000002" y="840.02"/>
      <point x="406.6" y="840.02" type="curve" smooth="yes"/>
      <point x="529.16" y="840.02"/>
      <point x="592.0" y="748.72"/>
      <point x="592.0" y="616.56" type="curve" smooth="yes"/>
      <point x="592.0" y="399.65999999999997"/>
      <point x="494.84000000000003" y="261.38"/>
    </contour>
    <contour>
      <point x="217.12" y="374.7" type="line"/>
      <point x="303.4" y="374.7" type="line"/>
      <point x="321.92" y="491.68" type="line"/>
      <point x="332.96000000000004" y="490.91999999999996"/>
      <point x="343.92" y="489.92"/>
      <point x="358.52000000000004" y="490.34" type="curve"/>
      <point x="399.34" y="505.79999999999995" type="line"/>
      <point x="469.61999999999995" y="509.14"/>
      <point x="521.14" y="554.32"/>
      <point x="521.14" y="641.12" type="curve" smooth="yes"/>
      <point x="521.14" y="706.22"/>
      <point x="482.61999999999995" y="737.84"/>
      <point x="393.66" y="737.84" type="curve" smooth="yes"/>
      <point x="361.8" y="737.84"/>
      <point x="323.99999999999994" y="736.2599999999999"/>
      <point x="274.46000000000004" y="731.6999999999999" type="curve"/>
    </contour>
    <contour>
      <point x="363.32000000000005" y="554.5" type="curve" smooth="yes"/>
      <point x="354.38" y="554.5"/>
      <point x="346.99999999999994" y="555.08"/>
      <point x="332.42" y="555.6800000000001" type="curve"/>
      <point x="349.18" y="663.76" type="line"/>
      <point x="369.38" y="665.2200000000001"/>
      <point x="375.22" y="666.2200000000001"/>
      <point x="391.1000000000001" y="666.2200000000001" type="curve" smooth="yes"/>
      <point x="423.16" y="666.2200000000001"/>
      <point x="434.50000000000006" y="655.52"/>
      <point x="434.50000000000006" y="632.92" type="curve" smooth="yes"/>
      <point x="434.50000000000006" y="586.6"/>
      <point x="415.74" y="554.5"/>
    </contour>
    <contour>
      <point x="471.75999999999993" y="370.32000000000005" type="curve" smooth="yes"/>
      <point x="475.0199999999999" y="370.32000000000005"/>
      <point x="484.74" y="371.16"/>
      <point x="490.50000000000006" y="373.42" type="curve"/>
      <point x="501.76" y="457.06" type="line"/>
      <point x="499.12" y="456.90000000000003"/>
      <point x="496.96" y="456.90000000000003"/>
      <point x="494.9800000000001" y="456.90000000000003" type="curve" smooth="yes"/>
      <point x="476.4599999999999" y="456.90000000000003"/>
      <point x="449.50000000000006" y="480.74"/>
      <point x="431.09999999999997" y="527.5400000000001" type="curve"/>
      <point x="345.41999999999996" y="504.52" type="line"/>
      <point x="389.38000000000005" y="398.9599999999999"/>
      <point x="425.36000000000007" y="370.32000000000005"/>
    </contour>
  </outline>
</glyph>
<glyph name="degree" format="2">
  <advance width="323.1"/>
  <unicode hex="00B0"/>
  <outline>
    <contour>
      <point x="183.8" y="399.03999999999996" type="curve" smooth="yes"/>
      <point x="283.28000000000003" y="399.03999999999996"/>
      <point x="340.72" y="497.0199999999999"/>
      <point x="340.72" y="594.06" type="curve" smooth="yes"/>
      <point x="340.72" y="659.68"/>
      <point x="309.40000000000003" y="714.84"/>
      <point x="228.72" y="714.84" type="curve" smooth="yes"/>
      <point x="129.54" y="714.84"/>
      <point x="71.62" y="616.68"/>
      <point x="71.62" y="519.88" type="curve" smooth="yes"/>
      <point x="71.62" y="453.18"/>
      <point x="104.61999999999999" y="399.03999999999996"/>
    </contour>
    <contour>
      <point x="197.52" y="501.16" type="curve" smooth="yes"/>
      <point x="176.70000000000002" y="501.16"/>
      <point x="165.85999999999999" y="517.12"/>
      <point x="165.85999999999999" y="540.4399999999999" type="curve" smooth="yes"/>
      <point x="165.85999999999999" y="576.26"/>
      <point x="184.21999999999997" y="611.04"/>
      <point x="214.4" y="611.04" type="curve" smooth="yes"/>
      <point x="235.88" y="611.04"/>
      <point x="246.48" y="594.72"/>
      <point x="246.48" y="571.58" type="curve" smooth="yes"/>
      <point x="246.48" y="536.48"/>
      <point x="227.46" y="501.16"/>
    </contour>
  </outline>
</glyph>
<glyph name="plusminus" format="2">
  <advance width="493.52"/>
  <unicode hex="00B1"/>
  <outline>
    <contour>
      <point x="403.26" y="21.92" type="line"/>
      <point x="424.18" y="152.1" type="line"/>
      <point x="292.08" y="152.1" type="line"/>
      <point x="312.08" y="277.44" type="line"/>
      <point x="444.0" y="277.44" type="line"/>
      <point x="464.91999999999996" y="407.62000000000006" type="line"/>
      <point x="333.0" y="407.62000000000006" type="line"/>
      <point x="354.38" y="538.5" type="line"/>
      <point x="224.20000000000002" y="538.5" type="line"/>
      <point x="202.44" y="407.62000000000006" type="line"/>
      <point x="71.00000000000001" y="407.62000000000006" type="line"/>
      <point x="50.08" y="277.44" type="line"/>
      <point x="181.89999999999998" y="277.44" type="line"/>
      <point x="161.34" y="152.1" type="line"/>
      <point x="30.26" y="152.1" type="line"/>
      <point x="9.340000000000002" y="21.92" type="line"/>
    </contour>
  </outline>
</glyph>
<glyph name="uni00B2" format="2">
  <advance width="363.0"/>
  <unicode hex="00B2"/>
  <outline>
    <contour>
      <point x="43.8" y="369.26000000000005" type="line"/>
      <point x="347.62" y="369.26000000000005" type="line"/>
      <point x="359.96" y="440.85999999999996" type="line"/>
      <point x="200.72" y="440.85999999999996" type="line"/>
      <point x="288.96000000000004" y="511.84"/>
      <point x="366.42" y="584.32"/>
      <point x="366.42" y="676.34" type="curve" smooth="yes"/>
      <point x="366.42" y="741.06"/>
      <point x="312.38" y="773.26"/>
      <point x="244.96" y="773.26" type="curve" smooth="yes"/>
      <point x="196.1" y="773.26"/>
      <point x="136.67999999999998" y="757.18"/>
      <point x="97.0" y="733.64" type="curve"/>
      <point x="116.62" y="653.72" type="line"/>
      <point x="147.92000000000002" y="670.9599999999999"/>
      <point x="176.12" y="680.26"/>
      <point x="203.5" y="680.26" type="curve" smooth="yes"/>
      <point x="232.35999999999999" y="680.26"/>
      <point x="249.48" y="664.52"/>
      <point x="249.48" y="637.76" type="curve" smooth="yes"/>
      <point x="248.90000000000003" y="576.1"/>
      <point x="165.32" y="498.5"/>
      <point x="53.32000000000001" y="429.74" type="curve"/>
    </contour>
  </outline>
</glyph>
<glyph name="uni00B3" format="2">
  <advance width="379.90000000000003"/>
  <unicode hex="00B3"/>
  <outline>
    <contour>
      <point x="40.8" y="396.0" type="line"/>
      <point x="79.5" y="373.90000000000003"/>
      <point x="130.1" y="364.0"/>
      <point x="183.39999999999998" y="364.0" type="curve" smooth="yes"/>
      <point x="284.5" y="364.0"/>
      <point x="379.3" y="400.2"/>
      <point x="379.3" y="493.2" type="curve" smooth="yes"/>
      <point x="379.3" y="535.0"/>
      <point x="356.3" y="562.3"/>
      <point x="323.3" y="573.8000000000001" type="curve"/>
      <point x="367.0" y="592.7"/>
      <point x="398.8" y="623.0999999999999"/>
      <point x="398.8" y="675.5" type="curve" smooth="yes"/>
      <point x="398.8" y="732.0999999999999"/>
      <point x="343.70000000000005" y="774.1"/>
      <point x="250.3" y="774.1" type="curve" smooth="yes"/>
      <point x="197.20000000000002" y="774.1"/>
      <point x="142.8" y="763.2"/>
      <point x="108.19999999999999" y="746.5" type="curve"/>
      <point x="117.3" y="675.8000000000001" type="line"/>
      <point x="148.3" y="685.5999999999999"/>
      <point x="187.29999999999998" y="690.9"/>
      <point x="220.6" y="690.9" type="curve" smooth="yes"/>
      <point x="267.4" y="690.9"/>
      <point x="294.3" y="675.3000000000001"/>
      <point x="294.3" y="649.4000000000001" type="curve" smooth="yes"/>
      <point x="294.3" y="620.1"/>
      <point x="265.29999999999995" y="604.9"/>
      <point x="216.60000000000002" y="604.9" type="curve" smooth="yes"/>
      <point x="153.8" y="604.9" type="line"/>
      <point x="142.0" y="540.1999999999999" type="line"/>
      <point x="200.4" y="540.1999999999999" type="line" smooth="yes"/>
      <point x="259.6" y="540.1999999999999"/>
      <point x="280.0" y="524.6"/>
      <point x="280.0" y="496.5" type="curve" smooth="yes"/>
      <point x="280.0" y="463.4"/>
      <point x="243.2" y="443.0"/>
      <point x="180.7" y="443.0" type="curve" smooth="yes"/>
      <point x="142.1" y="443.0"/>
      <point x="105.6" y="451.5"/>
      <point x="78.0" y="465.7" type="curve"/>
    </contour>
  </outline>
</glyph>
<glyph name="uni00B5" format="2">
  <advance width="549.84"/>
  <unicode hex="00B5"/>
  <outline>
    <contour>
      <point x="-28.56" y="-210.0" type="line"/>
      <point x="123.39999999999999" y="-210.0" type="line"/>
      <point x="158.2" y="7.780000000000005" type="line"/>
      <point x="165.08" y="-3.599999999999998"/>
      <point x="178.0" y="-10.0"/>
      <point x="196.98" y="-10.0" type="curve" smooth="yes"/>
      <point x="238.66" y="-10.0"/>
      <point x="282.9" y="8.16"/>
      <point x="327.1" y="47.6" type="curve"/>
      <point x="339.26" y="14.6"/>
      <point x="372.74" y="-10.0"/>
      <point x="418.42" y="-10.0" type="curve" smooth="yes"/>
      <point x="448.26" y="-10.0"/>
      <point x="484.14000000000004" y="-0.24000000000000088"/>
      <point x="508.1400000000001" y="16.66" type="curve"/>
      <point x="515.5600000000001" y="124.4" type="line"/>
      <point x="506.82000000000005" y="121.36"/>
      <point x="499.26000000000005" y="120.46"/>
      <point x="495.48" y="120.46" type="curve" smooth="yes"/>
      <point x="482.12000000000006" y="120.46"/>
      <point x="474.82000000000005" y="128.32"/>
      <point x="474.82000000000005" y="146.64" type="curve" smooth="yes"/>
      <point x="474.82000000000005" y="153.52"/>
      <point x="476.18" y="166.49999999999997"/>
      <point x="537.26" y="544.0" type="curve"/>
      <point x="384.86" y="544.0" type="line"/>
      <point x="322.00000000000006" y="146.92" type="line"/>
      <point x="292.34000000000003" y="130.12"/>
      <point x="260.82000000000005" y="119.51999999999998"/>
      <point x="231.14" y="119.51999999999998" type="curve" smooth="yes"/>
      <point x="199.52" y="119.51999999999998"/>
      <point x="183.02" y="135.0"/>
      <point x="183.85999999999999" y="164.3" type="curve" smooth="yes"/>
      <point x="193.52" y="225.77999999999997"/>
      <point x="207.02" y="321.24"/>
      <point x="243.48000000000002" y="544.0" type="curve"/>
      <point x="90.78" y="544.0" type="line"/>
    </contour>
  </outline>
</glyph>
<glyph name="paragraph" format="2">
  <advance width="605.02"/>
  <unicode hex="00B6"/>
  <outline>
    <contour>
      <point x="358.68000000000006" y="-210.0" type="line"/>
      <point x="474.12" y="-210.0" type="line"/>
      <point x="625.66" y="740.0" type="line"/>
      <point x="510.21999999999997" y="740.0" type="line"/>
    </contour>
    <contour>
      <point x="247.5" y="312.28" type="line"/>
      <point x="214.18" y="319.64"/>
      <point x="190.87999999999997" y="355.76"/>
      <point x="190.87999999999997" y="412.46" type="curve" smooth="yes"/>
      <point x="190.87999999999997" y="503.28"/>
      <point x="228.27999999999997" y="607.24"/>
      <point x="320.84000000000003" y="609.5200000000001" type="curve"/>
      <point x="190.78000000000003" y="-210.0" type="line"/>
      <point x="306.22" y="-210.0" type="line"/>
      <point x="457.76000000000005" y="740.0" type="line"/>
      <point x="379.16" y="740.0" type="line" smooth="yes"/>
      <point x="174.90000000000003" y="740.0"/>
      <point x="62.88000000000001" y="603.82"/>
      <point x="62.88000000000001" y="407.5400000000001" type="curve" smooth="yes"/>
      <point x="62.88000000000001" y="303.46"/>
      <point x="114.38" y="234.48000000000002"/>
      <point x="218.0" y="217.06" type="curve"/>
    </contour>
  </outline>
</glyph>
<glyph name="periodcentered" format="2">
  <advance width="230.04"/>
  <unicode hex="00B7"/>
  <outline>
    <contour>
      <point x="34.84" y="289.59999999999997" type="curve" smooth="yes"/>
      <point x="34.24" y="246.95999999999998"/>
      <point x="56.0" y="225.76"/>
      <point x="106.8" y="225.76" type="curve" smooth="yes"/>
      <point x="175.76000000000002" y="225.76"/>
      <point x="205.75999999999996" y="277.92"/>
      <point x="206.35999999999996" y="336.12" type="curve" smooth="yes"/>
      <point x="206.95999999999998" y="378.6"/>
      <point x="184.59999999999997" y="399.8"/>
      <point x="134.79999999999998" y="399.8" type="curve" smooth="yes"/>
      <point x="67.44" y="399.8"/>
      <point x="35.440000000000005" y="346.56"/>
    </contour>
  </outline>
</glyph>
<glyph name="uni00B9" format="2">
  <advance width="346.06"/>
  <unicode hex="00B9"/>
  <outline>
    <contour>
      <point x="48.38" y="370.0" type="line"/>
      <point x="339.44" y="370.0" type="line"/>
      <point x="352.78" y="445.40000000000003" type="line"/>
      <point x="267.06" y="445.40000000000003" type="line"/>
      <point x="320.9" y="767.2400000000001" type="line"/>
      <point x="263.26000000000005" y="767.2400000000001" type="line"/>
      <point x="92.78" y="703.42" type="line"/>
      <point x="100.61999999999999" y="618.76" type="line"/>
      <point x="195.52" y="656.64" type="line"/>
      <point x="159.62" y="445.40000000000003" type="line"/>
      <point x="60.94" y="445.40000000000003" type="line"/>
    </contour>
  </outline>
</glyph>
<glyph name="ordmasculine" format="2">
  <advance width="358.94"/>
  <unicode hex="00BA"/>
  <outline>
    <contour>
      <point x="28.26" y="236.18" type="line"/>
      <point x="318.62" y="236.18" type="line"/>
      <point x="330.68000000000006" y="315.14" type="line"/>
      <point x="40.32000000000001" y="315.14" type="line"/>
    </contour>
    <component base="o.superior" xOffset="9.8"/>
  </outline>
</glyph>
<glyph name="AE" format="2">
  <advance width="895.2"/>
  <unicode hex="00C6"/>
  <anchor x="417.98656000000005" y="0.0" name="bottom"/>
  <anchor x="559.92" y="700.0" name="top"/>
  <outline>
    <contour>
      <point x="351.52000000000004" y="0.0" type="line"/>
      <point x="826.0400000000001" y="0.0" type="line"/>
      <point x="847.08" y="132.52" type="line"/>
      <point x="521.36" y="132.52" type="line"/>
      <point x="546.3199999999999" y="288.72" type="line"/>
      <point x="829.08" y="288.72" type="line"/>
      <point x="850.08" y="414.84000000000003" type="line"/>
      <point x="567.0799999999999" y="414.84000000000003" type="line"/>
      <point x="590.84" y="566.2800000000001" type="line"/>
      <point x="900.32" y="566.2800000000001" type="line"/>
      <point x="922.44" y="700.0" type="line"/>
      <point x="362.12" y="700.0" type="line"/>
      <point x="-42.2" y="0.0" type="line"/>
      <point x="132.68" y="0.0" type="line"/>
      <point x="235.32" y="183.39999999999998" type="line"/>
      <point x="379.96000000000004" y="183.39999999999998" type="line"/>
    </contour>
    <contour>
      <point x="299.96" y="307.16" type="line"/>
      <point x="442.5199999999999" y="582.56" type="line"/>
      <point x="399.28" y="307.16" type="line"/>
    </contour>
  </outline>
</glyph>
<glyph name="multiply" format="2">
  <advance width="454.4"/>
  <unicode hex="00D7"/>
  <outline>
    <contour>
      <point x="102.47999999999999" y="112.0" type="line"/>
      <point x="222.32" y="230.16000000000003" type="line"/>
      <point x="303.04" y="109.44000000000001" type="line"/>
      <point x="398.28" y="205.2" type="line"/>
      <point x="321.8" y="318.28000000000003" type="line"/>
      <point x="437.56000000000006" y="434.79999999999995" type="line"/>
      <point x="366.8" y="527.5999999999999" type="line"/>
      <point x="249.20000000000002" y="409.72" type="line"/>
      <point x="165.92" y="529.52" type="line"/>
      <point x="70.91999999999999" y="436.4" type="line"/>
      <point x="149.76" y="320.56" type="line"/>
      <point x="31.319999999999997" y="203.4" type="line"/>
    </contour>
  </outline>
</glyph>
<glyph name="Oslash" format="2">
  <advance width="666.8"/>
  <unicode hex="00D8"/>
  <anchor x="390.99999999999994" y="700.0" name="top"/>
  <outline>
    <contour>
      <point x="713.1999999999999" y="714.0" type="line"/>
      <point x="596.8000000000001" y="714.0" type="line"/>
      <point x="506.79999999999995" y="608.0" type="line"/>
      <point x="502.59999999999997" y="609.0" type="line"/>
      <point x="134.00000000000003" y="171.00000000000003" type="line"/>
      <point x="129.79999999999998" y="172.40000000000003" type="line"/>
      <point x="-22.599999999999998" y="-8.6" type="line"/>
      <point x="94.39999999999999" y="-8.6" type="line"/>
      <point x="188.60000000000002" y="101.8" type="line"/>
      <point x="192.8" y="100.8" type="line"/>
      <point x="557.4000000000001" y="534.2" type="line"/>
      <point x="561.2" y="532.8" type="line"/>
    </contour>
    <contour>
      <point x="306.59999999999997" y="-7.200000000000001" type="curve" smooth="yes"/>
      <point x="523.8" y="-7.200000000000001"/>
      <point x="644.9999999999999" y="164.39999999999998"/>
      <point x="649.3999999999999" y="413.6000000000001" type="curve" smooth="yes"/>
      <point x="652.5999999999999" y="600.1999999999999"/>
      <point x="559.1999999999999" y="707.1999999999999"/>
      <point x="384.6" y="707.1999999999999" type="curve" smooth="yes"/>
      <point x="167.39999999999998" y="707.1999999999999"/>
      <point x="46.2" y="536.1999999999999"/>
      <point x="41.800000000000004" y="285.8" type="curve" smooth="yes"/>
      <point x="38.6" y="99.2"/>
      <point x="132.0" y="-7.200000000000001"/>
    </contour>
    <contour>
      <point x="318.6" y="120.39999999999998" type="curve" smooth="yes"/>
      <point x="244.39999999999998" y="120.39999999999998"/>
      <point x="198.0" y="163.6"/>
      <point x="198.0" y="271.8" type="curve" smooth="yes"/>
      <point x="198.0" y="455.6"/>
      <point x="267.6" y="579.5999999999999"/>
      <point x="375.0" y="579.5999999999999" type="curve" smooth="yes"/>
      <point x="447.0" y="579.5999999999999"/>
      <point x="493.19999999999993" y="536.4000000000001"/>
      <point x="493.19999999999993" y="427.8000000000001" type="curve" smooth="yes"/>
      <point x="493.19999999999993" y="256.0"/>
      <point x="424.8" y="120.39999999999998"/>
    </contour>
  </outline>
</glyph>
<glyph name="Thorn" format="2">
  <advance width="632.5"/>
  <unicode hex="00DE"/>
  <outline>
    <contour>
      <point x="9.700000000000001" y="0.0" type="line"/>
      <point x="167.29999999999998" y="0.0" type="line"/>
      <point x="185.8" y="112.8" type="line"/>
      <point x="241.2" y="109.4"/>
      <point x="264.5" y="108.7"/>
      <point x="302.3" y="108.7" type="curve" smooth="yes"/>
      <point x="520.0" y="108.7"/>
      <point x="628.1" y="212.5"/>
      <point x="628.1" y="416.2" type="curve" smooth="yes"/>
      <point x="628.1" y="550.1999999999999"/>
      <point x="556.5" y="627.0"/>
      <point x="359.0" y="627.0" type="curve" smooth="yes"/>
      <point x="339.90000000000003" y="627.0"/>
      <point x="312.5" y="626.0"/>
      <point x="267.90000000000003" y="624.5" type="curve"/>
      <point x="280.1" y="700.0" type="line"/>
      <point x="122.49999999999999" y="700.0" type="line"/>
    </contour>
    <contour>
      <point x="294.0" y="237.29999999999998" type="curve" smooth="yes"/>
      <point x="263.5" y="237.29999999999998"/>
      <point x="244.99999999999997" y="237.6"/>
      <point x="207.0" y="240.6" type="curve"/>
      <point x="247.0" y="494.20000000000005" type="line"/>
      <point x="303.1" y="497.79999999999995"/>
      <point x="319.09999999999997" y="498.79999999999995"/>
      <point x="351.1" y="498.79999999999995" type="curve" smooth="yes"/>
      <point x="438.1" y="498.79999999999995"/>
      <point x="468.4" y="453.7"/>
      <point x="468.4" y="396.5" type="curve" smooth="yes"/>
      <point x="468.4" y="287.40000000000003"/>
      <point x="413.8" y="237.29999999999998"/>
    </contour>
  </outline>
</glyph>
<glyph name="germandbls" format="2">
  <advance width="677.4"/>
  <unicode hex="00DF"/>
  <outline>
    <contour>
      <point x="33.96" y="-6.920000000000007" type="line" smooth="yes"/>
      <point x="25.240000000000002" y="-58.88"/>
      <point x="7.759999999999999" y="-86.2"/>
      <point x="-24.88" y="-86.2" type="curve" smooth="yes"/>
      <point x="-35.92" y="-86.2"/>
      <point x="-48.12" y="-84.68"/>
      <point x="-62.920000000000016" y="-80.16000000000001" type="curve"/>
      <point x="-96.68" y="-201.92000000000002" type="line"/>
      <point x="-66.12" y="-214.44"/>
      <point x="-33.120000000000005" y="-220.0"/>
      <point x="3.159999999999991" y="-220.0" type="curve" smooth="yes"/>
      <point x="106.11999999999999" y="-220.0"/>
      <point x="162.16" y="-151.60000000000002"/>
      <point x="182.67999999999998" y="-21.000000000000004" type="curve" smooth="yes"/>
      <point x="264.36" y="497.64000000000004" type="line" smooth="yes"/>
      <point x="278.2" y="583.76"/>
      <point x="330.96000000000004" y="624.76"/>
      <point x="420.8" y="624.76" type="curve" smooth="yes"/>
      <point x="480.44" y="624.76"/>
      <point x="504.32" y="606.56"/>
      <point x="504.32" y="581.3199999999999" type="curve" smooth="yes"/>
      <point x="504.32" y="554.68"/>
      <point x="487.24" y="539.76"/>
      <point x="420.0" y="516.84" type="curve" smooth="yes"/>
      <point x="338.35999999999996" y="488.2"/>
      <point x="294.16" y="446.88"/>
      <point x="294.16" y="360.15999999999997" type="curve" smooth="yes"/>
      <point x="294.16" y="282.08"/>
      <point x="338.59999999999997" y="244.76000000000002"/>
      <point x="421.04" y="218.6" type="curve" smooth="yes"/>
      <point x="490.03999999999996" y="196.2"/>
      <point x="510.2800000000001" y="184.23999999999998"/>
      <point x="510.2800000000001" y="156.76" type="curve" smooth="yes"/>
      <point x="510.2800000000001" y="129.39999999999998"/>
      <point x="474.40000000000003" y="106.88"/>
      <point x="420.24" y="106.88" type="curve" smooth="yes"/>
      <point x="371.56" y="106.88"/>
      <point x="307.55999999999995" y="118.03999999999999"/>
      <point x="262.47999999999996" y="132.68" type="curve"/>
      <point x="230.56" y="21.76" type="line"/>
      <point x="281.84000000000003" y="2.92"/>
      <point x="344.67999999999995" y="-9.84"/>
      <point x="412.24" y="-9.84" type="curve" smooth="yes"/>
      <point x="578.84" y="-9.84"/>
      <point x="659.4800000000001" y="54.480000000000004"/>
      <point x="659.4800000000001" y="171.76" type="curve" smooth="yes"/>
      <point x="659.4800000000001" y="250.99999999999997"/>
      <point x="618.56" y="294.96"/>
      <point x="535.6800000000001" y="319.32" type="curve" smooth="yes"/>
      <point x="457.08" y="342.32"/>
      <point x="436.12" y="352.88"/>
      <point x="436.12" y="377.6" type="curve" smooth="yes"/>
      <point x="436.12" y="402.88"/>
      <point x="455.76" y="411.48"/>
      <point x="528.24" y="434.88" type="curve" smooth="yes"/>
      <point x="612.64" y="461.24"/>
      <point x="648.8000000000001" y="504.52"/>
      <point x="648.8000000000001" y="590.76" type="curve" smooth="yes"/>
      <point x="648.8000000000001" y="689.76"/>
      <point x="569.0" y="750.0"/>
      <point x="426.15999999999997" y="750.0" type="curve" smooth="yes"/>
      <point x="236.48000000000002" y="750.0"/>
      <point x="143.36" y="674.96"/>
      <point x="118.0" y="520.08" type="curve" smooth="yes"/>
      <point x="115.44" y="503.2" type="line"/>
      <point x="43.72" y="492.40000000000003" type="line"/>
      <point x="24.56" y="383.12" type="line"/>
      <point x="95.48" y="383.12" type="line"/>
    </contour>
  </outline>
</glyph>
<glyph name="ae" format="2">
  <advance width="828.6"/>
  <unicode hex="00E6"/>
  <anchor x="377.0" y="0.0" name="bottom"/>
  <anchor x="459.19999999999993" y="544.0" name="top"/>
  <outline>
    <contour>
      <point x="173.79999999999998" y="-10.0" type="curve" smooth="yes"/>
      <point x="222.0" y="-10.0"/>
      <point x="267.79999999999995" y="6.4"/>
      <point x="310.59999999999997" y="39.2" type="curve"/>
      <point x="303.20000000000005" y="-1.7999999999999998" type="line"/>
      <point x="440.6" y="-1.7999999999999998" type="line"/>
      <point x="451.19999999999993" y="61.8" type="line"/>
      <point x="480.2" y="19.599999999999998"/>
      <point x="531.2" y="-9.000000000000002"/>
      <point x="603.1999999999999" y="-9.000000000000002" type="curve" smooth="yes"/>
      <point x="659.4000000000001" y="-9.000000000000002"/>
      <point x="719.1999999999999" y="2.5999999999999996"/>
      <point x="769.5999999999999" y="25.599999999999994" type="curve"/>
      <point x="753.8" y="145.79999999999998" type="line"/>
      <point x="699.2" y="126.4"/>
      <point x="651.5999999999999" y="115.99999999999999"/>
      <point x="607.8" y="115.99999999999999" type="curve" smooth="yes"/>
      <point x="525.0000000000001" y="115.99999999999999"/>
      <point x="481.40000000000003" y="150.8"/>
      <point x="481.40000000000003" y="222.8" type="curve" smooth="yes"/>
      <point x="481.40000000000003" y="334.6"/>
      <point x="534.0" y="438.0"/>
      <point x="617.0" y="438.0" type="curve" smooth="yes"/>
      <point x="653.6" y="438.0"/>
      <point x="672.4000000000001" y="424.6"/>
      <point x="672.4000000000001" y="395.80000000000007" type="curve" smooth="yes"/>
      <point x="672.4000000000001" y="350.8"/>
      <point x="627.6" y="320.2"/>
      <point x="547.8" y="303.40000000000003" type="curve" smooth="yes"/>
      <point x="515.8" y="296.6"/>
      <point x="484.40000000000003" y="294.6"/>
      <point x="453.4" y="296.6" type="curve"/>
      <point x="445.8" y="209.39999999999998" type="line"/>
      <point x="488.59999999999997" y="205.00000000000003"/>
      <point x="538.4" y="206.99999999999997"/>
      <point x="591.6" y="216.20000000000002" type="curve" smooth="yes"/>
      <point x="737.9999999999999" y="239.2"/>
      <point x="823.4" y="316.0"/>
      <point x="823.4" y="421.4" type="curve" smooth="yes"/>
      <point x="823.4" y="503.0"/>
      <point x="768.2" y="554.0"/>
      <point x="672.4000000000001" y="554.0" type="curve" smooth="yes"/>
      <point x="608.5999999999999" y="554.0"/>
      <point x="553.7999999999998" y="532.0"/>
      <point x="518.2" y="492.2" type="curve"/>
      <point x="527.4" y="550.0" type="line"/>
      <point x="390.6" y="550.0" type="line"/>
      <point x="386.20000000000005" y="521.4000000000001" type="line"/>
      <point x="359.79999999999995" y="543.1999999999999"/>
      <point x="324.79999999999995" y="554.0"/>
      <point x="283.59999999999997" y="554.0" type="curve" smooth="yes"/>
      <point x="124.39999999999998" y="554.0"/>
      <point x="19.0" y="396.8"/>
      <point x="19.0" y="175.80000000000004" type="curve" smooth="yes"/>
      <point x="19.0" y="54.800000000000004"/>
      <point x="77.80000000000001" y="-10.0"/>
    </contour>
    <contour>
      <point x="246.4" y="109.4" type="curve" smooth="yes"/>
      <point x="206.4" y="109.4"/>
      <point x="175.59999999999997" y="134.8"/>
      <point x="175.59999999999997" y="198.79999999999995" type="curve" smooth="yes"/>
      <point x="175.59999999999997" y="330.40000000000003"/>
      <point x="244.20000000000002" y="435.6000000000001"/>
      <point x="312.6" y="435.6000000000001" type="curve" smooth="yes"/>
      <point x="334.6" y="435.6000000000001"/>
      <point x="352.6" y="432.40000000000003"/>
      <point x="369.79999999999995" y="421.19999999999993" type="curve"/>
      <point x="324.6" y="132.0" type="line"/>
      <point x="300.79999999999995" y="118.19999999999999"/>
      <point x="272.6" y="109.4"/>
    </contour>
  </outline>
</glyph>
<glyph name="eth" format="2">
  <advance width="554.1999999999999"/>
  <unicode hex="00F0"/>
  <outline>
    <contour>
      <point x="408.59999999999997" y="389.20000000000005" type="curve"/>
      <point x="429.4" y="493.8" type="line"/>
      <point x="391.4" y="518.0"/>
      <point x="338.6" y="528.4000000000001"/>
      <point x="293.4" y="528.4000000000001" type="curve" smooth="yes"/>
      <point x="115.6" y="528.4000000000001"/>
      <point x="17.6" y="383.2"/>
      <point x="17.6" y="207.2" type="curve" smooth="yes"/>
      <point x="17.6" y="50.0"/>
      <point x="113.4" y="-9.4"/>
      <point x="233.0" y="-9.4" type="curve" smooth="yes"/>
      <point x="393.59999999999997" y="-9.4"/>
      <point x="494.2" y="80.2"/>
      <point x="534.6" y="318.6" type="curve" smooth="yes"/>
      <point x="542.8" y="368.4"/>
      <point x="547.0" y="412.0"/>
      <point x="547.0" y="451.79999999999995" type="curve" smooth="yes"/>
      <point x="547.0" y="657.0"/>
      <point x="418.0" y="744.6"/>
      <point x="211.4" y="744.6" type="curve" smooth="yes"/>
      <point x="162.8" y="744.6"/>
      <point x="120.19999999999999" y="735.8000000000001"/>
      <point x="80.2" y="727.8" type="curve"/>
      <point x="77.60000000000001" y="631.0" type="line"/>
      <point x="109.0" y="635.5999999999999"/>
      <point x="134.0" y="643.0"/>
      <point x="187.60000000000002" y="643.0" type="curve" smooth="yes"/>
      <point x="335.0" y="643.0"/>
      <point x="393.40000000000003" y="593.4000000000001"/>
      <point x="393.40000000000003" y="481.59999999999997" type="curve" smooth="yes"/>
      <point x="393.40000000000003" y="444.2"/>
      <point x="389.8" y="400.6"/>
      <point x="380.6" y="345.8" type="curve" smooth="yes"/>
      <point x="347.20000000000005" y="150.00000000000003"/>
      <point x="307.59999999999997" y="102.4"/>
      <point x="243.39999999999998" y="102.4" type="curve" smooth="yes"/>
      <point x="194.6" y="102.4"/>
      <point x="170.19999999999996" y="136.2"/>
      <point x="170.19999999999996" y="196.0" type="curve" smooth="yes"/>
      <point x="170.19999999999996" y="318.99999999999994"/>
      <point x="229.2" y="419.8"/>
      <point x="319.00000000000006" y="419.8" type="curve" smooth="yes"/>
      <point x="350.6" y="419.8"/>
      <point x="382.0" y="409.00000000000006"/>
    </contour>
    <contour>
      <point x="219.39999999999998" y="549.1999999999999" type="line"/>
      <point x="398.40000000000003" y="643.0" type="line"/>
      <point x="396.0" y="646.7999999999998" type="line"/>
      <point x="587.3999999999999" y="746.4000000000001" type="line"/>
      <point x="447.00000000000006" y="746.8000000000001" type="line"/>
      <point x="329.6" y="685.8000000000001" type="line"/>
      <point x="331.59999999999997" y="681.6" type="line"/>
      <point x="82.0" y="549.2" type="line"/>
    </contour>
  </outline>
</glyph>
<glyph name="divide" format="2">
  <advance width="494.35999999999996"/>
  <unicode hex="00F7"/>
  <outline>
    <contour>
      <point x="148.92" y="102.80000000000001" type="curve" smooth="yes"/>
      <point x="148.32" y="69.92000000000002"/>
      <point x="167.72" y="53.6"/>
      <point x="211.32000000000002" y="53.6" type="curve" smooth="yes"/>
      <point x="262.92" y="53.6"/>
      <point x="294.64" y="78.24000000000001"/>
      <point x="295.84" y="139.04" type="curve" smooth="yes"/>
      <point x="296.43999999999994" y="171.92"/>
      <point x="276.6" y="187.84"/>
      <point x="234.08" y="187.84" type="curve" smooth="yes"/>
      <point x="180.67999999999998" y="187.84"/>
      <point x="150.12" y="156.2"/>
    </contour>
    <contour>
      <point x="212.04" y="490.59999999999997" type="curve" smooth="yes"/>
      <point x="211.44000000000003" y="458.47999999999996"/>
      <point x="229.67999999999998" y="441.79999999999995"/>
      <point x="274.03999999999996" y="441.79999999999995" type="curve" smooth="yes"/>
      <point x="325.79999999999995" y="441.79999999999995"/>
      <point x="356.84" y="467.35999999999996"/>
      <point x="358.04" y="527.16" type="curve" smooth="yes"/>
      <point x="358.63999999999993" y="560.8800000000001"/>
      <point x="339.32" y="576.6400000000001"/>
      <point x="296.03999999999996" y="576.6400000000001" type="curve" smooth="yes"/>
      <point x="241.0" y="576.6400000000001"/>
      <point x="213.23999999999998" y="542.5999999999999"/>
    </contour>
    <contour>
      <point x="45.720000000000006" y="249.60000000000002" type="line"/>
      <point x="440.0" y="249.60000000000002" type="line"/>
      <point x="461.8" y="380.80000000000007" type="line"/>
      <point x="66.91999999999999" y="380.80000000000007" type="line"/>
    </contour>
  </outline>
</glyph>
<glyph name="oslash" format="2">
  <advance width="537.1999999999999"/>
  <unicode hex="00F8"/>
  <anchor x="303.2" y="544.0" name="top"/>
  <outline>
    <contour>
      <point x="459.6" y="555.0" type="line"/>
      <point x="390.4" y="471.4000000000001" type="line"/>
      <point x="386.6" y="473.79999999999995" type="line"/>
      <point x="117.39999999999999" y="140.4" type="line"/>
      <point x="113.79999999999998" y="143.79999999999998" type="line"/>
      <point x="-15.4" y="-10.0" type="line"/>
      <point x="80.2" y="-10.0" type="line"/>
      <point x="156.0" y="80.6" type="line"/>
      <point x="160.39999999999998" y="78.19999999999999" type="line"/>
      <point x="431.4" y="413.2" type="line"/>
      <point x="434.4" y="409.79999999999995" type="line"/>
      <point x="556.0" y="555.0" type="line"/>
    </contour>
    <contour>
      <point x="254.4" y="-10.0" type="curve" smooth="yes"/>
      <point x="439.2" y="-10.0"/>
      <point x="513.8" y="148.60000000000002"/>
      <point x="513.8" y="341.2" type="curve" smooth="yes"/>
      <point x="513.8" y="483.8"/>
      <point x="432.20000000000005" y="555.0"/>
      <point x="292.19999999999993" y="555.0" type="curve" smooth="yes"/>
      <point x="100.6" y="555.0"/>
      <point x="26.8" y="388.4"/>
      <point x="26.8" y="202.60000000000002" type="curve" smooth="yes"/>
      <point x="26.8" y="61.20000000000002"/>
      <point x="106.00000000000001" y="-10.0"/>
    </contour>
    <contour>
      <point x="254.99999999999997" y="107.79999999999998" type="curve" smooth="yes"/>
      <point x="206.39999999999998" y="106.79999999999998"/>
      <point x="176.8" y="131.79999999999998"/>
      <point x="175.4" y="185.8" type="curve" smooth="yes"/>
      <point x="171.40000000000003" y="297.59999999999997"/>
      <point x="204.79999999999998" y="435.19999999999993"/>
      <point x="285.6" y="437.19999999999993" type="curve" smooth="yes"/>
      <point x="332.6" y="438.2"/>
      <point x="362.6" y="411.40000000000003"/>
      <point x="364.00000000000006" y="358.0" type="curve" smooth="yes"/>
      <point x="368.00000000000006" y="235.99999999999997"/>
      <point x="332.8" y="109.39999999999998"/>
    </contour>
  </outline>
</glyph>
<glyph name="thorn" format="2">
  <advance width="551.9"/>
  <unicode hex="00FE"/>
  <outline>
    <contour>
      <point x="-28.15999999999999" y="-210.0" type="line"/>
      <point x="124.36" y="-210.0" type="line"/>
      <point x="157.72" y="0.6800000000000008" type="line"/>
      <point x="180.02" y="-4.459999999999999"/>
      <point x="210.94000000000003" y="-9.3"/>
      <point x="247.18000000000004" y="-9.3" type="curve" smooth="yes"/>
      <point x="436.59999999999997" y="-9.3"/>
      <point x="533.4199999999998" y="157.7"/>
      <point x="533.4199999999998" y="365.35999999999996" type="curve" smooth="yes"/>
      <point x="533.4199999999998" y="487.71999999999997"/>
      <point x="483.84000000000003" y="554.0"/>
      <point x="388.75999999999993" y="554.0" type="curve" smooth="yes"/>
      <point x="322.96000000000004" y="554.0"/>
      <point x="278.43999999999994" y="529.46"/>
      <point x="236.09999999999997" y="498.59999999999997" type="curve"/>
      <point x="273.84" y="740.0" type="line"/>
      <point x="121.84000000000002" y="740.0" type="line"/>
    </contour>
    <contour>
      <point x="235.03999999999996" y="110.32000000000001" type="curve" smooth="yes"/>
      <point x="212.92000000000002" y="110.32000000000001"/>
      <point x="193.2" y="114.11999999999999"/>
      <point x="176.81999999999996" y="119.32" type="curve"/>
      <point x="220.37999999999997" y="390.90000000000003" type="line"/>
      <point x="247.4" y="407.58"/>
      <point x="279.38000000000005" y="418.98"/>
      <point x="309.15999999999997" y="418.98" type="curve" smooth="yes"/>
      <point x="356.50000000000006" y="418.98"/>
      <point x="377.92" y="391.0"/>
      <point x="377.92" y="326.54" type="curve" smooth="yes"/>
      <point x="377.92" y="222.29999999999998"/>
      <point x="329.09999999999997" y="110.32000000000001"/>
    </contour>
  </outline>
</glyph>
<glyph name="Dcroat" format="2">
  <advance width="666.84"/>
  <unicode hex="0110"/>
  <outline>
    <contour>
      <point x="13.760000000000002" y="291.8" type="line"/>
      <point x="337.68" y="291.8" type="line"/>
      <point x="359.63999999999993" y="417.52" type="line"/>
      <point x="35.239999999999995" y="417.52" type="line"/>
    </contour>
    <component base="D" xOffset="9.28"/>
  </outline>
</glyph>
<glyph name="dcroat" format="2">
  <advance width="566.8800000000001"/>
  <unicode hex="0111"/>
  <outline>
    <contour>
      <point x="271.0" y="606.8799999999999" type="line"/>
      <point x="612.88" y="606.8799999999999" type="line"/>
      <point x="625.64" y="684.68" type="line"/>
      <point x="284.00000000000006" y="684.68" type="line"/>
    </contour>
    <component base="d"/>
  </outline>
</glyph>
<glyph name="Hbar" format="2">
  <advance width="663.84"/>
  <unicode hex="0126"/>
  <outline>
    <contour>
      <point x="46.540000000000006" y="497.56" type="line"/>
      <point x="689.02" y="497.56" type="line"/>
      <point x="707.3800000000001" y="612.28" type="line"/>
      <point x="64.9" y="612.28" type="line"/>
    </contour>
    <component base="H" xOffset="2.6799999999999997"/>
  </outline>
</glyph>
<glyph name="hbar" format="2">
  <advance width="552.56"/>
  <unicode hex="0127"/>
  <outline>
    <contour>
      <point x="46.00000000000001" y="606.8799999999999" type="line"/>
      <point x="370.71999999999997" y="606.8799999999999" type="line"/>
      <point x="382.87999999999994" y="684.68" type="line"/>
      <point x="58.16" y="684.68" type="line"/>
    </contour>
    <component base="h" xOffset="1.5600000000000003"/>
  </outline>
</glyph>
<glyph name="Idotaccent" format="2">
  <advance width="266.56"/>
  <unicode hex="0130"/>
  <outline>
    <contour>
      <point x="235.27999999999997" y="913.9" type="curve" smooth="yes"/>
      <point x="162.04" y="913.9"/>
      <point x="131.06" y="871.4"/>
      <point x="130.4" y="810.9" type="curve" smooth="yes"/>
      <point x="130.22" y="770.12"/>
      <point x="155.36" y="749.28"/>
      <point x="207.58" y="749.28" type="curve" smooth="yes"/>
      <point x="274.00000000000006" y="749.28"/>
      <point x="311.64000000000004" y="788.7"/>
      <point x="312.42" y="853.0999999999999" type="curve" smooth="yes"/>
      <point x="312.6" y="893.48"/>
      <point x="287.4" y="913.9"/>
    </contour>
    <component base="I"/>
  </outline>
</glyph>
<glyph name="dotlessi" format="2">
  <advance width="249.35999999999999"/>
  <unicode hex="0131"/>
  <anchor x="80.86431999999999" y="0.0" name="bottom"/>
  <anchor x="157.8" y="0.0" name="ogonek"/>
  <anchor x="167.11568000000003" y="544.0" name="top"/>
  <outline>
    <contour>
      <point x="157.8" y="0.0" type="line"/>
      <point x="243.62" y="544.0" type="line"/>
      <point x="90.64" y="544.0" type="line"/>
      <point x="4.440000000000005" y="0.27999999999999997" type="line"/>
    </contour>
  </outline>
</glyph>
<glyph name="kgreenlandic" format="2">
  <advance width="522.8"/>
  <unicode hex="0138"/>
  <anchor x="233.40000000000003" y="0.0" name="bottom"/>
  <anchor x="310.62239999999997" y="544.0" name="top"/>
  <outline>
    <contour>
      <point x="4.600000000000003" y="0.0" type="line"/>
      <point x="158.20000000000002" y="0.0" type="line"/>
      <point x="245.0" y="544.0" type="line"/>
      <point x="90.4" y="544.0" type="line"/>
    </contour>
    <contour>
      <point x="432.8" y="-10.0" type="curve" smooth="yes"/>
      <point x="446.40000000000003" y="-10.0"/>
      <point x="459.6" y="-8.0"/>
      <point x="473.6" y="-3.6" type="curve"/>
      <point x="493.8" y="140.6" type="line"/>
      <point x="486.40000000000003" y="140.0"/>
      <point x="479.4" y="140.0"/>
      <point x="472.59999999999997" y="140.4" type="curve" smooth="yes"/>
      <point x="436.0" y="142.4"/>
      <point x="397.19999999999993" y="161.79999999999998"/>
      <point x="325.4" y="247.99999999999997" type="curve" smooth="yes"/>
      <point x="205.4" y="392.59999999999997" type="line"/>
      <point x="174.39999999999998" y="232.0" type="line"/>
      <point x="272.2" y="102.20000000000002" type="line" smooth="yes"/>
      <point x="330.0" y="25.4"/>
      <point x="377.79999999999995" y="-10.0"/>
    </contour>
    <contour>
      <point x="310.6" y="249.2" type="line"/>
      <point x="416.0" y="327.2"/>
      <point x="507.99999999999994" y="440.8"/>
      <point x="546.8000000000001" y="542.2000000000002" type="curve"/>
      <point x="389.6" y="554.0" type="line"/>
      <point x="350.2" y="453.59999999999997"/>
      <point x="298.59999999999997" y="389.59999999999997"/>
      <point x="216.0" y="324.59999999999997" type="curve"/>
    </contour>
  </outline>
</glyph>
<glyph name="Ldot" format="2">
  <advance width="519.62"/>
  <unicode hex="013F"/>
  <outline>
    <contour>
      <point x="340.81916" y="386.14404" type="curve" smooth="yes"/>
      <point x="340.33916" y="350.90684"/>
      <point x="359.19804" y="333.44838000000004"/>
      <point x="402.31510000000003" y="333.44838000000004" type="curve" smooth="yes"/>
      <point x="458.71061999999995" y="333.44838000000004"/>
      <point x="485.04936000000004" y="371.82278"/>
      <point x="485.76936" y="420.85928" type="curve" smooth="yes"/>
      <point x="486.24936" y="455.91661999999997"/>
      <point x="467.57048000000003" y="473.55508000000003"/>
      <point x="425.01313999999996" y="473.55508000000003" type="curve" smooth="yes"/>
      <point x="369.17776" y="473.55508000000003"/>
      <point x="341.53916000000004" y="434.06054"/>
    </contour>
    <component base="L"/>
  </outline>
</glyph>
<glyph name="ldot" format="2">
  <advance width="359.44000000000005"/>
  <unicode hex="0140"/>
  <outline>
    <contour>
      <point x="269.4771" y="369.1205" type="curve" smooth="yes"/>
      <point x="268.99710000000005" y="339.59796"/>
      <point x="282.57041999999996" y="325.39996"/>
      <point x="314.47488000000004" y="325.39996" type="curve" smooth="yes"/>
      <point x="358.24814" y="325.39996"/>
      <point x="376.1761" y="359.70848"/>
      <point x="376.8961" y="400.35772000000003" type="curve" smooth="yes"/>
      <point x="377.37610000000006" y="429.52736"/>
      <point x="363.98278" y="443.90536000000003"/>
      <point x="332.5126" y="443.90536000000003" type="curve" smooth="yes"/>
      <point x="289.17292" y="443.90536000000003"/>
      <point x="270.19710000000003" y="409.01178"/>
    </contour>
    <component base="l"/>
  </outline>
</glyph>
<glyph name="Lslash" format="2">
  <advance width="527.42"/>
  <unicode hex="0141"/>
  <outline>
    <contour>
      <point x="17.200000000000003" y="0.0" type="line"/>
      <point x="466.02000000000004" y="0.0" type="line"/>
      <point x="488.62" y="135.06" type="line"/>
      <point x="196.56" y="135.06" type="line"/>
      <point x="223.11999999999998" y="303.21999999999997" type="line"/>
      <point x="402.44000000000005" y="397.64000000000004" type="line"/>
      <point x="426.18000000000006" y="540.1999999999999" type="line"/>
      <point x="246.02" y="445.36" type="line"/>
      <point x="287.06" y="700.0" type="line"/>
      <point x="129.74" y="700.0" type="line"/>
      <point x="76.02000000000001" y="366.96" type="line"/>
      <point x="18.760000000000005" y="336.16" type="line"/>
      <point x="-3.3399999999999963" y="194.82" type="line"/>
      <point x="52.94" y="225.34" type="line"/>
    </contour>
  </outline>
</glyph>
<glyph name="lslash" format="2">
  <advance width="306.79999999999995"/>
  <unicode hex="0142"/>
  <outline>
    <contour>
      <point x="-3.259999999999999" y="197.12" type="line"/>
      <point x="300.8" y="385.48" type="line"/>
      <point x="320.48" y="508.96" type="line"/>
      <point x="15.719999999999999" y="320.59999999999997" type="line"/>
    </contour>
    <component base="l" xOffset="8.4"/>
  </outline>
</glyph>
<glyph name="Eng" format="2">
  <advance width="644.6000000000001"/>
  <unicode hex="014A"/>
  <outline>
    <contour>
      <point x="9.4" y="0.0" type="line"/>
      <point x="154.8" y="0.0" type="line"/>
      <point x="221.6" y="411.8" type="line"/>
      <point x="402.40000000000003" y="-1.3999999999999992" type="line"/>
      <point x="394.40000000000003" y="-47.599999999999994"/>
      <point x="364.0" y="-63.00000000000001"/>
      <point x="322.0" y="-63.00000000000001" type="curve" smooth="yes"/>
      <point x="302.40000000000003" y="-64.2"/>
      <point x="283.2" y="-63.40000000000002"/>
      <point x="258.80000000000007" y="-56.80000000000001" type="curve"/>
      <point x="233.6" y="-193.2" type="line"/>
      <point x="264.2" y="-201.60000000000002"/>
      <point x="301.8" y="-203.39999999999998"/>
      <point x="323.40000000000003" y="-203.39999999999998" type="curve" smooth="yes"/>
      <point x="446.8" y="-202.2"/>
      <point x="522.1999999999999" y="-146.4"/>
      <point x="544.4" y="-4.599999999999999" type="curve" smooth="yes"/>
      <point x="658.2" y="700.0" type="line"/>
      <point x="512.0" y="700.0" type="line"/>
      <point x="442.8" y="270.59999999999997" type="line"/>
      <point x="267.20000000000005" y="701.2" type="line"/>
      <point x="121.8" y="701.2" type="line"/>
    </contour>
  </outline>
</glyph>
<glyph name="eng" format="2">
  <advance width="544.96"/>
  <unicode hex="014B"/>
  <outline>
    <contour>
      <point x="452.26000000000005" y="6.959999999999992" type="curve" smooth="yes"/>
      <point x="469.38" y="117.0"/>
      <point x="522.6600000000001" y="426.1"/>
      <point x="522.6600000000001" y="445.18" type="curve" smooth="yes"/>
      <point x="522.6600000000001" y="510.79999999999995"/>
      <point x="478.38" y="554.0"/>
      <point x="395.48" y="554.0" type="curve" smooth="yes"/>
      <point x="336.7" y="554.0"/>
      <point x="287.12" y="535.9399999999999"/>
      <point x="220.28" y="496.61999999999995" type="curve"/>
      <point x="227.51999999999998" y="544.0" type="line"/>
      <point x="90.36" y="544.0" type="line"/>
      <point x="4.380000000000006" y="0.0" type="line"/>
      <point x="155.78" y="0.0" type="line"/>
      <point x="219.94" y="396.2" type="line"/>
      <point x="253.3" y="412.44"/>
      <point x="281.94" y="423.35999999999996"/>
      <point x="311.92" y="423.35999999999996" type="curve" smooth="yes"/>
      <point x="346.02000000000004" y="423.35999999999996"/>
      <point x="363.42" y="407.78000000000003"/>
      <point x="361.18" y="376.48" type="curve" smooth="yes"/>
      <point x="357.82" y="349.35999999999996"/>
      <point x="345.22" y="274.24"/>
      <point x="302.38000000000005" y="7.899999999999993" type="curve" smooth="yes"/>
      <point x="293.74" y="-45.56000000000001"/>
      <point x="274.53999999999996" y="-74.64000000000001"/>
      <point x="236.34000000000003" y="-74.64000000000001" type="curve" smooth="yes"/>
      <point x="230.92000000000002" y="-74.64000000000001"/>
      <point x="223.94000000000003" y="-74.22000000000001"/>
      <point x="216.36" y="-71.70000000000002" type="curve"/>
      <point x="186.02000000000004" y="-214.28" type="line"/>
      <point x="204.24" y="-218.07999999999998"/>
      <point x="234.84000000000003" y="-220.72"/>
      <point x="262.15999999999997" y="-220.72" type="curve" smooth="yes"/>
      <point x="362.09999999999997" y="-220.72"/>
      <point x="428.58000000000004" y="-158.4"/>
    </contour>
  </outline>
</glyph>
<glyph name="OE" format="2">
  <advance width="948.2"/>
  <unicode hex="0152"/>
  <outline>
    <contour>
      <point x="878.8000000000001" y="0.0" type="line"/>
      <point x="900.6" y="132.6" type="line"/>
      <point x="575.4000000000001" y="132.6" type="line"/>
      <point x="600.0000000000001" y="291.19999999999993" type="line"/>
      <point x="885.4000000000001" y="291.19999999999993" type="line"/>
      <point x="906.1999999999999" y="417.40000000000003" type="line"/>
      <point x="620.1999999999999" y="417.40000000000003" type="line"/>
      <point x="644.4" y="566.2" type="line"/>
      <point x="953.4" y="566.2" type="line"/>
      <point x="975.2" y="700.0" type="line"/>
      <point x="664.8000000000001" y="700.0" type="line"/>
      <point x="593.8000000000001" y="704.0000000000001"/>
      <point x="518.8" y="710.0"/>
      <point x="424.4000000000001" y="710.0" type="curve" smooth="yes"/>
      <point x="202.79999999999998" y="710.0"/>
      <point x="36.2" y="518.8"/>
      <point x="36.2" y="250.4" type="curve" smooth="yes"/>
      <point x="36.2" y="79.80000000000001"/>
      <point x="116.8" y="-10.0"/>
      <point x="322.59999999999997" y="-10.0" type="curve" smooth="yes"/>
      <point x="399.59999999999997" y="-10.0"/>
      <point x="465.4" y="-5.0"/>
      <point x="547.4000000000002" y="0.0" type="curve"/>
    </contour>
    <contour>
      <point x="417.8" y="121.60000000000001" type="line"/>
      <point x="390.0" y="118.99999999999999"/>
      <point x="360.2" y="117.39999999999999"/>
      <point x="323.8" y="117.39999999999999" type="curve" smooth="yes"/>
      <point x="238.2" y="117.39999999999999"/>
      <point x="192.6" y="171.0"/>
      <point x="192.6" y="261.6" type="curve" smooth="yes"/>
      <point x="192.6" y="419.79999999999995"/>
      <point x="275.20000000000005" y="579.8000000000001"/>
      <point x="401.6" y="579.8000000000001" type="curve" smooth="yes"/>
      <point x="429.2" y="579.8000000000001"/>
      <point x="470.2" y="577.2"/>
      <point x="490.59999999999997" y="575.5999999999999" type="curve"/>
    </contour>
  </outline>
</glyph>
<glyph name="oe" format="2">
  <advance width="847.6"/>
  <unicode hex="0153"/>
  <outline>
    <contour>
      <point x="246.00000000000003" y="-10.0" type="curve" smooth="yes"/>
      <point x="321.59999999999997" y="-10.0"/>
      <point x="375.8" y="25.400000000000006"/>
      <point x="410.79999999999995" y="65.60000000000001" type="curve"/>
      <point x="446.0" y="19.400000000000002"/>
      <point x="502.4" y="-10.0"/>
      <point x="583.0" y="-10.0" type="curve" smooth="yes"/>
      <point x="651.8" y="-10.0"/>
      <point x="726.5999999999999" y="2.5999999999999996"/>
      <point x="788.5999999999999" y="25.599999999999994" type="curve"/>
      <point x="768.6000000000001" y="148.2" type="line"/>
      <point x="707.9999999999999" y="127.60000000000001"/>
      <point x="647.2" y="117.8"/>
      <point x="610.6" y="117.8" type="curve" smooth="yes"/>
      <point x="532.6" y="117.8"/>
      <point x="501.79999999999995" y="144.4"/>
      <point x="501.79999999999995" y="223.0" type="curve" smooth="yes"/>
      <point x="501.79999999999995" y="351.4"/>
      <point x="562.4" y="435.6"/>
      <point x="635.2" y="435.6" type="curve" smooth="yes"/>
      <point x="670.8000000000001" y="435.6"/>
      <point x="689.8" y="424.2"/>
      <point x="689.8" y="395.0" type="curve" smooth="yes"/>
      <point x="689.8" y="350.80000000000007"/>
      <point x="645.4" y="320.59999999999997"/>
      <point x="567.2" y="305.4" type="curve" smooth="yes"/>
      <point x="535.8" y="299.2"/>
      <point x="503.4" y="296.2"/>
      <point x="474.59999999999997" y="298.20000000000005" type="curve"/>
      <point x="466.0" y="208.60000000000002" type="line"/>
      <point x="508.8" y="205.20000000000002"/>
      <point x="557.5999999999999" y="207.2"/>
      <point x="610.0" y="215.20000000000002" type="curve" smooth="yes"/>
      <point x="756.3999999999999" y="238.80000000000004"/>
      <point x="842.4" y="313.6"/>
      <point x="842.4" y="416.2" type="curve" smooth="yes"/>
      <point x="842.4" y="500.2"/>
      <point x="774.4" y="554.0"/>
      <point x="653.8000000000001" y="554.0" type="curve" smooth="yes"/>
      <point x="570.6" y="554.0"/>
      <point x="504.9999999999999" y="522.0"/>
      <point x="459.59999999999997" y="473.2" type="curve"/>
      <point x="430.20000000000005" y="525.2"/>
      <point x="370.4" y="555.0"/>
      <point x="290.8" y="555.0" type="curve" smooth="yes"/>
      <point x="99.20000000000002" y="555.0"/>
      <point x="24.2" y="387.8"/>
      <point x="24.2" y="205.60000000000002" type="curve" smooth="yes"/>
      <point x="24.2" y="64.80000000000001"/>
      <point x="101.6" y="-10.0"/>
    </contour>
    <contour>
      <point x="253.6" y="109.39999999999999" type="curve" smooth="yes"/>
      <point x="204.79999999999998" y="109.0"/>
      <point x="178.2" y="132.8"/>
      <point x="176.8" y="186.79999999999998" type="curve" smooth="yes"/>
      <point x="174.0" y="286.6"/>
      <point x="205.6" y="434.2"/>
      <point x="281.8" y="435.6" type="curve" smooth="yes"/>
      <point x="329.0" y="436.0"/>
      <point x="356.59999999999997" y="410.40000000000003"/>
      <point x="358.0" y="357.0" type="curve" smooth="yes"/>
      <point x="360.79999999999995" y="256.6"/>
      <point x="326.79999999999995" y="110.8"/>
    </contour>
  </outline>
</glyph>
